<svg xmlns="http://www.w3.org/2000/svg" xmlns:xlink="http://www.w3.org/1999/xlink" width="500" zoomAndPan="magnify" viewBox="0 0 375 374.999991" height="500" preserveAspectRatio="xMidYMid meet" version="1.0"><defs><clipPath id="821222ab65"><path d="M 175 34 L 237 34 L 237 108 L 175 108 Z M 175 34 " clip-rule="nonzero"/></clipPath><clipPath id="9ec59570b7"><path d="M 110.617188 25.90625 L 366.3125 20.726562 L 370.277344 216.433594 L 114.582031 221.613281 Z M 110.617188 25.90625 " clip-rule="nonzero"/></clipPath><clipPath id="39d4eab74d"><path d="M 110.617188 25.90625 L 366.3125 20.726562 L 370.277344 216.433594 L 114.582031 221.613281 Z M 110.617188 25.90625 " clip-rule="nonzero"/></clipPath><clipPath id="4d8be07760"><path d="M 246 32 L 309 32 L 309 107 L 246 107 Z M 246 32 " clip-rule="nonzero"/></clipPath><clipPath id="76a654b536"><path d="M 110.617188 25.90625 L 366.3125 20.726562 L 370.277344 216.433594 L 114.582031 221.613281 Z M 110.617188 25.90625 " clip-rule="nonzero"/></clipPath><clipPath id="24af2cf7a9"><path d="M 110.617188 25.90625 L 366.3125 20.726562 L 370.277344 216.433594 L 114.582031 221.613281 Z M 110.617188 25.90625 " clip-rule="nonzero"/></clipPath><clipPath id="f59cf2c315"><path d="M 117 85 L 187 85 L 187 153 L 117 153 Z M 117 85 " clip-rule="nonzero"/></clipPath><clipPath id="d54ac2ed46"><path d="M 110.617188 25.90625 L 366.3125 20.726562 L 370.277344 216.433594 L 114.582031 221.613281 Z M 110.617188 25.90625 " clip-rule="nonzero"/></clipPath><clipPath id="726bfe2669"><path d="M 110.617188 25.90625 L 366.3125 20.726562 L 370.277344 216.433594 L 114.582031 221.613281 Z M 110.617188 25.90625 " clip-rule="nonzero"/></clipPath><clipPath id="a412b7914c"><path d="M 298 81 L 368 81 L 368 152 L 298 152 Z M 298 81 " clip-rule="nonzero"/></clipPath><clipPath id="3db5a7cf2c"><path d="M 110.617188 25.90625 L 366.3125 20.726562 L 370.277344 216.433594 L 114.582031 221.613281 Z M 110.617188 25.90625 " clip-rule="nonzero"/></clipPath><clipPath id="1f0a3c79df"><path d="M 110.617188 25.90625 L 366.3125 20.726562 L 370.277344 216.433594 L 114.582031 221.613281 Z M 110.617188 25.90625 " clip-rule="nonzero"/></clipPath><clipPath id="b7079cc912"><path d="M 297.882812 81.910156 L 367.152344 80.503906 L 368.578125 150.875 L 299.308594 152.277344 Z M 297.882812 81.910156 " clip-rule="nonzero"/></clipPath><clipPath id="b7b1eb32eb"><path d="M 184 119 L 304 119 L 304 220 L 184 220 Z M 184 119 " clip-rule="nonzero"/></clipPath><clipPath id="6e7be05e74"><path d="M 110.617188 25.90625 L 366.3125 20.726562 L 370.277344 216.433594 L 114.582031 221.613281 Z M 110.617188 25.90625 " clip-rule="nonzero"/></clipPath><clipPath id="083512068b"><path d="M 110.617188 25.90625 L 366.3125 20.726562 L 370.277344 216.433594 L 114.582031 221.613281 Z M 110.617188 25.90625 " clip-rule="nonzero"/></clipPath><clipPath id="5fb6529d74"><path d="M 182.832031 120.332031 L 302.433594 117.90625 L 304.460938 217.980469 L 184.859375 220.402344 Z M 182.832031 120.332031 " clip-rule="nonzero"/></clipPath><clipPath id="cac5f6e848"><path d="M 48 138 L 101 138 L 101 224 L 48 224 Z M 48 138 " clip-rule="nonzero"/></clipPath><clipPath id="daef37c783"><path d="M -18.5625 168.417969 L 180.339844 96.515625 L 258.109375 311.640625 L 59.207031 383.542969 Z M -18.5625 168.417969 " clip-rule="nonzero"/></clipPath><clipPath id="4d33e5f211"><path d="M -18.5625 168.417969 L 180.339844 96.515625 L 258.109375 311.640625 L 59.207031 383.542969 Z M -18.5625 168.417969 " clip-rule="nonzero"/></clipPath><clipPath id="d86f0175e7"><path d="M 111 140 L 162 140 L 162 221 L 111 221 Z M 111 140 " clip-rule="nonzero"/></clipPath><clipPath id="ce7104ff09"><path d="M -18.5625 168.417969 L 180.339844 96.515625 L 258.109375 311.640625 L 59.207031 383.542969 Z M -18.5625 168.417969 " clip-rule="nonzero"/></clipPath><clipPath id="019806c33a"><path d="M -18.5625 168.417969 L 180.339844 96.515625 L 258.109375 311.640625 L 59.207031 383.542969 Z M -18.5625 168.417969 " clip-rule="nonzero"/></clipPath><clipPath id="bc3091ee88"><path d="M 6 209 L 61 209 L 61 282 L 6 282 Z M 6 209 " clip-rule="nonzero"/></clipPath><clipPath id="40b25883da"><path d="M -18.5625 168.417969 L 180.339844 96.515625 L 258.109375 311.640625 L 59.207031 383.542969 Z M -18.5625 168.417969 " clip-rule="nonzero"/></clipPath><clipPath id="3065eb31ab"><path d="M -18.5625 168.417969 L 180.339844 96.515625 L 258.109375 311.640625 L 59.207031 383.542969 Z M -18.5625 168.417969 " clip-rule="nonzero"/></clipPath><clipPath id="fea4fc878f"><path d="M 171 179 L 220 179 L 220 257 L 171 257 Z M 171 179 " clip-rule="nonzero"/></clipPath><clipPath id="dda5b275f3"><path d="M -18.5625 168.417969 L 180.339844 96.515625 L 258.109375 311.640625 L 59.207031 383.542969 Z M -18.5625 168.417969 " clip-rule="nonzero"/></clipPath><clipPath id="80d3a09392"><path d="M -18.5625 168.417969 L 180.339844 96.515625 L 258.109375 311.640625 L 59.207031 383.542969 Z M -18.5625 168.417969 " clip-rule="nonzero"/></clipPath><clipPath id="01f57bc3e5"><path d="M 50 233 L 217 233 L 217 369 L 50 369 Z M 50 233 " clip-rule="nonzero"/></clipPath><clipPath id="35537a2f8c"><path d="M -18.5625 168.417969 L 180.339844 96.515625 L 258.109375 311.640625 L 59.207031 383.542969 Z M -18.5625 168.417969 " clip-rule="nonzero"/></clipPath><clipPath id="a6eec16a88"><path d="M -18.5625 168.417969 L 180.339844 96.515625 L 258.109375 311.640625 L 59.207031 383.542969 Z M -18.5625 168.417969 " clip-rule="nonzero"/></clipPath></defs><g clip-path="url(#821222ab65)"><g clip-path="url(#9ec59570b7)"><g clip-path="url(#39d4eab74d)"><path fill="#a7c7e7" d="M 199.359375 35.074219 C 244.664062 27.78125 249.984375 109.082031 207.902344 107.960938 C 174.070312 107.066406 159.980469 41.410156 199.359375 35.074219 " fill-opacity="1" fill-rule="evenodd"/></g></g></g><g clip-path="url(#4d8be07760)"><g clip-path="url(#76a654b536)"><g clip-path="url(#24af2cf7a9)"><path fill="#a7c7e7" d="M 272.390625 33.59375 C 322.210938 21.65625 318.171875 110.675781 271.515625 106.675781 C 234.585938 103.503906 240.507812 41.230469 272.390625 33.59375 " fill-opacity="1" fill-rule="evenodd"/></g></g></g><g clip-path="url(#f59cf2c315)"><g clip-path="url(#d54ac2ed46)"><g clip-path="url(#726bfe2669)"><path fill="#a7c7e7" d="M 184.847656 133.175781 C 167.839844 172.386719 113.050781 146.039062 118.335938 107.417969 C 123.898438 66.742188 196.839844 85.941406 184.847656 133.175781 " fill-opacity="1" fill-rule="evenodd"/></g></g></g><g clip-path="url(#a412b7914c)"><g clip-path="url(#3db5a7cf2c)"><g clip-path="url(#1f0a3c79df)"><g clip-path="url(#b7079cc912)"><path fill="#a7c7e7" d="M 331.113281 81.898438 C 342.773438 79.394531 357.492188 83.257812 363.15625 93.03125 C 378.777344 120 351.675781 153.890625 324.273438 151.558594 C 309.222656 150.289062 300.289062 137.679688 299.011719 126.152344 C 296.277344 101.453125 313.621094 85.652344 331.113281 81.898438 " fill-opacity="1" fill-rule="evenodd"/></g></g></g></g><g clip-path="url(#b7b1eb32eb)"><g clip-path="url(#6e7be05e74)"><g clip-path="url(#083512068b)"><g clip-path="url(#5fb6529d74)"><path fill="#a7c7e7" d="M 230.546875 120.464844 C 271.675781 112.511719 310.167969 141.484375 302.707031 192.066406 C 301.160156 202.535156 292.476562 217.46875 279.667969 218.457031 C 269.332031 219.257812 257.027344 209.429688 244.144531 209.75 C 228.144531 210.152344 215.820312 224.59375 200.699219 217.703125 C 188 211.910156 182.417969 187.558594 184.410156 169.71875 C 187.273438 143.996094 205.765625 125.257812 230.546875 120.464844 " fill-opacity="1" fill-rule="evenodd"/></g></g></g></g><g clip-path="url(#cac5f6e848)"><g clip-path="url(#daef37c783)"><g clip-path="url(#4d33e5f211)"><path fill="#ffd700" d="M 64.796875 138.855469 C 77.96875 135.019531 88.960938 147.535156 93.882812 157.945312 C 99.355469 169.523438 101.660156 181.671875 100.789062 194.394531 C 100.15625 203.609375 97.09375 215.871094 88.828125 221.28125 C 86.28125 222.945312 83.519531 223.726562 80.535156 223.621094 C 69.445312 223.222656 60.375 211.539062 55.863281 202.644531 C 48.304688 187.734375 45.597656 169.894531 50.960938 154.011719 C 53.113281 147.65625 58.132812 140.800781 64.796875 138.855469 Z M 64.796875 138.855469 " fill-opacity="1" fill-rule="nonzero"/></g></g></g><g clip-path="url(#d86f0175e7)"><g clip-path="url(#ce7104ff09)"><g clip-path="url(#019806c33a)"><path fill="#ffd700" d="M 115.082031 155.90625 C 118.035156 147.753906 125.027344 140.320312 134.335938 140.8125 C 142.972656 141.261719 149.832031 147.46875 153.949219 154.640625 C 159.789062 164.820312 161.683594 175.90625 161.503906 187.847656 C 161.335938 199.359375 157.257812 219.960938 142.023438 220.628906 C 132.886719 221.027344 124.25 211.441406 120.046875 204.429688 C 111.242188 189.742188 109.191406 172.15625 115.082031 155.90625 Z M 115.082031 155.90625 " fill-opacity="1" fill-rule="nonzero"/></g></g></g><g clip-path="url(#bc3091ee88)"><g clip-path="url(#40b25883da)"><g clip-path="url(#3065eb31ab)"><path fill="#ffd700" d="M 11.199219 250.746094 L 8.726562 243.910156 C 7.136719 238.335938 6.601562 232.925781 7.113281 227.683594 C 8.390625 214.695312 18.769531 206.332031 31.65625 210.953125 C 40.804688 214.226562 47.902344 220.976562 52.785156 229.304688 C 57.675781 237.644531 60.105469 246.867188 60.070312 256.972656 C 60.050781 264.011719 58.617188 272.113281 53.871094 277.140625 C 44.683594 286.882812 30.707031 277.546875 23.972656 270.1875 C 18.710938 264.4375 14.453125 257.957031 11.199219 250.746094 Z M 11.199219 250.746094 " fill-opacity="1" fill-rule="nonzero"/></g></g></g><g clip-path="url(#fea4fc878f)"><g clip-path="url(#dda5b275f3)"><g clip-path="url(#80d3a09392)"><path fill="#ffd700" d="M 208.613281 253.167969 C 200.554688 259.175781 191.546875 254.757812 185.632812 248.433594 C 173.886719 235.867188 169.28125 218.246094 173.230469 201.546875 C 175.386719 192.453125 181.785156 181.117188 192.113281 179.816406 C 207.101562 177.925781 216.105469 195.078125 218.425781 207.164062 C 220.929688 220.179688 220.675781 244.1875 208.613281 253.167969 Z M 208.613281 253.167969 " fill-opacity="1" fill-rule="nonzero"/></g></g></g><g clip-path="url(#01f57bc3e5)"><g clip-path="url(#35537a2f8c)"><g clip-path="url(#a6eec16a88)"><path fill="#ffd700" d="M 110.175781 234.332031 C 133.402344 230.46875 147.640625 246.136719 163.992188 259.015625 C 170.132812 263.851562 176.890625 267.445312 184.265625 269.800781 C 188.128906 271.035156 190.066406 271.652344 190.078125 271.65625 C 198.769531 274.949219 205.777344 280.355469 211.101562 287.882812 C 220.628906 301.347656 217.816406 318.136719 203.90625 327.566406 C 193.140625 334.859375 179.785156 334.4375 165.914062 334.21875 C 151.03125 333.984375 137.449219 338.121094 125.171875 346.625 C 117.867188 351.683594 109.097656 359.683594 99.789062 364.269531 C 88.65625 369.746094 76.710938 369.894531 66.015625 363.550781 C 58.597656 359.144531 53.769531 352.59375 51.832031 344.148438 C 49.101562 332.265625 52.085938 319.0625 58.675781 308.96875 C 59.339844 307.953125 60.820312 306.085938 63.113281 303.375 C 71.625 293.304688 75.582031 282.078125 78.988281 269.515625 C 82.707031 255.820312 89.574219 242.179688 103.601562 236.492188 C 106.570312 235.289062 108.761719 234.570312 110.175781 234.332031 Z M 110.175781 234.332031 " fill-opacity="1" fill-rule="nonzero"/></g></g></g></svg>