<?xml version="1.0" standalone="no"?>
<!DOCTYPE svg PUBLIC "-//W3C//DTD SVG 20010904//EN"
 "http://www.w3.org/TR/2001/REC-SVG-20010904/DTD/svg10.dtd">
<svg version="1.0" xmlns="http://www.w3.org/2000/svg"
 width="252.000000pt" height="189.000000pt" viewBox="0 0 252.000000 189.000000"
 preserveAspectRatio="xMidYMid meet">

<g transform="translate(0.000000,189.000000) scale(0.100000,-0.100000)"
fill="#000000" stroke="none">
<path d="M0 1826 c0 -51 3 -66 14 -66 21 0 30 20 17 33 -6 6 -11 28 -11 48 0
21 -4 41 -10 44 -6 4 -10 -18 -10 -59z"/>
<path d="M289 1868 c0 -13 -4 -47 -8 -76 -7 -52 -7 -54 22 -69 37 -19 106 -13
144 13 16 10 48 25 73 34 31 10 53 27 75 57 16 22 39 46 50 51 15 8 -6 11 -83
11 -97 1 -103 0 -97 -18 7 -23 -36 -78 -53 -67 -7 4 -15 25 -18 47 l-7 39 -48
0 c-44 0 -49 -2 -50 -22z"/>
<path d="M66 1771 c-14 -23 7 -31 79 -31 82 0 109 15 42 24 -23 3 -58 8 -78
11 -23 4 -39 3 -43 -4z"/>
<path d="M1520 1711 c0 -5 5 -13 10 -16 6 -3 10 -2 10 4 0 5 -4 13 -10 16 -5
3 -10 2 -10 -4z"/>
<path d="M1440 1682 c-56 -36 -172 -170 -175 -203 0 -9 -33 -39 -43 -39 -5 0
-15 -7 -22 -15 -11 -13 -8 -15 19 -12 17 2 34 6 37 10 3 3 13 3 22 0 12 -3 13
-2 5 4 -15 11 26 106 52 120 9 5 17 16 18 24 6 36 106 109 150 109 25 0 20 5
-13 13 -15 3 -35 -1 -50 -11z"/>
<path d="M13 1683 c-9 -3 -13 -30 -13 -84 l0 -79 28 6 c37 10 149 57 191 81
66 36 52 45 -94 59 -38 4 -77 10 -85 14 -8 4 -21 5 -27 3z"/>
<path d="M1531 1654 c0 -11 3 -14 6 -6 3 7 2 16 -1 19 -3 4 -6 -2 -5 -13z"/>
<path d="M536 1632 c-10 -9 -7 -62 3 -62 16 0 22 18 9 23 -10 3 -8 9 5 23 9
10 17 14 17 9 0 -6 15 -11 33 -12 19 -2 39 -11 49 -24 10 -12 24 -19 33 -15
14 5 21 -16 15 -53 -1 -9 6 -12 24 -9 14 3 23 1 20 -3 -3 -5 1 -9 8 -9 11 0
11 -2 0 -9 -10 -6 -11 -13 -1 -34 7 -15 16 -27 21 -27 11 0 10 7 -2 31 -6 11
-7 19 -1 19 11 0 41 -73 34 -80 -3 -3 -8 0 -10 6 -5 15 -81 -2 -103 -22 -12
-12 -9 -14 23 -14 38 0 53 -22 22 -34 -8 -3 -15 -11 -15 -18 0 -9 3 -9 12 0
23 23 38 15 27 -15 -5 -14 -7 -33 -5 -40 3 -8 1 -11 -4 -8 -6 3 -10 2 -10 -4
0 -5 -8 -8 -17 -6 -10 1 -17 8 -15 15 1 6 -3 10 -10 8 -7 -3 -14 -14 -16 -26
-2 -12 -10 -22 -18 -22 -8 0 -14 -4 -14 -10 0 -5 5 -10 10 -10 6 0 9 -5 8 -12
-2 -6 6 -14 17 -16 17 -4 18 -3 5 14 -14 16 -13 17 10 11 22 -5 23 -5 8 7 -18
13 -24 36 -10 36 9 0 34 -16 32 -21 -1 -4 8 -34 20 -64 8 -19 8 -19 18 5 5 14
6 36 3 50 -9 30 -3 60 10 60 6 0 7 -5 4 -10 -3 -6 1 -13 9 -16 9 -3 13 -11 9
-17 -4 -6 -1 -7 7 -2 7 4 16 2 22 -6 8 -11 9 -10 4 3 -4 12 3 22 22 33 l27 15
-27 -4 c-20 -3 -28 0 -28 10 0 8 -4 14 -9 14 -5 0 -8 11 -7 24 0 13 5 22 10
19 4 -3 5 5 1 17 -5 16 -4 20 5 15 6 -4 20 1 30 10 15 13 22 14 37 5 15 -9 15
-11 1 -6 -21 6 -42 -16 -27 -31 7 -7 5 -14 -5 -22 -8 -7 -12 -19 -10 -26 7
-17 34 -8 34 11 0 8 4 14 9 14 5 0 4 -13 -2 -29 -9 -25 -8 -33 8 -51 10 -11
21 -18 24 -15 3 4 -1 10 -9 15 -12 7 -12 12 -2 22 10 10 14 10 21 -1 5 -8 7
-21 3 -29 -4 -11 -1 -13 7 -8 7 5 11 16 8 25 -2 10 1 18 8 18 17 0 12 -61 -6
-84 -13 -16 -12 -17 3 -5 9 7 18 9 20 5 3 -4 3 -2 1 5 -1 7 2 23 8 34 9 16 8
19 -2 13 -9 -6 -10 -3 -5 11 5 10 9 24 9 31 0 7 6 14 14 17 7 3 13 17 13 31 0
18 4 24 12 19 7 -5 9 -2 6 7 -3 8 -9 21 -12 29 -5 11 0 16 14 17 11 1 21 -4
21 -10 1 -7 2 -19 3 -27 0 -8 -7 -26 -16 -39 -10 -13 -18 -40 -18 -60 0 -21
-5 -42 -12 -49 -6 -6 -9 -14 -6 -18 8 -7 27 27 32 58 2 13 8 22 14 21 14 -3
36 53 28 73 -5 14 -4 15 9 4 8 -7 15 -19 15 -26 0 -8 5 -14 10 -14 6 0 10 8 8
17 -2 10 3 18 10 18 8 0 20 11 29 25 16 28 13 14 -12 -47 -12 -29 -21 -40 -32
-36 -12 5 -13 -1 -8 -33 9 -54 13 -64 25 -64 17 0 29 43 18 63 -11 22 -3 67
13 67 5 0 9 -6 7 -14 -2 -8 2 -15 7 -15 6 -1 10 3 10 8 0 6 6 16 14 23 11 11
13 9 9 -14 -4 -21 -2 -25 11 -21 9 3 6 -2 -7 -12 l-24 -17 31 -19 c38 -23 48
-24 28 -5 -8 9 -12 26 -10 39 3 14 0 28 -6 31 -6 4 -11 22 -11 39 l-1 32 -23
-27 c-13 -15 -27 -24 -30 -21 -3 4 3 12 13 20 19 13 19 53 -1 53 -5 0 -7 13
-3 30 l6 29 -32 -16 c-30 -15 -31 -17 -14 -30 11 -7 17 -14 14 -14 -26 -7 -59
-6 -59 2 0 5 5 9 10 9 20 0 9 20 -20 35 -37 19 -46 19 -30 0 10 -13 9 -15 -9
-15 -24 0 -71 27 -84 47 -6 10 -71 45 -172 92 -5 2 -4 -3 4 -13 8 -9 11 -19 7
-23 -10 -10 -79 18 -94 38 -25 36 -71 60 -121 63 -28 2 -52 1 -55 -2z m319
-122 c3 -5 -1 -10 -9 -10 -8 0 -18 5 -21 10 -3 6 1 10 9 10 8 0 18 -4 21 -10z
m65 -110 c0 -5 -5 -10 -11 -10 -5 0 -7 5 -4 10 3 6 8 10 11 10 2 0 4 -4 4 -10z
m-137 -35 c-7 -21 -13 -19 -13 6 0 11 4 18 10 14 5 -3 7 -12 3 -20z m227 -56
c0 -5 -4 -9 -8 -9 -5 0 -9 7 -9 15 0 8 4 12 9 9 4 -3 8 -9 8 -15z"/>
<path d="M2466 1408 c-23 -24 -34 -29 -58 -24 -16 3 -27 2 -23 -3 7 -12 -55
-71 -75 -71 -9 0 -24 -6 -35 -14 -11 -7 -38 -19 -60 -26 -22 -7 -44 -16 -50
-20 -5 -4 -35 -15 -65 -25 -103 -33 -99 -30 -63 -48 52 -27 107 -36 128 -21
10 8 27 14 36 14 10 0 19 5 21 10 2 6 18 11 37 13 22 1 44 12 61 29 22 21 36
27 66 25 34 -3 39 -6 42 -30 2 -18 -1 -27 -11 -27 -8 0 -17 -7 -21 -15 -3 -8
-12 -12 -19 -9 -14 5 -57 -38 -57 -57 0 -4 16 -11 36 -15 20 -4 65 -17 100
-30 l64 -23 0 200 c0 218 -1 222 -54 167z"/>
<path d="M593 1390 c2 -11 6 -23 10 -26 4 -4 2 -13 -4 -21 -8 -9 -8 -25 0 -57
6 -24 8 -59 5 -78 -8 -44 -33 -98 -45 -98 -6 0 -15 -14 -21 -30 -8 -25 -14
-29 -31 -24 -17 5 -19 3 -12 -12 4 -11 10 -29 12 -41 3 -14 13 -23 25 -23 10
0 16 5 13 10 -13 22 7 31 32 14 18 -11 37 -14 64 -10 49 8 45 -10 -11 -45 -22
-13 -40 -30 -40 -36 0 -17 -10 -16 -34 2 -25 19 -33 19 -33 0 0 -10 6 -14 15
-10 9 3 18 1 22 -4 3 -6 26 -13 50 -17 42 -7 44 -6 27 10 -9 10 -17 19 -17 21
0 14 73 74 82 69 7 -5 9 -2 6 7 -4 11 4 14 37 14 35 0 42 -3 40 -17 -4 -21
-24 -58 -31 -58 -3 0 -3 4 1 9 10 16 -12 21 -25 6 -10 -12 -9 -16 3 -21 24 -9
49 -1 61 20 6 11 19 28 29 38 9 10 17 22 17 27 0 5 8 12 18 16 12 4 14 3 6 -5
-7 -7 -9 -24 -4 -43 3 -18 3 -47 -1 -66 -7 -30 -5 -34 21 -44 15 -6 35 -24 45
-39 20 -34 48 -34 53 0 2 14 19 31 43 45 26 15 39 29 39 43 0 12 7 24 15 28 8
3 14 11 13 18 -2 7 4 13 12 13 8 0 26 8 40 18 25 17 25 18 4 23 -17 4 -22 13
-22 38 0 44 2 46 81 85 75 38 85 46 56 48 -11 1 -17 -2 -15 -6 3 -4 -22 -16
-56 -27 -34 -10 -74 -29 -89 -41 -15 -13 -31 -22 -36 -21 -11 4 -12 -13 -2
-41 5 -13 8 -26 6 -28 -5 -4 -57 15 -57 21 0 6 23 2 40 -8 12 -7 13 -6 3 4
-19 20 -53 23 -53 4 0 -11 -6 -13 -20 -9 -11 4 -20 2 -20 -4 0 -6 -4 -11 -10
-11 -5 0 -7 7 -4 15 4 8 1 22 -6 30 -6 8 -9 19 -5 25 13 21 -8 9 -36 -21 -26
-28 -30 -29 -45 -15 -8 9 -21 16 -29 16 -7 0 -15 5 -17 10 -2 6 -17 13 -33 16
-45 8 -107 24 -136 35 -25 10 -26 12 -14 36 7 14 12 34 10 44 -2 11 0 19 5 19
4 0 0 17 -10 38 -20 41 -23 82 -5 82 5 0 4 4 -3 9 -8 4 -13 11 -13 15 3 22 0
36 -9 36 -5 0 -9 -9 -7 -20z m122 -296 c61 -18 94 -38 82 -50 -4 -4 -33 3 -65
15 -69 25 -83 26 -56 6 10 -8 15 -15 9 -15 -5 -1 -1 -6 10 -11 17 -7 15 -8
-10 -6 -19 1 -29 -3 -27 -11 1 -7 -8 -12 -22 -12 -30 0 -43 17 -19 23 12 3 9
5 -8 6 -22 1 -27 6 -25 26 0 14 5 25 9 25 13 0 37 -27 30 -34 -4 -3 1 -6 10
-6 23 0 21 15 -5 32 -24 16 -17 42 10 34 10 -2 44 -12 77 -22z m379 -89 c3 -8
1 -15 -4 -15 -6 0 -10 7 -10 15 0 8 2 15 4 15 2 0 6 -7 10 -15z m-124 -110
c-7 -8 -10 -22 -6 -30 3 -8 1 -15 -4 -15 -9 0 -14 22 -11 43 2 15 -10 6 -17
-13 -7 -20 -7 -20 -20 0 -10 16 -9 18 5 13 12 -5 14 -3 8 7 -6 10 -2 11 19 6
17 -4 26 -2 26 5 0 7 3 9 6 6 4 -4 1 -13 -6 -22z"/>
<path d="M1265 1351 c3 -5 -1 -16 -9 -24 -13 -13 -10 -15 25 -21 38 -6 41 -9
35 -32 -5 -17 -3 -23 4 -19 5 3 14 4 20 0 15 -9 -10 -53 -34 -58 -19 -4 9 -8
80 -12 33 -2 80 -42 90 -77 5 -18 19 -37 31 -43 12 -5 30 -24 40 -42 21 -40
39 -42 46 -6 6 31 -13 64 -48 83 -14 7 -25 19 -25 27 0 7 -6 13 -14 13 -12 0
-26 20 -26 37 0 3 11 2 25 -1 14 -4 25 -2 25 4 0 5 -4 10 -10 10 -5 0 -10 10
-10 21 0 21 -1 21 -27 -5 -20 -20 -28 -24 -35 -14 -4 7 -8 9 -8 4 0 -5 -6 -3
-13 3 -8 6 -16 8 -19 6 -8 -8 -58 16 -58 28 0 5 8 6 17 3 10 -4 14 -4 10 0 -4
4 -2 13 3 19 7 8 6 22 -3 44 -10 24 -16 28 -25 19 -10 -10 -15 -10 -21 0 -5 8
-11 13 -15 13 -31 -4 -45 1 -40 14 4 8 1 15 -6 15 -6 0 -9 -4 -5 -9z m95 -69
c0 -13 -12 -22 -22 -16 -10 6 -1 24 13 24 5 0 9 -4 9 -8z"/>
<path d="M850 1329 c0 -5 5 -7 10 -4 6 3 10 8 10 11 0 2 -4 4 -10 4 -5 0 -10
-5 -10 -11z"/>
<path d="M715 1280 c10 -11 20 -20 23 -20 3 0 -3 9 -13 20 -10 11 -20 20 -23
20 -3 0 3 -9 13 -20z"/>
<path d="M440 1280 c0 -8 5 -22 10 -30 9 -13 10 -13 10 0 0 8 -5 22 -10 30 -9
13 -10 13 -10 0z"/>
<path d="M1267 1270 c-6 -22 0 -25 23 -10 11 7 11 10 2 10 -7 0 -10 5 -7 10 3
6 2 10 -3 10 -5 0 -12 -9 -15 -20z"/>
<path d="M1400 1235 c7 -9 15 -13 17 -11 7 7 -7 26 -19 26 -6 0 -6 -6 2 -15z"/>
<path d="M461 1218 c0 -7 4 -21 8 -31 6 -17 8 -17 18 6 7 14 9 28 6 31 -11 11
-33 6 -32 -6z"/>
<path d="M1220 1220 c0 -5 5 -10 10 -10 6 0 10 5 10 10 0 6 -4 10 -10 10 -5 0
-10 -4 -10 -10z"/>
<path d="M1440 1218 c0 -14 18 -17 28 -5 8 10 6 13 -9 13 -10 0 -19 -4 -19 -8z"/>
<path d="M822 1188 c-14 -14 -16 -28 -3 -28 5 0 11 9 14 20 6 23 5 24 -11 8z"/>
<path d="M856 1181 c-4 -5 -3 -17 1 -27 4 -11 3 -15 -4 -11 -8 5 -8 -3 0 -28
13 -43 19 -38 22 14 1 25 -2 38 -8 34 -6 -4 -8 0 -4 10 7 18 2 23 -7 8z"/>
<path d="M920 1160 c-9 -6 -10 -10 -3 -10 6 0 15 5 18 10 8 12 4 12 -15 0z"/>
<path d="M992 1163 c-13 -5 -7 -23 9 -23 6 0 7 5 3 12 -5 8 -2 9 10 5 10 -4
15 -3 11 3 -7 11 -13 11 -33 3z"/>
<path d="M1395 1160 c-3 -5 -1 -10 4 -10 6 0 11 5 11 10 0 6 -2 10 -4 10 -3 0
-8 -4 -11 -10z"/>
<path d="M1495 1160 c3 -5 8 -10 11 -10 2 0 4 5 4 10 0 6 -5 10 -11 10 -5 0
-7 -4 -4 -10z"/>
<path d="M650 1149 c0 -5 5 -7 10 -4 6 3 10 8 10 11 0 2 -4 4 -10 4 -5 0 -10
-5 -10 -11z"/>
<path d="M1290 1145 c-7 -8 -8 -15 -2 -15 5 0 15 7 22 15 7 8 8 15 2 15 -5 0
-15 -7 -22 -15z"/>
<path d="M1532 1138 c2 -6 10 -14 16 -16 7 -2 10 2 6 12 -7 18 -28 22 -22 4z"/>
<path d="M902 1124 c9 -9 21 -15 27 -13 6 2 -2 10 -17 17 -25 11 -25 11 -10
-4z"/>
<path d="M956 1127 c3 -10 9 -15 12 -12 3 3 0 11 -7 18 -10 9 -11 8 -5 -6z"/>
<path d="M1227 1116 c-8 -8 -17 -12 -21 -9 -3 4 -6 1 -6 -6 0 -7 -5 -9 -10 -6
-6 3 -21 -2 -34 -12 -20 -16 -22 -22 -11 -36 11 -15 14 -14 33 8 25 29 55 34
45 8 -5 -13 -2 -15 11 -10 10 4 27 7 39 7 17 1 14 4 -13 16 -32 14 -34 16 -17
29 10 7 14 16 8 19 -5 3 -16 0 -24 -8z"/>
<path d="M1375 1120 c-3 -5 -2 -10 4 -10 5 0 13 5 16 10 3 6 2 10 -4 10 -5 0
-13 -4 -16 -10z"/>
<path d="M1278 1103 c7 -3 16 -2 19 1 4 3 -2 6 -13 5 -11 0 -14 -3 -6 -6z"/>
<path d="M380 1073 c0 -4 5 -15 10 -23 8 -13 10 -13 10 2 0 9 -4 20 -10 23 -5
3 -10 3 -10 -2z"/>
<path d="M960 1076 c0 -2 7 -7 16 -10 8 -3 12 -2 9 4 -6 10 -25 14 -25 6z"/>
<path d="M1318 1073 c7 -3 16 -2 19 1 4 3 -2 6 -13 5 -11 0 -14 -3 -6 -6z"/>
<path d="M328 997 c-20 -17 -47 -40 -60 -49 -23 -17 -22 -17 34 -18 59 0 118
24 118 48 0 7 -4 11 -8 8 -5 -3 -15 6 -22 19 -7 14 -16 25 -19 25 -3 0 -22
-15 -43 -33z"/>
<path d="M1320 1021 c14 -5 39 -15 56 -24 22 -11 40 -14 60 -8 23 7 26 10 12
15 -40 14 -48 15 -53 6 -3 -5 -18 -2 -33 6 -15 7 -36 14 -47 13 -16 -1 -15 -2
5 -8z"/>
<path d="M1173 995 c0 -8 4 -12 9 -9 5 3 6 10 3 15 -9 13 -12 11 -12 -6z"/>
<path d="M746 981 c-3 -5 1 -11 9 -15 8 -3 15 -1 15 4 0 13 -18 22 -24 11z"/>
<path d="M1430 970 c0 -11 14 -11 50 0 22 7 21 8 -12 9 -21 1 -38 -3 -38 -9z"/>
<path d="M1570 971 c12 -9 9 -11 -15 -12 -16 0 -39 -4 -50 -9 -25 -11 82 0
110 11 19 7 19 8 -2 8 -12 1 -30 4 -40 7 -15 5 -15 4 -3 -5z"/>
<path d="M1557 933 c-23 -4 -25 -6 -13 -19 8 -8 21 -15 28 -15 7 -1 0 -5 -17
-9 l-30 -8 35 -1 c32 -1 35 1 36 29 1 17 -2 29 -5 29 -3 -1 -18 -4 -34 -6z"/>
<path d="M1148 923 c7 -3 16 -2 19 1 4 3 -2 6 -13 5 -11 0 -14 -3 -6 -6z"/>
<path d="M1770 926 c0 -8 51 -13 56 -5 3 5 -9 9 -25 9 -17 0 -31 -2 -31 -4z"/>
<path d="M732 903 c-6 -3 -10 -9 -6 -14 3 -5 -3 -9 -12 -9 -16 0 -15 -2 4 -20
27 -25 39 -25 52 -1 13 26 13 31 -4 31 -8 0 -16 4 -18 9 -1 4 -9 6 -16 4z"/>
<path d="M1170 898 c0 -11 28 -10 35 1 3 6 -4 9 -15 8 -11 -1 -20 -5 -20 -9z"/>
<path d="M1728 891 c-10 -10 -18 -20 -18 -24 0 -3 8 -8 18 -10 10 -3 6 -5 -10
-6 -29 -1 -36 -19 -17 -38 8 -8 7 -17 -4 -33 l-15 -22 -12 22 c-6 11 -12 33
-13 48 -2 23 -8 28 -42 34 -27 4 -43 2 -50 -6 -6 -7 -27 -12 -50 -10 -39 3
-39 3 -6 -4 l34 -7 -45 -46 -45 -46 31 -11 c17 -6 43 -8 58 -5 15 3 38 3 51
-1 26 -6 62 -36 63 -51 0 -5 10 -32 22 -59 29 -62 47 -51 35 20 -11 59 -7 84
13 84 9 0 14 -11 14 -30 0 -34 19 -40 41 -13 18 21 71 43 106 43 15 0 43 9 62
21 19 11 58 23 87 26 46 5 51 8 42 22 -17 27 -70 58 -113 66 -22 4 -34 10 -27
12 17 7 4 23 -19 23 -10 0 -19 3 -19 8 0 7 -17 7 -108 -1 -27 -3 -39 -1 -30 4
10 7 10 9 -2 8 -8 0 -23 -8 -32 -18z m185 -28 c-7 -2 -19 -2 -25 0 -7 3 -2 5
12 5 14 0 19 -2 13 -5z m-288 -23 c16 -7 17 -9 3 -9 -9 -1 -22 -3 -30 -4 -7
-2 -10 -2 -5 0 4 3 5 9 1 14 -6 11 4 11 31 -1z"/>
<path d="M490 870 c12 -9 10 -11 -11 -7 -17 2 -26 -1 -26 -10 0 -10 26 -13
116 -12 l116 1 -55 15 c-74 20 -161 28 -140 13z"/>
<path d="M436 814 c-5 -12 -1 -14 15 -9 12 4 24 3 28 -3 4 -7 19 -7 41 -2 19
4 28 8 20 9 -13 1 -13 2 0 11 11 7 -1 10 -41 10 -43 0 -58 -4 -63 -16z"/>
<path d="M480 767 c0 -4 -4 -5 -10 -2 -5 3 -10 -3 -10 -13 0 -15 5 -19 20 -15
11 3 22 9 25 13 3 5 13 7 23 5 9 -1 11 0 4 2 -7 3 -10 9 -7 14 4 5 -5 8 -19 7
-15 -1 -26 -6 -26 -11z"/>
<path d="M590 770 c-9 -6 -10 -10 -3 -10 6 0 15 5 18 10 8 12 4 12 -15 0z"/>
<path d="M628 773 c6 -2 18 -2 25 0 6 3 1 5 -13 5 -14 0 -19 -2 -12 -5z"/>
<path d="M690 772 c0 -7 5 -12 11 -12 8 0 8 -4 -1 -15 -9 -11 -17 -12 -32 -4
-11 6 -35 9 -54 7 -23 -2 -38 3 -44 12 -8 13 -10 12 -10 -2 0 -15 -16 -23 -41
-20 -4 1 -5 -7 -2 -18 6 -21 -32 -68 -44 -55 -5 4 -3 10 3 12 7 2 9 14 6 25
-4 18 -2 20 14 14 15 -6 16 -5 7 5 -16 16 -99 -15 -105 -39 -5 -20 16 -65 25
-55 4 3 7 1 7 -5 0 -6 -4 -13 -9 -16 -5 -3 -9 -42 -9 -87 0 -117 -25 -164 -74
-138 -18 10 -20 9 -15 -5 4 -10 1 -16 -7 -16 -8 0 -16 9 -19 21 -5 17 -9 19
-25 10 -11 -6 -21 -8 -24 -6 -2 3 -46 7 -96 9 -69 3 -100 1 -122 -10 -16 -9
-30 -17 -30 -19 0 -8 29 2 44 14 9 8 19 11 23 7 8 -7 -26 -35 -43 -36 -19 0
-25 -45 -23 -181 0 -81 5 -127 11 -123 5 4 8 -4 6 -17 l-3 -24 165 -2 165 -3
25 41 c14 22 33 45 44 51 10 5 32 26 50 46 70 82 154 152 180 152 9 0 22 13
31 29 8 16 28 39 44 50 24 18 29 29 33 77 4 48 0 66 -24 116 -15 32 -28 67
-28 78 0 11 -4 20 -10 20 -5 0 -10 7 -10 15 0 8 -3 14 -7 14 -21 -3 -43 2 -43
10 0 6 12 6 28 2 15 -5 38 -4 52 2 14 5 32 10 40 11 22 1 18 30 -5 34 -11 2
-28 11 -37 20 -11 9 -18 11 -18 4z m-83 -52 c-1 -13 -6 -19 -15 -15 -7 3 -26
5 -40 6 -23 1 -22 3 13 14 22 8 41 14 42 14 1 1 1 -8 0 -19z m28 10 c3 -5 1
-10 -4 -10 -6 0 -11 5 -11 10 0 6 2 10 4 10 3 0 8 -4 11 -10z m85 0 c0 -5 -2
-10 -4 -10 -3 0 -8 5 -11 10 -3 6 -1 10 4 10 6 0 11 -4 11 -10z m-243 -86 c-3
-3 -12 -4 -19 -1 -8 3 -5 6 6 6 11 1 17 -2 13 -5z m80 -68 c-3 -7 0 -19 6 -25
8 -8 7 -11 -4 -11 -9 0 -24 -9 -34 -20 -23 -25 -35 -25 -35 -1 0 11 -5 23 -11
26 -6 4 4 15 23 25 41 22 62 24 55 6z m-252 -226 c3 -5 15 -6 28 -1 12 4 27 7
32 5 10 -4 4 -115 -9 -164 -4 -14 -8 -29 -10 -35 -10 -42 -28 -55 -76 -55 -28
0 -50 -4 -50 -9 0 -15 -95 26 -98 43 -2 9 -11 16 -21 16 -13 0 -21 12 -28 43
-6 28 -14 41 -24 39 -7 -2 1 11 19 28 17 17 32 36 32 43 1 31 20 40 101 47 46
4 87 8 91 9 4 0 9 -3 13 -9z"/>
<path d="M935 740 c-3 -5 3 -10 14 -10 11 0 23 5 26 10 3 6 -3 10 -14 10 -11
0 -23 -4 -26 -10z"/>
<path d="M1792 410 c15 -25 30 -40 43 -40 11 0 33 -7 49 -15 15 -8 37 -15 48
-15 11 0 42 -11 69 -24 89 -45 153 -49 334 -21 28 5 46 2 60 -9 l20 -15 -20
-15 c-11 -8 -25 -16 -31 -16 -6 0 -33 -12 -60 -26 -27 -14 -58 -28 -69 -29
-11 -2 -35 -8 -52 -13 -18 -6 -33 -8 -33 -6 0 9 -26 -20 -38 -42 -8 -16 -8
-24 0 -32 17 -17 25 -15 62 13 33 25 56 32 56 17 0 -12 -57 -52 -75 -52 -8 0
-15 -6 -15 -14 0 -8 -6 -16 -12 -19 -10 -4 -10 -7 0 -18 10 -11 12 -10 12 4 0
23 16 21 40 -3 18 -18 33 -20 180 -20 l160 0 0 179 c0 99 -3 186 -6 195 -3 9
-17 16 -30 16 -14 0 -37 9 -52 20 -39 28 -148 32 -168 6 -7 -11 -11 -23 -8
-27 9 -15 -71 3 -81 18 -33 49 -29 48 -76 20 -55 -32 -114 -45 -159 -36 -20 4
-37 3 -41 -2 -3 -5 -22 6 -42 26 -22 22 -46 35 -62 35 l-26 0 23 -40z"/>
<path d="M970 391 c0 -12 9 -21 25 -25 47 -12 16 -55 -40 -56 -20 0 -26 3 -17
9 11 7 10 9 -3 15 -20 7 -84 -18 -100 -41 -10 -13 -17 -14 -43 -5 -39 14 -45
7 -25 -32 10 -17 16 -36 15 -42 -1 -6 5 -24 13 -40 9 -18 15 -56 15 -101 l0
-73 185 0 c176 0 185 1 185 19 0 11 -4 23 -10 26 -5 3 -10 12 -10 20 0 7 -20
55 -44 107 -24 51 -47 107 -50 123 -4 17 -21 45 -39 63 -20 20 -26 32 -16 32
12 0 12 2 -1 10 -24 15 -40 12 -40 -9z m27 -134 c29 -55 48 -148 38 -183 -4
-16 -10 -23 -12 -16 -3 6 -13 12 -24 12 -10 0 -19 4 -19 9 0 5 -12 14 -27 20
-51 21 -108 53 -115 65 -4 6 -8 27 -8 47 0 29 7 43 33 66 27 24 40 28 73 25
35 -3 42 -9 61 -45z"/>
<path d="M1790 291 c0 -23 23 -34 39 -18 19 19 12 37 -14 37 -18 0 -25 -5 -25
-19z"/>
<path d="M1547 114 c-13 -13 5 -24 36 -23 18 1 24 3 15 6 -10 2 -18 9 -18 14
0 10 -23 12 -33 3z"/>
<path d="M1711 101 c-11 -7 -9 -10 8 -16 11 -3 21 -11 21 -16 0 -5 10 -9 23
-9 18 0 19 2 7 10 -8 5 -10 10 -5 10 10 1 -24 30 -34 30 -3 0 -12 -4 -20 -9z"/>
<path d="M1840 77 c-8 -7 -21 -20 -29 -29 -18 -24 1 -48 40 -48 26 0 29 3 29
34 0 40 -18 60 -40 43z"/>
</g>
</svg>
