<?xml version="1.0" standalone="no"?>
<!DOCTYPE svg PUBLIC "-//W3C//DTD SVG 20010904//EN"
 "http://www.w3.org/TR/2001/REC-SVG-20010904/DTD/svg10.dtd">
<svg version="1.0" xmlns="http://www.w3.org/2000/svg"
 width="1109.000000pt" height="622.000000pt" viewBox="0 0 1109.000000 622.000000"
 preserveAspectRatio="xMidYMid meet">

<g transform="translate(0.000000,622.000000) scale(0.100000,-0.100000)"
fill="#000000" stroke="none">
<path d="M2 5323 l3 -898 45 -1 c25 -1 63 -6 85 -12 74 -20 146 -10 167 22 4
6 8 25 8 42 0 17 15 61 34 98 l34 67 1 187 c1 224 16 410 42 511 10 41 19 103
19 137 0 77 33 190 60 204 23 13 26 37 6 59 -34 37 -56 169 -56 328 l0 153
-225 0 -225 0 2 -897z"/>
<path d="M1131 6148 c-20 -120 -49 -266 -77 -388 -14 -63 -34 -151 -43 -195
-10 -44 -23 -90 -29 -102 -7 -13 -17 -76 -22 -140 -11 -136 -27 -243 -40 -258
-5 -6 -18 -35 -29 -65 -25 -68 -19 -103 33 -183 20 -32 36 -62 36 -67 0 -5 23
-38 50 -74 28 -36 50 -74 50 -86 0 -11 4 -20 9 -20 5 0 14 -13 21 -29 17 -41
49 -68 92 -76 29 -6 40 -3 57 14 18 18 21 33 21 119 0 66 -5 105 -15 122 -28
49 -38 75 -45 120 -9 52 -27 144 -42 212 -5 26 -7 62 -3 79 6 27 49 129 90
211 7 15 18 51 25 80 7 29 16 66 21 82 5 16 9 45 9 64 0 39 25 146 42 176 22
41 41 104 48 156 8 56 29 147 60 258 l18 62 -162 0 -163 0 -12 -72z"/>
<path d="M5156 6198 c4 -13 8 -66 8 -118 1 -66 7 -107 19 -134 9 -21 17 -60
17 -86 0 -26 5 -72 12 -101 7 -30 13 -90 14 -134 1 -44 7 -106 14 -137 12 -52
11 -64 -10 -138 -13 -45 -29 -84 -36 -87 -18 -7 -32 -53 -27 -88 4 -27 -1 -33
-50 -62 -61 -36 -79 -40 -96 -19 -18 21 -51 27 -51 9 0 -11 -6 -14 -22 -10
-37 10 -79 -43 -45 -56 7 -3 4 -6 -7 -6 -15 -1 -16 -4 -7 -15 17 -20 59 -26
73 -9 14 17 28 1 28 -34 0 -13 5 -23 10 -23 6 0 10 -6 10 -14 0 -8 -6 -14 -12
-13 -38 1 -44 -5 -56 -56 -21 -90 -17 -103 29 -124 30 -13 42 -25 46 -45 4
-20 13 -30 32 -34 14 -4 36 -16 48 -27 20 -18 32 -19 103 -14 51 3 94 12 118
25 21 11 53 23 72 27 19 4 44 12 55 19 30 18 103 38 170 46 33 4 90 15 127 25
64 18 70 18 115 2 33 -11 77 -16 138 -16 50 1 117 1 150 2 65 0 229 -18 245
-28 5 -3 57 -6 115 -6 66 0 120 -5 146 -14 55 -20 98 -19 121 2 62 56 286 56
356 -1 15 -12 39 -27 53 -33 24 -10 28 -9 38 14 10 22 16 24 61 20 43 -4 53
-1 81 24 36 32 60 36 79 14 11 -14 14 -13 25 2 11 15 13 15 24 -3 11 -18 12
-18 27 4 11 14 27 22 45 22 15 0 31 5 34 10 3 6 13 10 21 10 9 0 24 10 34 23
17 20 20 21 32 6 7 -9 31 -19 52 -22 22 -4 43 -11 46 -18 5 -6 10 -7 13 -2 4
6 26 8 50 6 31 -3 47 0 57 11 14 18 37 21 42 5 6 -19 59 2 68 27 14 35 28 29
32 -13 3 -36 5 -38 34 -35 25 2 33 -1 37 -19 4 -16 11 -20 26 -15 12 3 30 9
40 12 15 5 20 0 23 -18 4 -28 46 -38 60 -14 14 25 32 19 65 -21 37 -47 78 -51
118 -13 l26 25 18 -24 18 -23 21 27 c12 15 22 34 22 41 0 8 3 14 8 14 4 0 6
-19 4 -42 -3 -35 1 -47 21 -66 l25 -24 19 29 c40 63 63 70 63 19 0 -18 7 -39
15 -46 9 -7 16 -11 18 -9 1 2 7 13 13 23 6 11 18 24 28 30 24 15 46 -16 46
-66 0 -36 12 -49 25 -28 10 15 25 12 32 -7 4 -10 16 -28 29 -41 18 -19 23 -20
28 -7 8 23 29 18 61 -15 35 -36 39 -37 81 -5 40 30 54 32 54 5 0 -23 12 -25
40 -7 17 10 22 9 29 -1 4 -7 15 -10 24 -6 22 8 21 -2 -3 -41 -11 -18 -17 -40
-14 -49 10 -26 24 -18 24 13 0 23 5 30 23 33 14 2 23 11 25 26 2 12 8 22 14
22 6 0 8 -10 4 -24 -7 -27 15 -51 39 -42 17 6 21 -9 5 -19 -5 -3 -10 -24 -10
-46 0 -31 4 -39 19 -39 10 0 30 -9 44 -20 14 -11 30 -20 35 -20 6 0 12 -5 14
-11 2 -7 17 -3 41 10 41 23 57 26 57 11 0 -5 -9 -10 -20 -10 -10 0 -25 -10
-31 -22 -9 -18 -8 -24 6 -34 10 -8 24 -10 34 -5 30 14 81 12 81 -3 0 -8 -4
-18 -10 -21 -5 -3 -10 -17 -10 -31 0 -25 18 -31 48 -15 9 4 36 11 60 14 38 5
42 3 37 -14 -5 -14 0 -20 19 -25 14 -3 26 -8 26 -11 0 -2 -12 -19 -27 -38 -46
-58 -25 -144 36 -146 14 0 35 -4 46 -9 18 -8 17 -10 -13 -21 -41 -17 -36 -30
17 -49 50 -18 68 -42 46 -60 -8 -7 -15 -16 -15 -21 0 -14 22 -10 41 7 27 25
49 11 49 -31 0 -32 2 -35 29 -35 42 0 49 -19 18 -42 -15 -11 -27 -23 -27 -28
0 -11 102 -20 222 -19 73 0 102 -3 122 -16 22 -14 35 -15 103 -5 180 26 219
33 243 44 14 6 61 11 105 11 94 0 130 15 159 65 19 31 21 53 23 197 1 148 3
165 24 202 12 23 26 41 30 41 4 0 15 7 24 16 14 15 14 19 -4 47 -44 72 -61
150 -60 274 0 65 -4 204 -10 308 -6 105 -15 276 -21 380 -6 105 -15 246 -21
315 -6 69 -11 259 -11 423 l-1 297 -1134 0 -1133 0 6 -40 c4 -26 19 -53 45
-81 22 -23 39 -46 39 -51 0 -4 7 -8 17 -8 22 0 100 -47 111 -67 6 -10 6 -27 0
-45 -16 -45 0 -52 110 -54 117 -2 140 -11 134 -52 -2 -18 1 -33 10 -38 7 -5
65 -12 128 -16 145 -8 248 -24 277 -43 12 -9 29 -28 38 -44 13 -26 13 -31 -4
-53 -16 -20 -34 -26 -113 -36 -51 -7 -124 -17 -163 -24 -64 -10 -158 -17 -260
-18 -22 0 -85 -7 -140 -15 -160 -23 -178 -25 -600 -54 -148 -10 -172 -16 -180
-41 -10 -30 -93 -56 -240 -75 -77 -9 -149 -21 -160 -25 -71 -28 -119 -33 -522
-46 -51 -1 -97 -5 -103 -9 -5 -3 -18 -8 -27 -10 -10 -2 -47 -10 -83 -19 -61
-14 -189 -23 -665 -46 -104 -6 -230 -17 -280 -26 -49 -9 -109 -15 -132 -15
-23 1 -45 -3 -48 -9 -3 -5 -17 -10 -31 -10 -15 0 -24 -6 -24 -15 0 -12 -14
-15 -65 -15 -54 0 -66 3 -75 20 -6 11 -16 20 -23 20 -19 1 -54 34 -62 61 -4
13 -25 50 -47 82 -44 65 -68 153 -68 254 0 34 -4 64 -8 67 -5 3 -6 83 -3 178
6 200 5 246 -4 346 l-7 72 -130 0 -130 0 8 -22z m3524 2 c0 -5 -5 -10 -11 -10
-5 0 -7 5 -4 10 3 6 8 10 11 10 2 0 4 -4 4 -10z"/>
<path d="M7096 6188 c2 -18 8 -134 14 -258 11 -264 18 -290 78 -290 29 0 47 9
79 38 41 36 43 41 53 115 5 43 12 82 15 87 3 4 9 59 15 122 5 62 12 137 16
166 l7 52 -141 0 -141 0 5 -32z"/>
<path d="M8550 6211 c0 -40 32 -54 50 -22 15 28 13 31 -20 31 -16 0 -30 -4
-30 -9z"/>
<path d="M4860 5190 c0 -11 -4 -20 -9 -20 -4 0 -6 -11 -3 -25 5 -27 42 -36 42
-10 0 9 9 15 22 15 26 0 13 16 -17 22 -12 2 -19 10 -17 21 2 9 -2 17 -8 17 -5
0 -10 -9 -10 -20z"/>
<path d="M4140 5150 c0 -12 34 -12 70 0 20 7 16 8 -22 9 -27 1 -48 -3 -48 -9z"/>
<path d="M4768 5138 c9 -9 15 -9 24 0 9 9 7 12 -12 12 -19 0 -21 -3 -12 -12z"/>
<path d="M2845 4790 c-5 -15 -12 -19 -30 -14 -49 12 -97 -97 -67 -153 7 -12
12 -30 12 -40 0 -11 10 -30 21 -42 l22 -23 -31 6 c-32 8 -136 -21 -179 -50
-22 -14 -42 -49 -47 -84 -4 -19 32 -78 53 -89 9 -5 43 -14 76 -21 32 -7 73
-19 91 -27 29 -14 33 -14 58 8 14 12 34 24 43 25 10 2 19 8 21 13 2 6 24 31
50 55 49 47 55 72 37 153 -5 23 0 52 19 104 14 40 26 80 26 89 0 16 -91 70
-118 70 -6 0 -17 9 -24 20 -16 25 -25 25 -33 0z"/>
<path d="M5770 4329 c0 -8 14 -13 32 -10 4 0 12 -8 18 -19 6 -11 15 -20 20
-20 12 0 13 11 2 28 -11 16 -72 34 -72 21z"/>
<path d="M5880 4286 c0 -14 29 -36 46 -36 14 0 14 3 4 15 -7 9 -15 13 -18 10
-3 -3 -11 0 -19 6 -7 6 -13 8 -13 5z"/>
<path d="M11081 4194 c0 -11 3 -14 6 -6 3 7 2 16 -1 19 -3 4 -6 -2 -5 -13z"/>
<path d="M2810 4157 c-14 -15 -43 -33 -65 -38 -22 -6 -52 -13 -67 -17 -15 -4
-38 -17 -52 -29 -40 -35 -34 -72 26 -161 58 -86 70 -99 115 -130 35 -25 51
-28 50 -9 -3 86 3 104 48 150 42 41 46 51 50 101 4 44 1 57 -12 64 -9 6 -14
16 -10 26 8 21 -23 75 -43 73 -8 -1 -26 -14 -40 -30z"/>
<path d="M6130 4080 c0 -14 -12 -36 -25 -49 -28 -26 -31 -43 -12 -63 7 -7 13
-24 14 -38 1 -14 7 -26 13 -28 6 -2 -6 -27 -27 -55 -21 -29 -31 -48 -22 -45
14 6 15 2 2 -35 -8 -23 -23 -47 -33 -54 -10 -7 -21 -27 -25 -43 -4 -16 -16
-37 -28 -45 -20 -14 -23 -14 -34 2 -7 9 -13 12 -13 7 0 -6 5 -15 12 -22 9 -9
9 -12 0 -12 -7 0 -12 -6 -12 -14 0 -8 -6 -17 -12 -19 -8 -3 -6 -6 4 -6 10 -1
22 7 27 18 6 10 27 26 48 36 21 10 45 23 53 30 19 15 74 29 66 17 -3 -6 -18
-13 -32 -16 -40 -10 -74 -36 -74 -56 0 -10 -12 -25 -26 -35 -25 -16 -25 -16
-14 7 11 22 10 22 -10 -2 -12 -14 -33 -39 -49 -56 -26 -29 -58 -91 -50 -98 2
-2 20 -6 39 -9 27 -5 31 -4 18 4 -10 5 -18 15 -18 21 0 6 7 5 17 -3 15 -12 16
-12 10 4 -7 20 3 23 21 5 15 -15 15 -3 1 25 l-12 22 23 -20 24 -20 -17 25 c-9
13 -17 29 -17 35 0 5 5 3 10 -5 8 -13 11 -13 19 -1 7 11 12 8 25 -11 13 -21
54 -48 71 -48 2 0 -5 17 -17 38 l-22 37 44 -39 c25 -22 53 -49 63 -59 24 -28
32 -14 11 19 -13 19 -15 29 -7 31 8 3 9 12 3 28 -12 31 5 43 20 15 6 -11 15
-20 21 -20 6 0 7 5 4 10 -10 16 11 12 25 -5 9 -10 9 -15 1 -15 -6 0 -11 -4
-11 -10 0 -5 6 -10 13 -10 8 0 19 -10 25 -22 l10 -23 -1 23 c-1 12 -5 22 -9
22 -4 0 -8 5 -8 12 0 6 -9 22 -21 34 -11 12 -19 30 -17 41 3 13 13 2 38 -39
19 -32 38 -58 42 -58 14 0 8 14 -22 54 -32 42 -33 60 -2 33 10 -10 22 -14 27
-10 4 5 5 2 1 -4 -4 -7 -1 -23 6 -35 6 -13 11 -32 10 -43 -2 -12 4 -34 12 -50
19 -35 22 -10 5 29 -10 20 -9 28 5 41 19 20 19 20 4 37 -13 13 -40 78 -33 78
2 0 13 -16 25 -36 30 -48 37 -36 9 18 l-22 43 23 -20 23 -20 -7 23 c-8 24 3
29 23 10 10 -11 10 -8 2 15 -15 38 -14 47 4 41 8 -4 15 -1 15 6 0 6 -4 9 -9 5
-14 -8 -21 9 -11 25 7 11 11 11 24 1 11 -9 16 -10 16 -2 0 6 7 11 16 11 14 0
14 2 3 16 -8 9 -14 24 -14 32 0 9 -11 19 -24 22 -22 5 -29 13 -51 60 -5 9 -21
15 -44 15 -28 0 -36 4 -36 18 0 12 6 17 18 15 9 -2 25 5 34 15 17 19 18 19 48
-4 17 -13 49 -42 71 -64 38 -39 39 -40 39 -14 0 17 -16 43 -45 75 -24 27 -45
43 -45 36 0 -7 -5 -10 -10 -7 -6 4 -8 16 -5 28 6 22 6 22 -14 -1 -19 -21 -22
-22 -43 -8 -13 8 -52 49 -87 90 -35 42 -68 73 -73 69 -6 -3 -14 1 -19 8 -6 10
-9 7 -9 -11z m49 -267 c-7 -10 -24 -31 -36 -46 -13 -16 -23 -37 -23 -48 0 -10
-4 -19 -10 -19 -5 0 -10 11 -10 25 0 17 14 39 43 65 45 43 57 50 36 23z m-33
-324 c3 -5 2 -9 -1 -9 -9 0 -65 30 -65 35 0 7 60 -16 66 -26z"/>
<path d="M6054 4044 c-10 -19 -21 -34 -25 -34 -4 0 -6 -11 -6 -25 0 -14 1 -25
2 -25 1 0 18 24 38 54 26 40 32 56 23 59 -8 3 -21 -8 -32 -29z"/>
<path d="M5986 4011 c-13 -14 -14 -21 -5 -27 7 -4 10 -3 5 4 -3 6 2 15 11 21
10 5 15 12 12 15 -3 4 -14 -2 -23 -13z"/>
<path d="M5560 3901 c0 -5 7 -15 17 -22 15 -13 15 -12 4 9 -12 23 -21 28 -21
13z"/>
<path d="M5618 3773 c4 -10 16 -37 26 -60 10 -24 22 -43 27 -43 5 0 9 -4 9
-10 0 -5 -7 -7 -16 -3 -15 5 -15 3 0 -26 9 -17 14 -31 11 -31 -3 0 1 -13 10
-30 9 -16 20 -30 25 -30 5 0 7 -6 4 -14 -3 -7 6 -38 19 -68 19 -43 31 -56 51
-60 21 -4 24 -3 15 8 -14 17 -9 17 25 4 23 -8 27 -6 48 38 12 26 31 59 41 75
16 23 16 27 3 27 -9 0 -16 5 -16 10 0 6 -6 10 -14 10 -8 0 -17 15 -20 34 -4
19 -12 36 -19 39 -21 7 -37 -4 -37 -26 0 -25 -16 -12 -23 18 -4 15 -5 13 -6
-7 -1 -36 -16 -36 -19 -1 -2 29 -22 58 -22 33 -1 -11 -3 -11 -11 3 -5 9 -16
17 -23 17 -19 0 -56 43 -65 76 -4 15 -12 29 -19 32 -8 2 -9 -2 -4 -15z m115
-153 c3 -11 1 -18 -4 -14 -5 3 -9 12 -9 20 0 20 7 17 13 -6z"/>
<path d="M6041 3754 c-12 -27 -11 -28 4 -12 10 9 16 21 13 28 -2 7 -10 -1 -17
-16z"/>
<path d="M2855 3670 c-3 -5 -3 -15 0 -20 4 -6 8 -28 10 -50 5 -51 81 -156 211
-293 72 -75 75 -81 64 -107 -6 -15 -24 -37 -41 -49 -16 -12 -29 -28 -29 -36 0
-22 51 -41 92 -34 28 4 46 1 70 -14 24 -15 61 -22 138 -28 58 -5 130 -16 160
-25 30 -8 91 -19 135 -24 44 -4 93 -13 108 -19 16 -6 43 -11 60 -11 18 0 54
-7 81 -15 27 -8 79 -15 116 -15 43 0 73 -5 86 -15 13 -10 47 -14 117 -15 78 0
105 -4 134 -20 21 -11 52 -20 70 -20 18 0 33 -4 33 -10 0 -5 -7 -10 -15 -10
-8 0 -15 -5 -15 -11 0 -7 12 -9 34 -5 23 4 48 1 73 -9 21 -9 56 -20 78 -25
139 -28 193 -43 220 -58 16 -10 49 -24 73 -31 23 -8 42 -17 42 -21 0 -7 -52
-43 -95 -66 -22 -12 -43 -59 -31 -71 4 -5 41 -8 82 -8 54 0 74 3 74 13 0 10 8
9 30 -5 l31 -18 23 30 c14 17 27 43 30 58 5 24 9 27 28 22 13 -4 30 -16 39
-27 11 -14 18 -17 23 -9 4 6 4 16 1 21 -10 16 7 12 28 -7 19 -17 19 -17 12 6
-4 13 -3 21 2 18 4 -3 17 12 27 34 11 21 23 39 28 39 4 0 8 9 8 19 0 11 5 23
10 26 6 3 10 21 10 40 0 23 7 39 20 48 15 11 19 21 14 44 -4 20 -1 35 10 46 9
8 16 29 16 46 0 17 5 31 10 31 6 0 10 6 10 14 0 10 7 12 23 8 19 -5 20 -3 9
10 -18 23 -5 99 16 91 10 -4 13 -2 8 5 -4 7 -20 12 -37 12 -40 0 -37 20 4 21
l32 0 -44 20 c-25 11 -51 17 -58 14 -8 -2 -30 2 -49 10 -26 11 -34 20 -34 39
0 39 -27 59 -69 51 -20 -3 -55 -7 -79 -8 -59 -3 -84 -44 -42 -67 11 -6 20 -16
20 -22 0 -6 7 -19 16 -29 21 -23 12 -65 -15 -72 -33 -8 -72 5 -88 29 -8 13
-34 36 -58 51 -44 27 -71 66 -59 84 11 18 -27 49 -51 43 -20 -5 -23 -1 -29 44
-5 39 -17 64 -56 114 -27 34 -50 69 -50 76 0 6 -4 12 -9 12 -5 0 -11 9 -14 20
-7 28 -43 25 -62 -4 -13 -20 -14 -29 -5 -46 10 -18 8 -26 -8 -43 -10 -12 -22
-30 -25 -39 -9 -26 -56 -45 -136 -56 -49 -7 -82 -18 -104 -34 -96 -72 -123
-81 -263 -86 -111 -4 -136 -2 -165 13 -56 29 -133 43 -190 34 -29 -5 -73 -4
-101 1 -28 6 -69 10 -92 10 -22 1 -59 8 -81 17 -22 8 -56 16 -75 17 -19 1 -57
12 -84 25 -26 13 -85 30 -129 39 -64 14 -87 23 -111 47 -43 43 -106 117 -106
125 0 13 -36 40 -53 40 -9 0 -17 6 -17 14 0 19 -17 29 -25 16z"/>
<path d="M5896 3604 c-4 -9 -4 -19 -1 -22 2 -3 7 3 11 12 4 9 4 19 1 22 -2 3
-7 -3 -11 -12z"/>
<path d="M7717 3556 c-4 -10 -5 -21 -2 -24 9 -9 17 6 13 25 -3 17 -4 17 -11
-1z"/>
<path d="M6391 3500 c-1 -19 19 -93 24 -88 2 2 -2 26 -10 53 -7 28 -14 43 -14
35z"/>
<path d="M7814 3476 c-3 -9 -11 -16 -18 -16 -7 0 -12 -25 -14 -65 -2 -53 0
-65 13 -65 8 0 15 -7 15 -15 0 -8 7 -15 15 -15 12 0 14 -8 9 -40 -4 -21 -3
-47 1 -57 11 -25 14 -88 4 -71 -7 10 -12 8 -23 -8 -18 -25 -56 -38 -56 -20 0
7 5 17 12 24 10 10 4 12 -25 10 -20 -2 -39 -9 -42 -16 -3 -7 -10 -10 -16 -7
-5 4 -19 -1 -29 -10 -10 -9 -24 -14 -29 -10 -6 3 -11 2 -11 -4 0 -5 -9 -13
-21 -16 -25 -8 -21 -41 5 -37 17 3 17 2 2 -20 -9 -12 -16 -30 -16 -39 0 -9 -7
-19 -15 -23 -8 -3 -15 -10 -15 -16 0 -6 11 -3 25 6 14 9 25 12 25 6 0 -6 -4
-13 -9 -16 -4 -3 -8 -16 -7 -28 1 -13 -7 -29 -17 -37 -13 -9 -16 -16 -7 -21 7
-5 3 -13 -14 -24 -14 -9 -26 -12 -26 -6 0 19 -16 10 -62 -35 -52 -50 -69 -58
-44 -20 16 24 16 26 -8 35 -18 6 -24 14 -20 25 4 9 13 14 20 11 12 -5 31 30
21 40 -3 3 -22 -2 -42 -10 -21 -9 -46 -16 -56 -16 -11 0 -19 -4 -19 -9 0 -5
-16 -24 -35 -43 -20 -18 -33 -38 -31 -45 3 -6 0 -14 -7 -17 -7 -2 -4 -5 6 -5
20 -1 24 -21 4 -21 -25 0 -99 -60 -93 -75 3 -8 1 -17 -4 -20 -4 -3 -10 0 -12
6 -2 7 -13 6 -33 -2 -17 -7 -33 -12 -37 -11 -5 1 -8 -3 -8 -8 0 -13 27 -13 35
0 3 6 11 10 16 10 6 0 -2 -16 -17 -35 -19 -25 -22 -35 -12 -35 18 0 58 33 58
49 0 6 8 11 19 11 10 0 24 7 31 15 7 8 17 15 22 15 6 0 5 -7 -2 -15 -7 -9 -10
-18 -7 -21 7 -7 47 14 47 26 0 5 15 18 33 30 l32 22 -25 -22 c-14 -13 -24 -26
-23 -31 1 -4 -13 -21 -32 -37 -34 -31 -38 -39 -36 -79 2 -38 32 -27 96 37 54
53 214 160 241 160 5 0 82 71 170 158 144 142 243 222 372 299 20 13 36 27 35
32 -1 5 7 6 19 3 20 -5 20 -3 -6 31 -16 21 -34 37 -42 37 -7 0 -21 16 -30 35
-18 38 -29 47 -19 15 4 -12 0 -26 -8 -35 -17 -17 -28 -10 -21 13 5 14 4 14 -6
0 -14 -23 -31 -23 -23 -1 4 9 2 14 -3 11 -5 -4 -10 6 -11 20 -2 15 -5 36 -7
47 -3 11 -5 25 -6 30 -1 6 -8 -3 -15 -20 -8 -17 -14 -23 -15 -14 0 9 -7 20
-15 23 -9 3 -23 22 -31 43 -12 28 -18 33 -25 22 -7 -12 -9 -11 -9 2 0 9 -7 22
-15 29 -12 10 -16 9 -21 -4z m206 -235 c0 -5 3 -18 7 -28 6 -16 5 -16 -10 -4
-19 15 -23 41 -7 41 6 0 10 -4 10 -9z m-180 -147 c0 -8 -4 -12 -10 -9 -5 3
-10 10 -10 16 0 5 5 9 10 9 6 0 10 -7 10 -16z m-480 -286 c0 -14 -68 -64 -75
-56 -3 3 10 16 30 29 19 13 35 27 35 32 0 4 2 7 5 7 3 0 5 -6 5 -12z m50 -22
c0 -2 -7 -7 -16 -10 -8 -3 -12 -2 -9 4 6 10 25 14 25 6z"/>
<path d="M5990 3471 c0 -5 5 -13 10 -16 6 -3 10 -2 10 4 0 5 -4 13 -10 16 -5
3 -10 2 -10 -4z"/>
<path d="M7890 3444 c0 -8 5 -12 10 -9 6 3 10 10 10 16 0 5 -4 9 -10 9 -5 0
-10 -7 -10 -16z"/>
<path d="M6186 3421 c10 -10 23 -16 27 -14 5 3 0 11 -10 19 -27 20 -39 17 -17
-5z"/>
<path d="M6225 3390 c3 -5 11 -10 16 -10 6 0 7 5 4 10 -3 6 -11 10 -16 10 -6
0 -7 -4 -4 -10z"/>
<path d="M6280 3388 c0 -9 5 -20 10 -23 13 -8 13 5 0 25 -8 13 -10 13 -10 -2z"/>
<path d="M6220 3361 c0 -5 5 -13 10 -16 6 -3 10 -2 10 4 0 5 -4 13 -10 16 -5
3 -10 2 -10 -4z"/>
<path d="M8070 3361 c0 -5 7 -15 17 -22 15 -13 15 -12 4 9 -12 23 -21 28 -21
13z"/>
<path d="M6980 3320 c-9 -6 -10 -10 -3 -10 6 0 15 5 18 10 8 12 4 12 -15 0z"/>
<path d="M8121 3317 c-1 -10 -8 -20 -16 -23 -15 -6 -21 -25 -7 -23 20 3 32 -2
32 -14 0 -24 37 -49 59 -42 20 6 20 7 3 30 -9 14 -24 27 -33 30 -8 3 -20 17
-26 33 -7 18 -11 21 -12 9z"/>
<path d="M5970 3296 c0 -2 8 -10 18 -17 15 -13 16 -12 3 4 -13 16 -21 21 -21
13z"/>
<path d="M6256 3292 c-3 -5 0 -17 7 -26 12 -16 13 -16 14 3 2 22 -12 37 -21
23z"/>
<path d="M7115 3290 c-3 -5 -1 -10 4 -10 6 0 11 5 11 10 0 6 -2 10 -4 10 -3 0
-8 -4 -11 -10z"/>
<path d="M6035 3270 c3 -5 14 -10 23 -10 15 0 15 2 2 10 -20 13 -33 13 -25 0z"/>
<path d="M5957 3244 c14 -14 28 -22 32 -19 6 7 -35 45 -50 45 -4 0 3 -12 18
-26z"/>
<path d="M7114 3239 c-19 -22 -19 -22 4 -8 12 8 22 17 22 21 0 12 -6 9 -26
-13z"/>
<path d="M6060 3241 c0 -5 7 -16 15 -25 21 -20 19 -32 -2 -14 -36 30 -47 30
-19 0 22 -24 31 -28 41 -19 10 10 9 17 -7 40 -20 28 -28 33 -28 18z"/>
<path d="M5870 3221 c0 -5 7 -12 16 -15 14 -5 15 -4 4 9 -14 17 -20 19 -20 6z"/>
<path d="M5953 3196 c3 -8 2 -17 -4 -20 -5 -2 -4 -3 3 -2 7 1 22 -9 35 -23 12
-14 23 -21 23 -15 0 6 -11 21 -25 34 -13 12 -22 27 -19 31 3 5 0 9 -6 9 -7 0
-10 -6 -7 -14z"/>
<path d="M5990 3185 c7 -9 15 -13 17 -11 7 7 -7 26 -19 26 -6 0 -6 -6 2 -15z"/>
<path d="M8179 3180 c-13 -10 -19 -19 -12 -20 6 0 18 7 26 15 8 8 17 12 20 9
3 -3 8 -1 12 5 11 18 -21 12 -46 -9z"/>
<path d="M6021 3180 c0 -23 25 -75 30 -65 3 6 -2 26 -12 45 -10 19 -18 28 -18
20z"/>
<path d="M5896 3165 c5 -12 44 -28 52 -21 2 2 -10 11 -27 19 -22 11 -28 12
-25 2z"/>
<path d="M6678 3168 c-4 -9 -4 -18 -1 -21 7 -8 33 3 33 15 0 5 -4 7 -9 4 -5
-4 -11 -1 -13 6 -3 8 -6 6 -10 -4z"/>
<path d="M7629 3163 c-14 -3 -23 -16 -47 -65 -2 -5 3 -8 12 -8 9 0 16 5 16 10
0 6 8 10 19 10 10 0 24 7 31 16 11 12 11 17 -1 28 -8 7 -21 11 -30 9z"/>
<path d="M8075 3132 c-33 -19 -87 -55 -120 -79 -63 -46 -335 -300 -335 -314 0
-4 14 -2 31 4 18 7 67 51 113 100 83 92 176 167 309 253 42 27 77 55 77 62 0
17 -8 15 -75 -26z"/>
<path d="M6100 3153 c0 -5 5 -15 10 -23 8 -12 10 -11 10 8 0 12 -4 22 -10 22
-5 0 -10 -3 -10 -7z"/>
<path d="M7790 3150 c0 -5 5 -10 10 -10 6 0 10 5 10 10 0 6 -4 10 -10 10 -5 0
-10 -4 -10 -10z"/>
<path d="M5820 3145 c0 -3 9 -14 20 -25 12 -12 20 -15 20 -7 0 7 -9 18 -20 25
-11 7 -20 10 -20 7z"/>
<path d="M5877 3131 c12 -11 29 -21 38 -21 9 0 18 -7 22 -16 4 -11 8 -12 13
-4 10 16 33 2 26 -15 -2 -7 4 -15 15 -18 17 -5 18 -3 7 10 -7 9 -12 19 -12 22
1 3 -5 15 -12 26 -10 14 -14 15 -14 5 0 -10 -3 -11 -8 -4 -6 10 -19 16 -77 31
-19 5 -19 4 2 -16z"/>
<path d="M6601 3123 c-6 -10 -11 -14 -11 -10 0 5 -7 1 -16 -7 -19 -20 -33 -20
-40 -1 -10 25 -25 17 -18 -10 4 -18 -1 -33 -20 -56 -14 -17 -26 -37 -26 -45 0
-8 -11 -19 -25 -24 -72 -27 -185 -140 -185 -185 0 -30 -37 -99 -44 -83 -3 7
-5 -9 -4 -37 1 -27 7 -57 15 -66 8 -9 11 -24 7 -34 -7 -17 -8 -17 -21 1 -7 10
-13 13 -13 5 0 -7 -8 -11 -17 -9 -12 2 -18 13 -18 28 0 14 -4 25 -8 25 -5 0
-15 11 -22 25 -8 14 -14 19 -15 11 0 -11 -3 -11 -15 -1 -19 16 -40 3 -24 -16
9 -11 8 -14 -5 -14 -19 0 -20 13 -5 43 9 17 9 20 -1 10 -9 -8 -18 -6 -36 10
-13 11 -24 25 -24 30 0 12 -27 37 -40 37 -7 0 -10 -7 -6 -15 5 -13 2 -14 -15
-4 -11 6 -23 8 -27 5 -3 -3 -1 -6 4 -6 5 0 18 -14 28 -30 9 -17 21 -28 26 -25
15 9 38 -6 44 -28 3 -12 28 -44 57 -72 29 -27 49 -43 45 -35 -4 8 4 2 18 -15
28 -32 31 -30 17 8 -9 24 -9 24 20 14 16 -6 29 -17 29 -24 0 -7 9 -13 20 -13
14 0 20 -7 20 -21 0 -19 -2 -20 -17 -8 -14 12 -16 12 -12 -1 3 -8 24 -24 47
-34 41 -19 55 -36 30 -36 -9 0 -8 -4 2 -10 12 -8 12 -10 -5 -10 -18 0 -18 -2
6 -24 14 -13 36 -27 48 -31 15 -5 21 -12 16 -23 -3 -9 -3 -13 1 -10 3 4 24
-12 45 -35 39 -43 47 -57 29 -57 -5 0 -10 5 -10 10 0 6 -5 10 -11 10 -12 0 -1
-43 12 -48 5 -2 7 -7 4 -12 -2 -4 14 -10 38 -13 23 -3 44 -2 45 4 2 5 8 9 13
9 4 0 6 -6 3 -14 -5 -14 32 -43 48 -38 4 1 5 -5 1 -14 -5 -13 -8 -13 -15 -2
-7 9 -11 10 -14 2 -3 -7 -13 -10 -22 -7 -20 5 -60 -22 -49 -33 4 -4 13 -2 19
4 15 15 32 16 23 2 -4 -6 -1 -18 7 -27 9 -12 9 -15 1 -9 -20 12 -15 -1 10 -25
12 -12 16 -19 10 -15 -8 5 -13 1 -13 -9 0 -12 6 -15 20 -10 14 5 20 2 20 -10
0 -10 -5 -13 -12 -9 -8 4 -10 3 -5 -2 5 -5 14 -9 20 -9 5 0 12 -6 15 -12 2 -9
-7 -13 -28 -13 -21 0 -29 4 -24 12 4 7 3 8 -5 4 -6 -4 -9 -11 -6 -16 7 -12
-21 -20 -32 -9 -7 7 -12 2 -15 -15 -5 -24 5 -36 15 -18 2 4 3 2 1 -4 -1 -6 2
-16 8 -22 6 -6 6 -12 -1 -16 -6 -4 -11 -2 -11 5 0 8 -4 8 -15 -1 -8 -7 -25
-10 -40 -6 -14 4 -25 2 -25 -4 0 -5 5 -10 12 -10 6 0 8 -3 5 -6 -4 -4 -14 -1
-22 6 -12 10 -19 10 -27 2 -9 -9 -8 -12 6 -12 9 0 14 -4 11 -10 -3 -5 1 -10
10 -10 11 0 15 -7 13 -22 -2 -15 -9 -22 -21 -21 -12 0 -16 -4 -13 -13 3 -7 1
-16 -5 -20 -5 -3 -7 -15 -3 -27 7 -22 7 -22 -15 -3 -12 11 -31 36 -43 55 -12
20 -28 41 -35 46 -7 6 -15 26 -18 45 -3 19 -11 40 -16 46 -6 7 -9 21 -7 31 1
10 0 23 -4 28 -4 6 3 22 13 35 18 22 19 22 10 3 -7 -13 -7 -24 -2 -27 13 -9
25 54 13 66 -6 6 -8 16 -6 23 3 8 -4 13 -20 13 -30 0 -32 -6 -9 -23 10 -8 12
-14 5 -18 -5 -4 -19 9 -31 28 -11 19 -25 35 -31 35 -5 0 -10 8 -10 19 0 10 -7
24 -15 31 -24 20 -18 33 12 26 16 -5 29 -3 33 4 5 7 9 4 13 -10 5 -20 3 -22
-26 -16 -23 4 -28 3 -17 -4 18 -12 83 -13 76 -2 -3 5 9 17 27 27 18 11 26 20
19 23 -10 3 -10 7 0 20 16 19 15 24 -9 34 -16 6 -16 7 5 14 31 9 28 23 -4 19
-25 -2 -64 20 -64 37 0 5 10 8 23 9 24 0 23 1 -53 31 -14 6 -32 14 -40 19 -35
21 -96 49 -109 49 -11 0 -11 -3 0 -17 12 -16 12 -16 -1 -6 -8 6 -32 14 -52 18
-41 8 -48 18 -20 35 14 8 12 9 -10 4 -18 -4 -28 -2 -28 5 0 6 -6 11 -13 11
-22 0 -103 63 -89 68 9 3 8 8 -5 18 -10 7 -22 13 -28 13 -5 0 -1 -6 9 -14 11
-8 15 -15 10 -15 -13 0 -11 -45 2 -45 13 -1 51 -24 39 -25 -6 0 -16 5 -23 12
-8 8 -12 8 -12 1 0 -6 21 -34 46 -62 l47 -52 -37 17 c-20 10 -36 22 -36 26 0
5 -4 7 -10 3 -5 -3 -7 -12 -3 -20 3 -8 0 -15 -5 -15 -6 0 -14 9 -17 20 -3 11
-11 20 -16 20 -6 0 -7 -6 -3 -12 4 -8 3 -10 -2 -5 -5 5 -9 14 -9 20 0 7 -9 13
-20 15 -11 2 -30 13 -42 25 -18 16 -23 17 -23 5 0 -8 -7 -15 -15 -15 -11 0
-13 6 -9 20 4 13 2 17 -5 13 -6 -4 -11 -3 -11 1 0 5 -7 18 -16 29 -15 19 -15
18 -11 -3 3 -12 0 -25 -7 -28 -8 -3 -8 -7 2 -11 6 -3 12 -12 12 -19 0 -7 5
-15 12 -17 7 -3 5 -7 -6 -11 -12 -5 -15 -3 -10 6 5 8 2 8 -7 -1 -12 -12 -8
-19 26 -48 22 -20 32 -32 22 -29 -25 10 -20 -5 13 -44 16 -19 27 -37 24 -40
-3 -3 -12 3 -20 13 -7 11 -16 17 -19 14 -5 -4 92 -108 101 -108 11 0 1 21 -22
44 -15 14 -22 26 -17 26 5 0 20 -11 33 -25 13 -14 28 -25 34 -25 14 0 64 -39
52 -40 -5 0 -17 7 -27 16 -13 12 -22 13 -36 5 -10 -6 -15 -11 -10 -12 4 -1 10
-2 15 -3 4 -1 21 -9 37 -18 22 -12 25 -17 12 -18 -10 0 -15 -4 -12 -10 3 -5 1
-10 -4 -10 -6 0 -11 9 -11 20 0 11 -6 20 -14 20 -8 0 -36 18 -62 40 -53 44
-64 48 -64 25 0 -17 -16 -20 -25 -5 -5 8 -11 8 -20 0 -7 -6 -20 -8 -29 -4 -26
10 -18 -12 12 -32 37 -24 52 -40 45 -48 -4 -3 1 -6 10 -6 11 0 14 -5 10 -15
-3 -9 -2 -15 3 -13 15 4 54 -13 54 -23 0 -5 -6 -9 -14 -9 -21 0 -25 -23 -9
-51 9 -16 12 -17 8 -5 -6 20 -6 20 15 1 20 -18 20 -20 3 -26 -10 -4 -39 -5
-65 -2 -51 6 -63 -2 -25 -17 18 -7 14 -9 -21 -8 -23 1 -45 -2 -49 -5 -3 -4 8
-7 25 -7 32 0 51 -15 30 -23 -22 -8 38 -26 94 -28 29 -1 70 2 91 6 24 5 37 4
37 -3 0 -6 -15 -14 -32 -18 -18 -3 -41 -15 -50 -26 -13 -15 -21 -17 -35 -9
-10 6 -13 11 -6 11 16 0 5 30 -11 30 -7 0 -21 -7 -32 -15 -18 -13 -18 -14 6
-8 20 4 23 3 13 -7 -6 -7 -9 -18 -7 -25 3 -7 -6 -19 -20 -28 -32 -21 -73 -109
-82 -175 -6 -49 -5 -52 15 -52 25 0 25 2 5 -45 -8 -20 -15 -60 -15 -89 -1 -57
-19 -86 -56 -86 -25 0 -29 10 -11 28 9 9 7 12 -11 12 -21 0 -21 1 -7 22 19 26
21 47 4 30 -7 -7 -15 -12 -18 -12 -8 0 -5 79 3 130 4 19 3 30 -1 24 -4 -6 -14
-11 -22 -11 -8 0 -22 -4 -31 -7 -12 -5 -18 -1 -22 15 -4 15 -11 20 -23 15 -14
-5 -15 -4 -4 9 7 8 21 15 31 15 11 0 19 4 19 10 0 5 -7 7 -15 4 -8 -4 -15 -2
-15 4 0 6 -9 8 -20 5 -15 -4 -20 0 -20 15 0 11 7 25 15 32 8 7 15 18 15 24 -1
6 -6 5 -13 -4 -7 -8 -18 -16 -25 -18 -20 -4 -4 38 22 60 17 14 18 17 5 18 -9
0 -22 -7 -29 -15 -18 -21 -32 -8 -17 16 10 16 9 21 -3 29 -13 8 -11 13 12 31
31 25 27 49 -8 49 -13 0 -24 5 -24 10 0 6 9 10 20 10 11 0 20 5 20 11 0 7 -11
9 -27 6 -15 -3 -34 0 -43 5 -13 8 -31 4 -75 -16 -32 -14 -60 -24 -63 -22 -2 3
17 18 42 34 l47 30 -38 10 c-38 9 -38 9 -13 20 18 8 20 11 8 11 -10 1 -18 5
-18 10 0 5 -7 17 -16 26 -15 15 -15 17 2 36 18 20 18 20 -10 13 -25 -6 -28 -4
-23 10 4 9 2 16 -4 16 -6 0 -8 8 -4 19 4 12 0 21 -11 25 -12 5 -14 9 -5 20 9
10 0 16 -45 26 -37 9 -58 10 -62 3 -11 -15 -71 -33 -112 -33 -21 0 -79 -16
-129 -35 -49 -19 -102 -35 -116 -35 -14 0 -43 -11 -65 -25 -22 -14 -48 -25
-59 -25 -11 0 -26 -7 -35 -15 -8 -8 -17 -15 -19 -15 -10 0 -89 -75 -99 -94 -8
-15 -7 -22 5 -30 8 -7 16 -20 18 -30 2 -10 11 -22 19 -26 8 -4 38 -20 67 -34
66 -34 135 -55 198 -61 60 -6 177 -27 340 -62 66 -14 143 -29 170 -35 46 -9
85 -31 85 -48 0 -4 -26 -11 -57 -16 -40 -6 -50 -9 -30 -12 15 -2 27 -8 27 -13
0 -5 -12 -14 -27 -20 -16 -6 -36 -15 -45 -20 -26 -13 -49 -11 -70 7 -13 13
-21 14 -31 6 -7 -6 -29 -12 -48 -13 -19 -1 -43 -4 -53 -7 -18 -4 -19 -5 -3
-17 15 -11 14 -13 -13 -18 -16 -4 -39 -16 -50 -27 -21 -21 -65 -27 -75 -10 -7
12 -107 6 -168 -11 -28 -7 -36 -13 -27 -19 19 -11 21 -40 4 -40 -14 0 -20 -19
-6 -21 4 0 26 -3 50 -5 32 -4 44 -1 48 10 5 12 19 14 70 10 35 -2 76 -9 90
-14 19 -8 38 -7 62 1 20 7 74 13 121 14 47 1 115 4 151 8 36 3 55 4 43 1 -25
-6 -29 -14 -12 -31 15 -15 -55 -27 -81 -13 -11 6 -20 7 -20 2 0 -13 -38 -22
-42 -10 -2 5 -15 0 -29 -11 -25 -19 -78 -37 -144 -48 -32 -5 -85 27 -85 50 0
9 2 9 8 1 12 -19 48 -26 60 -11 9 10 4 16 -23 26 -19 7 -39 10 -43 7 -4 -3
-26 -1 -48 4 -33 8 -42 6 -59 -11 l-20 -20 20 2 c11 1 29 1 40 0 17 -3 17 -4
-5 -10 -14 -4 -24 -14 -22 -21 2 -7 -3 -10 -12 -7 -8 3 -24 -3 -37 -14 -26
-23 -36 -25 -19 -4 10 12 7 15 -15 21 -14 3 -24 9 -21 11 3 3 -2 12 -10 21
-17 16 -19 15 -45 -31 -6 -11 -17 -16 -27 -13 -22 7 -47 -8 -37 -23 4 -8 18
-10 35 -6 16 4 31 2 35 -5 15 -24 76 -40 133 -33 31 4 81 7 110 8 28 0 52 3
52 8 0 4 5 7 11 7 6 0 9 -7 5 -15 -6 -17 29 -45 56 -45 10 0 27 -5 37 -12 15
-9 32 -9 76 2 31 8 59 19 62 25 5 14 57 31 131 44 57 9 63 4 30 -25 -18 -16
-20 -17 -15 -2 5 14 2 15 -22 7 -35 -12 -39 -43 -4 -34 18 4 23 1 23 -15 0
-24 -4 -25 -40 -4 -15 10 -35 14 -45 10 -13 -5 -3 -14 44 -37 33 -17 69 -29
79 -27 11 2 30 -3 44 -10 22 -12 30 -12 56 2 17 9 38 13 46 10 9 -3 16 -1 16
5 0 14 -15 14 -57 -1 -27 -10 -38 -10 -53 0 -11 7 -31 12 -45 12 -29 0 -33 15
-7 29 18 9 144 0 176 -14 16 -7 18 -5 13 8 -5 13 -1 17 18 17 14 0 25 5 25 10
0 6 14 10 30 10 35 0 37 -6 10 -30 -13 -11 -30 -15 -46 -12 -18 3 -25 1 -20
-6 3 -6 0 -12 -6 -15 -7 -2 4 -4 25 -4 23 1 42 -5 47 -13 5 -8 8 -15 7 -16 -1
-1 -42 -5 -91 -7 -95 -6 -146 -27 -64 -27 38 0 48 -4 53 -20 8 -25 32 -38 84
-45 40 -5 101 -30 101 -41 0 -2 -9 0 -19 6 -26 13 -52 13 -28 -1 14 -8 16 -14
6 -25 -15 -18 -10 -23 27 -30 28 -5 28 -5 10 15 -22 24 -9 28 20 7 13 -10 23
-11 31 -4 20 16 15 31 -7 25 -11 -3 -22 -1 -25 3 -3 5 21 12 52 16 32 4 61 11
64 15 3 5 20 4 37 -2 25 -9 36 -8 48 2 13 11 17 10 25 -4 14 -23 31 -21 62 7
21 19 28 22 37 11 8 -10 7 -15 -2 -19 -12 -6 32 0 91 10 13 3 28 -1 35 -9 6
-8 30 -17 54 -20 24 -3 52 -13 63 -23 27 -25 17 -28 -27 -9 -49 21 -82 25
-111 14 -13 -5 -25 -4 -28 1 -4 6 -25 10 -48 10 -23 0 -37 -4 -32 -8 6 -4 17
-16 25 -26 14 -18 13 -19 -8 -14 -16 5 -26 1 -35 -13 -13 -21 -65 -26 -98 -8
-16 8 -25 7 -39 -6 -10 -9 -30 -18 -44 -19 -14 0 -26 -4 -26 -8 0 -7 125 -40
152 -39 10 0 20 -4 23 -10 11 -16 24 -10 40 20 13 27 19 30 57 27 24 -1 56 1
71 5 16 4 38 4 50 -1 l22 -9 -22 0 c-36 -1 -27 -19 14 -27 24 -5 38 -3 41 4 2
6 20 14 40 18 20 4 44 12 52 19 8 7 27 15 43 19 37 9 34 23 -5 31 -41 8 -88
28 -88 36 0 8 41 22 55 19 5 -1 14 5 20 13 11 15 79 42 70 27 -3 -5 3 -10 12
-13 13 -3 5 -10 -26 -23 -36 -15 -40 -19 -25 -25 11 -4 38 -5 61 -2 32 4 51 0
78 -16 43 -25 45 -25 45 -5 0 8 4 13 9 10 5 -3 28 1 52 10 28 10 61 14 91 10
32 -3 50 -1 58 9 9 11 7 16 -9 24 -18 10 -18 13 -4 41 8 17 24 35 35 41 14 8
18 17 14 33 -4 17 1 26 24 39 18 11 27 23 23 32 -3 11 2 15 19 15 15 0 33 12
48 31 38 47 63 72 90 91 23 16 24 18 8 31 -22 17 -13 27 25 27 23 0 28 4 23
16 -4 11 1 18 14 21 11 3 20 9 20 14 0 5 8 9 18 9 10 0 26 6 36 13 15 11 16
18 8 34 -10 17 -9 20 6 19 10 0 16 5 15 14 -2 8 13 26 32 39 27 18 34 29 29
44 -5 16 -3 19 12 13 10 -4 21 -1 26 6 12 20 10 26 -13 33 -20 7 -20 9 12 41
22 22 44 33 62 34 24 0 26 3 18 19 -12 22 -5 31 22 31 18 0 18 1 3 25 l-17 25
42 -6 c33 -6 40 -4 34 6 -11 18 13 30 63 30 43 0 51 7 30 28 -9 9 -8 12 5 12
9 0 17 7 17 15 0 8 5 15 11 15 14 0 109 100 109 116 0 7 -6 14 -12 17 -8 2 2
14 22 26 l35 23 -135 -5 c-81 -3 -173 -14 -229 -26 -94 -21 -163 -28 -86 -9
123 30 220 46 300 47 80 2 185 24 185 39 0 3 -7 13 -16 23 -14 15 -13 18 15
27 37 13 39 20 9 32 -18 7 -19 9 -5 9 19 1 23 21 6 38 -9 9 -6 11 12 7 23 -5
23 -5 -3 13 -16 10 -28 21 -28 25 0 12 8 10 36 -8 13 -9 28 -14 32 -10 4 4 -1
12 -11 17 -21 12 -13 29 14 29 10 0 19 5 19 10 0 6 -17 10 -37 10 l-38 1 30
13 c17 7 39 10 50 8 19 -5 19 -4 3 15 -25 27 -23 30 14 25 31 -5 32 -4 18 13
-8 9 -23 21 -35 25 -19 8 -18 9 5 10 l25 2 -25 8 c-24 8 -24 8 6 9 27 1 31 4
30 29 -1 23 2 27 24 24 25 -3 25 -2 5 13 -13 11 -30 14 -50 10 -28 -5 -29 -5
-10 8 11 8 30 17 43 21 12 4 22 14 22 22 0 9 11 14 30 14 32 0 41 16 13 23
-13 3 -11 5 6 6 16 1 21 5 17 16 -4 10 1 15 14 15 11 0 20 5 20 10 0 6 -4 10
-8 10 -5 0 -17 6 -27 14 -18 13 -15 14 26 9 36 -4 47 -2 52 11 5 13 -1 16 -26
17 -30 1 -30 1 -7 8 17 5 24 13 22 26 -3 13 1 16 14 11 14 -5 15 -4 4 9 -7 8
-19 15 -26 15 -8 0 -14 4 -14 9 0 5 16 5 38 0 59 -14 70 -11 42 11 -21 16 -22
20 -7 20 10 0 16 4 13 9 -4 5 0 12 6 15 9 4 6 10 -10 22 l-23 17 38 23 c21 13
34 23 28 24 -21 0 -245 -121 -245 -132 0 -5 -5 -8 -10 -8 -12 0 -93 -55 -175
-120 -67 -53 -417 -414 -414 -427 3 -12 -18 -60 -30 -68 -16 -9 -13 -25 4 -25
8 0 20 9 27 20 7 11 18 20 25 20 6 0 47 26 90 58 81 60 384 252 398 252 4 0
-73 -52 -171 -116 -99 -64 -201 -133 -229 -153 -109 -81 -123 -89 -166 -102
-24 -7 -48 -16 -53 -21 -19 -16 -29 -8 -12 11 9 10 16 25 14 32 -2 9 4 13 16
11 10 -2 15 1 12 7 -4 5 -1 13 5 17 8 5 8 8 0 14 -28 17 44 108 76 95 9 -3 48
31 101 87 209 223 295 304 397 373 l40 27 -40 -6 c-22 -4 -51 -9 -65 -12 -14
-2 -5 3 20 11 25 9 56 16 70 17 14 1 59 21 101 45 42 24 79 43 83 43 12 0 126
75 126 83 0 5 -3 6 -8 3 -4 -2 -16 2 -27 10 -18 13 -18 14 -1 14 16 0 17 2 5
17 -13 17 -13 17 11 1 23 -14 28 -14 45 -1 19 15 19 15 -2 9 -17 -6 -22 -3
-20 12 1 14 7 18 26 15 25 -3 25 -3 4 6 -31 14 -29 23 5 16 25 -5 25 -4 6 6
-18 9 -33 5 -89 -25 -84 -45 -229 -141 -272 -182 -18 -17 -34 -29 -37 -27 -4
5 -111 -100 -171 -169 -22 -25 -107 -114 -190 -199 -183 -188 -245 -258 -245
-275 0 -7 -9 -18 -20 -24 -11 -6 -20 -17 -20 -25 0 -8 -13 -21 -30 -30 -16 -8
-28 -21 -26 -28 1 -6 1 -9 -1 -4 -8 13 -25 7 -54 -20 -21 -20 -25 -30 -16 -36
8 -6 5 -7 -7 -3 -11 4 -26 0 -38 -10 -10 -10 -21 -15 -24 -11 -3 3 4 10 15 17
24 12 29 35 5 26 -8 -3 -12 -2 -9 4 3 6 13 10 21 10 8 0 19 11 24 25 5 14 17
25 27 26 11 0 13 3 5 6 -17 7 4 33 27 33 13 0 13 2 3 9 -10 6 -7 10 12 15 14
3 26 11 26 16 0 5 -7 7 -15 4 -28 -11 -15 14 18 35 18 11 42 30 52 42 11 11
35 27 55 35 22 9 105 86 227 211 106 108 191 198 189 201 -12 11 -72 -38 -157
-129 -113 -121 -180 -190 -232 -239 -32 -29 -40 -32 -48 -20 -9 13 -10 12 -5
-2 3 -11 -2 -21 -14 -28 -29 -16 -48 -12 -26 5 11 9 14 15 7 15 -14 0 -137
-120 -164 -160 -17 -24 -17 -23 -1 10 9 19 27 47 41 61 17 18 21 29 13 34 -8
5 -6 11 7 22 10 8 13 12 6 9 -6 -4 -13 0 -16 6 -3 10 -13 8 -41 -6 -20 -11
-36 -23 -36 -28 0 -4 -9 -8 -20 -8 -26 0 -25 8 2 37 28 30 2 32 -35 3 -14 -11
-28 -20 -32 -20 -11 0 0 35 15 47 8 6 12 15 8 19 -8 8 36 34 57 34 18 0 65 47
65 65 0 8 -7 15 -15 15 -11 0 -9 6 8 23 12 12 25 21 30 19 4 -1 7 2 7 8 0 5
-6 10 -14 10 -8 0 -18 5 -22 12 -5 8 -2 9 11 5 9 -4 24 -2 32 5 12 10 10 13
-14 24 -15 7 -22 13 -15 13 6 1 12 5 12 11 0 13 -30 1 -56 -22 -17 -15 -23
-16 -26 -6 -4 11 -8 11 -21 -1 -19 -15 -23 -1 -5 17 8 8 8 15 -1 26 -10 11 -8
18 10 35 13 11 19 24 14 28 -4 5 -10 2 -12 -4 -3 -7 -8 -13 -12 -13 -8 0 -7
27 0 60 4 14 -1 16 -41 19 -17 1 -18 5 -10 27 14 35 13 39 -6 23 -13 -11 -15
-11 -14 2 1 7 2 25 1 38 -1 20 -3 22 -16 11 -21 -17 -32 -4 -17 20 16 26 15
31 -2 24 -8 -3 -23 -1 -33 4 -13 7 -24 6 -37 -4 -18 -12 -22 -11 -39 14 l-18
27 6 -35 c15 -77 16 -86 7 -67 -6 15 -10 12 -20 -17 -9 -25 -10 -41 -3 -55 6
-11 7 -21 2 -23 -4 -2 -12 -14 -16 -28 -7 -22 -6 -23 9 -11 20 17 21 2 1 -25
-19 -25 -19 -38 1 -30 13 5 12 0 -5 -29 -12 -20 -21 -42 -21 -49 0 -7 -10 -21
-21 -32 l-22 -19 7 30 c4 17 7 38 7 47 0 10 4 20 9 23 4 3 6 15 2 27 -3 14 -2
19 6 14 7 -4 12 -2 12 3 0 6 -4 11 -8 11 -4 0 -14 28 -21 62 -12 61 -59 188
-73 198 -10 8 9 35 24 35 7 0 20 15 29 33 10 18 20 32 24 32 14 -3 25 24 25
60 -1 32 -2 33 -14 17 -11 -14 -15 -15 -20 -5 -5 10 -7 10 -12 1 -3 -7 -13
-13 -22 -13 -15 1 -15 2 1 11 18 11 23 34 8 44 -6 3 -14 -3 -20 -12z m1516
-169 c-3 -3 -12 -4 -19 -1 -8 3 -5 6 6 6 11 1 17 -2 13 -5z m-1343 -149 c-4
-8 -10 -15 -15 -15 -4 0 -6 7 -3 15 4 8 10 15 15 15 4 0 6 -7 3 -15z m1253
-11 c-3 -3 -12 -4 -19 -1 -8 3 -5 6 6 6 11 1 17 -2 13 -5z m-1297 -24 c0 -5
-5 -10 -11 -10 -5 0 -7 5 -4 10 3 6 8 10 11 10 2 0 4 -4 4 -10z m-350 -90 c0
-5 -4 -10 -10 -10 -5 0 -10 5 -10 10 0 6 5 10 10 10 6 0 10 -4 10 -10z m543
-150 c-10 -11 -21 -20 -25 -20 -5 0 -3 9 4 20 7 11 18 20 25 20 9 0 7 -6 -4
-20z m-243 -35 c-7 -8 -19 -15 -26 -15 -20 0 -17 -17 3 -24 11 -4 22 -1 29 8
6 9 15 16 20 16 13 0 44 -37 37 -44 -11 -11 -23 -6 -23 10 0 9 -6 14 -12 11
-7 -2 -13 -15 -13 -28 0 -20 -5 -24 -27 -22 -20 1 -25 -2 -21 -13 3 -7 -2 -17
-11 -20 -9 -3 -13 -11 -10 -16 4 -6 1 -14 -6 -18 -7 -4 -11 -13 -8 -20 2 -7
13 -4 31 10 21 17 27 18 27 6 0 -26 19 -28 65 -5 25 12 48 20 51 17 7 -8 -115
-68 -138 -68 -10 0 -18 -5 -18 -11 0 -7 11 -8 31 -4 21 5 29 4 25 -3 -3 -6 0
-13 6 -15 7 -3 -1 -6 -19 -6 -44 -1 -63 8 -63 30 0 10 -5 19 -10 19 -6 0 -23
11 -38 25 l-27 25 28 0 c18 0 26 4 21 11 -3 6 0 15 7 20 7 4 10 11 6 16 -5 4
-11 2 -15 -4 -4 -6 -18 -13 -32 -16 -14 -2 -19 -2 -12 0 6 3 12 9 12 14 0 5 6
9 14 9 8 0 16 10 18 23 2 12 13 26 26 32 12 5 22 18 22 28 0 10 10 22 23 27
33 13 41 12 27 -5z m180 0 c-7 -9 -15 -13 -17 -11 -7 7 7 26 19 26 6 0 6 -6
-2 -15z m31 -28 c-8 -8 -11 -7 -11 4 0 20 13 34 18 19 3 -7 -1 -17 -7 -23z
m-61 -7 c0 -5 -5 -10 -11 -10 -5 0 -7 5 -4 10 3 6 8 10 11 10 2 0 4 -4 4 -10z
m44 -16 c3 -8 2 -12 -4 -9 -6 3 -10 10 -10 16 0 14 7 11 14 -7z m-122 -42 c4
-15 1 -18 -18 -14 -13 2 -24 8 -24 13 0 5 7 6 15 3 8 -4 15 -1 15 5 0 17 7 13
12 -7z m-797 -14 c6 -6 -1 -7 -20 -2 -16 3 -34 11 -40 16 -6 6 1 7 20 2 17 -3
35 -11 40 -16z m55 -18 c18 -12 2 -12 -25 0 -13 6 -15 9 -5 9 8 0 22 -4 30 -9z
m710 -10 c6 -11 8 -20 6 -20 -3 0 -10 9 -16 20 -6 11 -8 20 -6 20 3 0 10 -9
16 -20z m159 -11 c-19 -27 -23 -29 -31 -15 -5 9 -17 16 -26 16 -15 0 -15 2 -2
10 20 13 33 13 25 0 -10 -16 11 -12 25 5 24 28 31 15 9 -16z m-736 4 c4 -2 7
-8 7 -13 0 -10 -47 7 -65 23 -9 8 40 0 58 -10z m-186 -43 c7 0 13 -5 13 -11 0
-6 -9 -8 -22 -3 -38 11 -98 44 -98 53 0 4 21 -2 47 -15 25 -13 52 -24 60 -24z
m73 14 c10 -10 10 -14 2 -14 -7 0 -12 4 -12 8 0 5 -12 13 -27 20 -26 10 -26
11 -3 6 14 -4 32 -12 40 -20z m35 16 c3 -6 -1 -7 -9 -4 -18 7 -21 14 -7 14 6
0 13 -4 16 -10z m772 -30 c-2 -29 -17 -24 -17 6 0 14 4 23 9 19 6 -3 9 -14 8
-25z m-1097 -13 c5 2 6 -5 3 -14 -6 -14 -9 -13 -25 7 -10 12 -18 27 -18 34 0
6 8 2 16 -9 8 -11 19 -19 24 -18z m453 6 c-7 -2 -19 -2 -25 0 -7 3 -2 5 12 5
14 0 19 -2 13 -5z m-174 -22 c11 -11 29 -25 41 -31 12 -6 19 -14 16 -17 -5 -6
-31 10 -76 46 -14 11 -19 21 -12 21 6 0 21 -9 31 -19z m106 1 c-3 -3 -11 0
-18 7 -9 10 -8 11 6 5 10 -3 15 -9 12 -12z m435 8 c12 -8 11 -10 -7 -10 -13 0
-23 5 -23 10 0 13 11 13 30 0z m245 -9 c-3 -6 -11 -11 -17 -11 -6 0 -6 6 2 15
14 17 26 13 15 -4z m-70 -1 c-3 -5 -10 -10 -16 -10 -5 0 -9 5 -9 10 0 6 7 10
16 10 8 0 12 -4 9 -10z m96 -30 c-13 -11 -28 -20 -35 -20 -6 1 0 10 13 20 13
11 28 20 35 20 6 -1 0 -10 -13 -20z m-711 0 c8 -5 12 -11 10 -14 -3 -2 -14 2
-24 10 -22 15 -10 19 14 4z m65 0 c3 -6 -1 -7 -9 -4 -18 7 -21 14 -7 14 6 0
13 -4 16 -10z m720 -8 c-3 -3 -15 -7 -28 -9 -21 -4 -21 -3 -2 11 18 13 44 12
30 -2z m842 12 c-3 -3 -12 -4 -19 -1 -8 3 -5 6 6 6 11 1 17 -2 13 -5z m-1943
-20 c5 -14 4 -15 -9 -4 -17 14 -19 20 -6 20 5 0 12 -7 15 -16z m1871 -4 c-22
-10 -46 -19 -54 -19 -7 -1 -11 -7 -7 -16 4 -10 -1 -15 -15 -15 -18 0 -81 -21
-207 -69 -38 -14 -50 -16 -42 -6 7 8 22 17 33 21 35 10 199 74 242 94 48 22
67 28 80 28 6 0 -8 -8 -30 -18z m-1405 -4 c0 -3 -4 -8 -10 -11 -5 -3 -10 -1
-10 4 0 6 5 11 10 11 6 0 10 -2 10 -4z m-410 -26 c14 -11 21 -20 15 -20 -5 0
-21 9 -35 20 -14 11 -20 20 -15 20 6 0 21 -9 35 -20z m840 16 c0 -2 -9 -6 -20
-9 -11 -3 -18 -1 -14 4 5 9 34 13 34 5z m140 -11 c-7 -8 -19 -15 -28 -15 -17
0 -62 -38 -62 -52 0 -4 5 -8 10 -8 6 0 10 6 10 14 0 8 15 19 33 25 19 7 43 21
55 32 12 11 22 16 22 12 -1 -14 -50 -64 -58 -59 -4 2 -8 -4 -8 -15 0 -15 5
-18 21 -13 11 4 23 11 26 16 3 5 12 2 19 -7 11 -13 10 -15 -1 -10 -10 4 -23
-10 -41 -42 -14 -27 -33 -50 -43 -51 -11 -3 -15 0 -10 7 3 6 12 8 18 5 7 -4 9
-4 5 1 -4 4 -3 14 3 22 9 10 8 13 -5 13 -16 0 -22 15 -8 23 4 2 1 2 -6 0 -8
-1 -20 -3 -28 -3 -8 0 -14 -4 -14 -10 0 -5 9 -10 20 -10 11 0 20 -4 20 -10 0
-13 -87 -13 -95 1 -5 7 -13 4 -26 -7 -10 -9 -16 -20 -14 -24 3 -5 -4 -6 -14
-3 -16 4 -18 8 -9 23 7 10 18 16 25 13 7 -3 13 2 13 10 0 9 7 23 16 31 20 21
10 20 -21 0 -23 -15 -25 -15 -25 0 0 9 5 16 11 16 5 0 8 3 6 8 -3 4 9 7 26 7
21 0 31 5 29 13 -1 7 3 12 10 11 35 -4 43 2 24 16 -19 14 -18 15 12 11 18 -2
32 0 32 5 0 4 12 10 28 12 15 2 29 5 31 6 2 0 -2 -6 -9 -14z m130 11 c0 -3 -4
-8 -10 -11 -5 -3 -10 -1 -10 4 0 6 5 11 10 11 6 0 10 -2 10 -4z m-690 -21
c-15 -18 -36 -20 -46 -4 -4 7 0 9 14 5 11 -4 23 -2 27 4 3 5 9 10 12 10 3 0 0
-7 -7 -15z m635 -5 c-10 -11 -20 -18 -23 -15 -7 6 18 35 31 35 5 0 2 -9 -8
-20z m803 13 c-10 -2 -28 -2 -40 0 -13 2 -5 4 17 4 22 1 32 -1 23 -4z m-1578
-43 c0 -14 -28 -1 -34 16 -4 12 -2 12 14 4 11 -6 20 -15 20 -20z m50 15 c7 -9
8 -15 2 -15 -5 0 -12 7 -16 15 -3 8 -4 15 -2 15 2 0 9 -7 16 -15z m310 -9 c0
-2 -9 -2 -20 1 -11 3 -20 9 -20 15 0 5 9 4 20 -2 11 -6 20 -12 20 -14z m-805
4 c3 -5 -1 -10 -9 -10 -8 0 -18 5 -21 10 -3 6 1 10 9 10 8 0 18 -4 21 -10z
m1002 -6 c-3 -3 -12 -4 -19 -1 -8 3 -5 6 6 6 11 1 17 -2 13 -5z m238 -14 c-3
-5 -14 -10 -23 -9 -14 0 -13 2 3 9 27 11 27 11 20 0z m-1150 -20 c3 -5 1 -10
-4 -10 -6 0 -11 5 -11 10 0 6 2 10 4 10 3 0 8 -4 11 -10z m160 -18 c-3 -3 -11
0 -18 7 -9 10 -8 11 6 5 10 -3 15 -9 12 -12z m125 -3 c0 -6 10 -20 23 -30 l22
-20 -27 16 c-27 17 -45 45 -28 45 6 0 10 -5 10 -11z m1469 7 c-9 -8 -154 -66
-164 -65 -11 0 86 47 125 59 28 9 45 12 39 6z m-654 -16 c-3 -5 -14 -10 -23
-9 -14 0 -13 2 3 9 27 11 27 11 20 0z m-737 -20 c7 -11 19 -20 27 -20 9 0 15
-9 14 -22 -1 -17 -3 -18 -6 -6 -2 9 -10 15 -16 12 -7 -2 -20 9 -29 26 -19 33
-10 42 10 10z m472 1 c0 -6 -4 -13 -10 -16 -5 -3 -10 1 -10 9 0 9 5 16 10 16
6 0 10 -4 10 -9z m605 -1 c-3 -5 -10 -10 -16 -10 -5 0 -9 5 -9 10 0 6 7 10 16
10 8 0 12 -4 9 -10z m85 -30 c-8 -5 -22 -10 -30 -10 -13 0 -13 1 0 10 8 5 22
10 30 10 13 0 13 -1 0 -10z m-619 -30 c5 0 12 6 15 14 4 11 11 12 35 2 30 -11
30 -11 7 -17 -13 -4 -35 -7 -50 -8 -23 -1 -28 3 -27 22 1 16 2 18 6 5 2 -10 9
-18 14 -18z m515 5 c-11 -8 -29 -15 -40 -14 -17 0 -15 3 9 14 39 18 55 18 31
0z m-2366 -19 c0 -3 -4 -8 -10 -11 -5 -3 -10 -1 -10 4 0 6 5 11 10 11 6 0 10
-2 10 -4z m1935 -6 c-3 -5 -12 -10 -18 -10 -7 0 -6 4 3 10 19 12 23 12 15 0z
m148 -7 c-7 -2 -19 -2 -25 0 -7 3 -2 5 12 5 14 0 19 -2 13 -5z m-2118 -13 c-3
-5 -13 -10 -21 -10 -8 0 -12 5 -9 10 3 6 13 10 21 10 8 0 12 -4 9 -10z m2055
-5 c0 -9 -9 -15 -22 -14 -17 1 -19 2 -5 6 9 2 17 9 17 14 0 5 2 9 5 9 3 0 5
-7 5 -15z m120 5 c0 -5 -4 -10 -10 -10 -5 0 -10 5 -10 10 0 6 5 10 10 10 6 0
10 -4 10 -10z m-60 -4 c0 -3 -4 -8 -10 -11 -5 -3 -10 -1 -10 4 0 6 5 11 10 11
6 0 10 -2 10 -4z m-115 -25 c16 -7 13 -9 -17 -12 -29 -4 -35 -2 -26 8 12 15
15 15 43 4z m60 -11 c-3 -5 -14 -10 -23 -10 -15 0 -15 2 -2 10 20 13 33 13 25
0z m-17 -30 c18 0 23 -3 14 -8 -16 -11 -72 -3 -72 10 0 6 7 7 16 4 9 -3 28 -6
42 -6z m-941 -16 c-3 -3 -12 -4 -19 -1 -8 3 -5 6 6 6 11 1 17 -2 13 -5z m210
-16 c-3 -8 -6 -5 -6 6 -1 11 2 17 5 13 3 -3 4 -12 1 -19z m715 2 c17 0 28 -3
24 -7 -4 -5 -29 -8 -56 -8 -38 0 -46 3 -38 13 6 7 18 10 25 7 8 -3 29 -5 45
-5z m345 -6 c-3 -3 -12 -4 -19 -1 -8 3 -5 6 6 6 11 1 17 -2 13 -5z m-1892 -24
c-27 -12 -43 -12 -25 0 8 5 22 9 30 9 10 0 8 -3 -5 -9z m-199 -9 c-6 -9 -56
-22 -56 -14 0 4 40 21 53 22 5 1 6 -3 3 -8z m1394 -31 c0 -5 -4 -10 -10 -10
-5 0 -10 5 -10 10 0 6 5 10 10 10 6 0 10 -4 10 -10z m-20 -61 c0 -5 -4 -9 -10
-9 -5 0 -10 7 -10 16 0 8 5 12 10 9 6 -3 10 -10 10 -16z m-1145 -19 c-3 -5
-11 -10 -16 -10 -6 0 -7 5 -4 10 3 6 11 10 16 10 6 0 7 -4 4 -10z m38 -52 c-5
-26 -23 -40 -23 -18 0 10 23 51 26 47 1 -1 0 -14 -3 -29z m875 3 c-7 -9 -14
-18 -15 -20 -2 -2 -3 5 -3 16 0 11 7 20 15 20 12 0 12 -3 3 -16z m112 -76 c0
-7 7 -18 15 -25 8 -7 15 -24 15 -37 0 -18 -4 -24 -15 -19 -9 3 -15 0 -15 -9 0
-8 -4 -15 -8 -15 -10 0 -9 41 1 57 4 6 3 13 -1 15 -5 1 -12 15 -16 30 -5 22
-3 26 9 22 8 -4 15 -12 15 -19z m60 -60 c0 -19 -2 -35 -4 -35 -2 0 -6 16 -8
35 -2 19 0 35 4 35 4 0 8 -16 8 -35z m29 -17 c0 -27 -2 -29 -8 -13 -5 11 -6
26 -4 33 8 21 13 13 12 -20z m150 -52 c-1 -39 -2 -39 -9 -11 -7 29 -9 28 -23
-15 -3 -8 -6 -1 -6 16 -1 19 -7 34 -16 38 -21 8 -19 34 3 39 30 6 52 -22 51
-67z m-99 29 c0 -7 6 -15 12 -17 7 -3 3 -7 -8 -10 -17 -4 -21 -1 -21 23 0 15
4 26 9 23 4 -3 8 -11 8 -19z m-621 -11 c17 -4 31 -10 31 -15 0 -5 -7 -6 -15
-3 -9 4 -15 0 -15 -8 0 -7 -22 -36 -50 -63 -31 -31 -48 -56 -47 -69 2 -18 -4
-21 -36 -23 -27 -1 -35 2 -29 10 10 14 35 117 32 132 -8 37 0 45 49 45 27 0
63 -3 80 -6z m454 -19 c-7 -21 -13 -19 -13 6 0 11 4 18 10 14 5 -3 7 -12 3
-20z m48 2 c-10 -9 -11 -8 -5 6 3 10 9 15 12 12 3 -3 0 -11 -7 -18z m156 -59
c-3 -8 -6 -5 -6 6 -1 11 2 17 5 13 3 -3 4 -12 1 -19z m-1760 -37 c11 -5 1 -10
-31 -14 -45 -7 -80 -1 -72 12 6 10 86 12 103 2z m1049 -25 c-13 -15 -27 -23
-30 -17 -6 8 45 53 52 46 2 -1 -8 -15 -22 -29z m-199 -38 c-3 -8 -6 -5 -6 6
-1 11 2 17 5 13 3 -3 4 -12 1 -19z m-947 -98 c0 -5 -7 -10 -16 -10 -8 0 -12 5
-9 10 3 6 10 10 16 10 5 0 9 -4 9 -10z m918 -2 c10 -10 18 -48 10 -48 -20 1
-127 48 -122 53 12 12 99 8 112 -5z m-862 -17 c-4 -6 -14 -7 -23 -4 -15 6 -14
7 3 13 22 9 29 6 20 -9z m82 12 c-10 -2 -26 -2 -35 0 -10 3 -2 5 17 5 19 0 27
-2 18 -5z m137 -23 c3 -5 1 -10 -4 -10 -6 0 -11 5 -11 10 0 6 2 10 4 10 3 0 8
-4 11 -10z m100 -30 c-3 -5 -12 -10 -18 -10 -7 0 -6 4 3 10 19 12 23 12 15 0z
m330 0 c-3 -5 -12 -10 -18 -10 -7 0 -6 4 3 10 19 12 23 12 15 0z m-55 -20 c0
-5 -2 -10 -4 -10 -3 0 -8 5 -11 10 -3 6 -1 10 4 10 6 0 11 -4 11 -10z m550 5
c0 -2 -17 -11 -37 -21 -76 -33 -88 -38 -95 -42 -5 -2 -8 1 -8 6 0 10 24 21
100 48 19 6 36 12 38 13 1 1 2 -1 2 -4z m-30 -96 c11 -6 7 -9 -15 -9 -56 -1
-61 -17 -9 -28 36 -8 51 -8 56 1 5 9 10 9 19 0 19 -19 10 -22 -78 -28 -45 -2
-93 -9 -107 -15 -43 -16 -30 8 17 29 23 11 35 20 26 21 -9 0 -24 9 -33 19 -17
19 -17 20 6 23 30 5 99 -2 118 -13z m261 1 c1 -5 2 -14 3 -19 0 -5 4 -13 9
-17 13 -13 7 -24 -10 -17 -10 4 -14 2 -10 -4 5 -7 0 -9 -13 -6 -14 4 -17 9
-11 17 7 8 -4 11 -36 11 -29 0 -47 5 -49 13 -1 7 0 8 3 2 3 -7 11 -7 24 0 10
6 19 8 19 5 0 -3 10 1 22 9 26 18 47 21 49 6z m-513 -26 c39 -11 24 -24 -28
-24 -49 0 -68 14 -32 23 26 7 35 7 60 1z m806 -33 c3 -4 -6 -6 -19 -3 -14 2
-25 6 -25 8 0 8 39 4 44 -5z m256 -25 c0 -9 -30 -14 -35 -6 -4 6 3 10 14 10
12 0 21 -2 21 -4z m-865 -16 c3 -5 1 -10 -4 -10 -6 0 -11 5 -11 10 0 6 2 10 4
10 3 0 8 -4 11 -10z m182 -6 c-3 -3 -12 -4 -19 -1 -8 3 -5 6 6 6 11 1 17 -2
13 -5z m123 -58 c0 -3 -4 -8 -10 -11 -5 -3 -10 -1 -10 4 0 6 5 11 10 11 6 0
10 -2 10 -4z m236 -39 c7 -6 -49 -12 -86 -9 -8 1 -38 -3 -66 -9 -56 -11 -84
-5 -84 18 0 11 7 13 28 9 15 -3 43 -2 61 2 37 8 136 1 147 -11z"/>
<path d="M6590 2420 c0 -5 9 -10 20 -10 11 0 20 5 20 10 0 6 -9 10 -20 10 -11
0 -20 -4 -20 -10z"/>
<path d="M6630 2305 c-13 -16 -8 -18 27 -9 13 4 20 10 17 15 -8 14 -30 11 -44
-6z"/>
<path d="M6697 3123 c-10 -9 -8 -33 2 -33 5 0 11 9 14 20 5 20 -3 26 -16 13z"/>
<path d="M8080 3085 c-85 -51 -216 -153 -225 -175 -4 -9 3 -6 17 6 13 12 73
52 133 89 61 38 112 71 115 74 3 3 17 12 33 20 28 15 36 31 15 31 -7 0 -47
-21 -88 -45z"/>
<path d="M6016 3095 c-3 -8 0 -17 6 -21 6 -4 8 -3 4 4 -3 5 -1 12 6 14 8 3 9
6 1 11 -6 4 -13 0 -17 -8z"/>
<path d="M6185 3100 c-3 -5 -1 -10 4 -10 6 0 11 5 11 10 0 6 -2 10 -4 10 -3 0
-8 -4 -11 -10z"/>
<path d="M5760 3097 c0 -2 13 -13 28 -24 l29 -21 -5 24 c-3 17 -11 24 -28 24
-13 0 -24 -1 -24 -3z"/>
<path d="M5830 3070 c0 -12 15 -35 35 -53 19 -17 31 -34 25 -37 -6 -4 -5 -13
5 -26 14 -18 14 -18 15 10 0 18 -14 46 -40 78 -33 42 -40 47 -40 28z"/>
<path d="M6492 3074 c-7 -8 -8 -14 -3 -14 10 0 25 19 20 25 -2 1 -10 -3 -17
-11z"/>
<path d="M5710 3066 c0 -2 9 -6 20 -9 11 -3 20 -1 20 4 0 5 -9 9 -20 9 -11 0
-20 -2 -20 -4z"/>
<path d="M5890 3056 c0 -2 8 -10 18 -17 15 -13 16 -12 3 4 -13 16 -21 21 -21
13z"/>
<path d="M6449 3033 c-13 -16 -12 -17 4 -4 9 7 17 15 17 17 0 8 -8 3 -21 -13z"/>
<path d="M5780 3030 c0 -5 5 -10 10 -10 6 0 10 5 10 10 0 6 -4 10 -10 10 -5 0
-10 -4 -10 -10z"/>
<path d="M6110 3006 c0 -9 5 -16 10 -16 6 0 10 4 10 9 0 6 -4 13 -10 16 -5 3
-10 -1 -10 -9z"/>
<path d="M7406 2954 c-9 -22 -8 -24 9 -18 8 4 15 12 15 20 0 19 -16 18 -24 -2z"/>
<path d="M7307 2953 c-13 -13 -7 -21 13 -16 11 3 20 9 20 14 0 10 -24 12 -33
2z"/>
<path d="M7345 2925 c-17 -13 -25 -24 -20 -24 14 -1 61 37 54 43 -2 3 -18 -6
-34 -19z"/>
<path d="M5880 2931 c0 -5 5 -13 10 -16 6 -3 10 -2 10 4 0 5 -4 13 -10 16 -5
3 -10 2 -10 -4z"/>
<path d="M5920 2926 c0 -9 5 -16 10 -16 6 0 10 4 10 9 0 6 -4 13 -10 16 -5 3
-10 -1 -10 -9z"/>
<path d="M6760 2915 c-7 -8 -9 -15 -6 -15 4 0 14 7 22 15 9 8 11 15 6 15 -5 0
-15 -7 -22 -15z"/>
<path d="M7374 2895 c-10 -8 -14 -15 -8 -15 6 0 17 7 24 15 16 19 9 19 -16 0z"/>
<path d="M7507 2868 c-15 -17 -26 -33 -23 -36 7 -6 65 48 66 61 0 14 -15 5
-43 -25z"/>
<path d="M6697 2853 c-4 -3 -7 -11 -7 -17 0 -6 5 -5 12 2 6 6 9 14 7 17 -3 3
-9 2 -12 -2z"/>
<path d="M7451 2814 c0 -11 3 -14 6 -6 3 7 2 16 -1 19 -3 4 -6 -2 -5 -13z"/>
<path d="M3285 2780 c-3 -5 -1 -10 4 -10 6 0 11 5 11 10 0 6 -2 10 -4 10 -3 0
-8 -4 -11 -10z"/>
<path d="M7001 2754 c-12 -27 -11 -28 4 -12 10 9 16 21 13 28 -2 7 -10 -1 -17
-16z"/>
<path d="M5697 2714 c6 -16 19 -18 27 -5 3 5 -3 11 -13 14 -14 3 -18 1 -14 -9z"/>
<path d="M6152 2660 c0 -14 2 -19 5 -12 2 6 2 18 0 25 -3 6 -5 1 -5 -13z"/>
<path d="M7467 2642 c-86 -47 -144 -97 -200 -170 l-44 -58 55 18 c31 10 59 23
62 28 3 5 35 40 70 78 107 112 134 142 129 142 -2 0 -34 -17 -72 -38z"/>
<path d="M6966 2624 c-4 -10 -1 -14 6 -12 15 5 23 28 10 28 -5 0 -13 -7 -16
-16z"/>
<path d="M6998 2608 c-20 -20 -22 -28 -8 -28 9 0 35 39 28 44 -2 2 -11 -6 -20
-16z"/>
<path d="M6055 2569 c41 -46 59 -57 33 -20 -8 11 -28 30 -44 43 -23 18 -21 14
11 -23z"/>
<path d="M5786 2591 c-4 -7 -5 -15 -2 -18 9 -9 19 4 14 18 -4 11 -6 11 -12 0z"/>
<path d="M7935 2521 c17 -10 34 -16 38 -14 12 7 -25 32 -48 33 -16 0 -14 -4
10 -19z"/>
<path d="M5650 2511 c0 -5 5 -13 10 -16 6 -3 10 -2 10 4 0 5 -4 13 -10 16 -5
3 -10 2 -10 -4z"/>
<path d="M5605 2490 c3 -5 8 -10 11 -10 2 0 4 5 4 10 0 6 -5 10 -11 10 -5 0
-7 -4 -4 -10z"/>
<path d="M6130 2491 c0 -5 7 -12 16 -15 14 -5 15 -4 4 9 -14 17 -20 19 -20 6z"/>
<path d="M6180 2476 c0 -2 7 -7 16 -10 8 -3 12 -2 9 4 -6 10 -25 14 -25 6z"/>
<path d="M5735 2450 c3 -5 11 -10 16 -10 6 0 7 5 4 10 -3 6 -11 10 -16 10 -6
0 -7 -4 -4 -10z"/>
<path d="M6170 2456 c0 -2 7 -9 15 -16 9 -7 15 -8 15 -2 0 5 -7 12 -15 16 -8
3 -15 4 -15 2z"/>
<path d="M6089 2437 c11 -15 11 -17 -1 -17 -8 0 -19 4 -26 10 -8 6 -8 5 1 -5
15 -18 167 -96 167 -85 0 4 -29 22 -64 40 -38 20 -63 39 -62 48 0 8 -6 17 -14
20 -13 5 -13 3 -1 -11z"/>
<path d="M6120 2442 c1 -20 55 -60 67 -49 2 3 -5 8 -16 12 -12 3 -21 12 -21
20 0 7 -7 15 -15 19 -8 3 -15 2 -15 -2z"/>
<path d="M6212 2412 c4 -12 2 -22 -4 -22 -5 0 -6 -5 -3 -11 4 -6 13 -8 20 -5
8 3 16 0 18 -7 2 -7 8 -9 13 -4 4 4 -2 14 -14 23 -12 8 -20 19 -17 24 3 5 0
12 -6 16 -9 5 -10 0 -7 -14z"/>
<path d="M7245 2395 c-22 -13 -36 -25 -31 -25 10 0 76 39 76 46 0 7 -3 5 -45
-21z"/>
<path d="M4540 2349 c0 -5 5 -7 10 -4 6 3 10 8 10 11 0 2 -4 4 -10 4 -5 0 -10
-5 -10 -11z"/>
<path d="M4902 2343 c2 -12 14 -19 38 -21 26 -2 31 0 20 8 -8 5 -10 10 -5 10
18 1 -19 20 -38 20 -12 0 -17 -6 -15 -17z"/>
<path d="M10928 2323 c-39 -10 -13 -43 33 -43 22 0 23 4 9 31 -11 19 -13 20
-42 12z"/>
<path d="M5630 2240 c0 -5 5 -10 11 -10 5 0 7 5 4 10 -3 6 -8 10 -11 10 -2 0
-4 -4 -4 -10z"/>
<path d="M5559 2218 c12 -11 25 -18 28 -15 9 9 -5 24 -28 30 l-21 6 21 -21z"/>
<path d="M6385 2190 c-3 -5 -1 -10 4 -10 6 0 11 5 11 10 0 6 -2 10 -4 10 -3 0
-8 -4 -11 -10z"/>
<path d="M6326 2181 c-3 -5 3 -11 15 -14 16 -4 18 -3 8 9 -13 16 -16 17 -23 5z"/>
<path d="M8140 2174 c0 -8 5 -12 10 -9 6 4 8 11 5 16 -9 14 -15 11 -15 -7z"/>
<path d="M7125 2159 c-11 -17 1 -21 15 -4 8 9 8 15 2 15 -6 0 -14 -5 -17 -11z"/>
<path d="M5575 2150 c3 -5 8 -10 11 -10 2 0 4 5 4 10 0 6 -5 10 -11 10 -5 0
-7 -4 -4 -10z"/>
<path d="M6322 2146 c12 -14 -19 -37 -39 -29 -17 7 -17 6 0 -11 18 -18 19 -18
33 3 18 25 36 28 27 5 -4 -11 -2 -15 6 -13 21 7 17 21 -9 37 -14 9 -22 12 -18
8z"/>
<path d="M6397 2136 c-3 -8 2 -16 14 -19 17 -5 18 -3 7 11 -7 9 -13 18 -14 20
-1 2 -4 -4 -7 -12z"/>
<path d="M8750 2140 c0 -5 -7 -10 -15 -10 -8 0 -19 -8 -24 -19 -9 -17 -7 -18
22 -15 18 1 34 3 37 4 3 0 -2 5 -10 11 -11 8 -12 12 -2 16 14 6 16 23 2 23 -5
0 -10 -4 -10 -10z"/>
<path d="M6520 2131 c0 -5 7 -12 16 -15 14 -5 15 -4 4 9 -14 17 -20 19 -20 6z"/>
<path d="M7078 2133 c7 -3 16 -2 19 1 4 3 -2 6 -13 5 -11 0 -14 -3 -6 -6z"/>
<path d="M5620 2110 c33 -26 50 -26 22 0 -12 11 -27 20 -34 20 -7 0 -2 -9 12
-20z"/>
<path d="M6454 2110 c-12 -5 -25 -13 -29 -19 -3 -6 -10 -9 -15 -6 -5 3 -11 1
-15 -5 -13 -20 33 -9 61 15 31 27 31 29 -2 15z"/>
<path d="M8140 2100 c0 -5 5 -10 10 -10 6 0 10 5 10 10 0 6 -4 10 -10 10 -5 0
-10 -4 -10 -10z"/>
<path d="M6235 2090 c-3 -5 -2 -10 4 -10 5 0 13 5 16 10 3 6 2 10 -4 10 -5 0
-13 -4 -16 -10z"/>
<path d="M6450 2060 c0 -5 5 -10 11 -10 5 0 7 5 4 10 -3 6 -8 10 -11 10 -2 0
-4 -4 -4 -10z"/>
<path d="M6360 2050 c0 -5 5 -10 10 -10 6 0 10 5 10 10 0 6 -4 10 -10 10 -5 0
-10 -4 -10 -10z"/>
<path d="M5361 2041 c-9 -6 -6 -10 10 -14 28 -8 34 -3 16 11 -7 6 -19 7 -26 3z"/>
<path d="M5498 1993 c7 -3 16 -2 19 1 4 3 -2 6 -13 5 -11 0 -14 -3 -6 -6z"/>
<path d="M5296 1982 c-3 -6 -1 -14 5 -17 14 -9 20 -2 10 14 -6 8 -11 9 -15 3z"/>
<path d="M10965 1944 c24 -18 63 -29 72 -20 11 11 -31 35 -62 35 -29 0 -29 0
-10 -15z"/>
<path d="M5338 1943 c-10 -2 -18 -8 -18 -11 0 -11 79 -2 86 9 5 9 -37 10 -68
2z"/>
<path d="M5415 1920 c-8 -13 5 -13 25 0 13 8 13 10 -2 10 -9 0 -20 -4 -23 -10z"/>
<path d="M6355 1900 c-3 -5 -1 -10 4 -10 6 0 11 5 11 10 0 6 -2 10 -4 10 -3 0
-8 -4 -11 -10z"/>
<path d="M6400 1898 c0 -9 5 -20 11 -24 8 -4 7 -9 -2 -15 -7 -4 -10 -11 -6
-16 5 -4 12 -1 16 6 5 7 13 11 19 7 5 -3 16 2 23 11 12 14 11 15 -8 9 -16 -5
-25 -1 -37 16 -13 17 -16 19 -16 6z"/>
<path d="M8890 1900 c0 -5 4 -10 9 -10 6 0 13 5 16 10 3 6 -1 10 -9 10 -9 0
-16 -4 -16 -10z"/>
<path d="M8866 1863 c-3 -10 -9 -24 -12 -30 -8 -18 21 -16 57 3 25 12 28 18
18 30 -16 20 -55 18 -63 -3z"/>
<path d="M5420 1860 c-8 -5 -12 -11 -9 -14 3 -3 14 1 25 9 21 16 8 20 -16 5z"/>
<path d="M8968 1863 c6 -2 18 -2 25 0 6 3 1 5 -13 5 -14 0 -19 -2 -12 -5z"/>
<path d="M11035 1860 c-5 -7 -20 -9 -40 -6 -19 4 -36 2 -40 -4 -3 -5 -3 -10 2
-10 4 0 36 -3 71 -5 56 -4 63 -2 60 13 -4 20 -43 28 -53 12z"/>
<path d="M10898 1833 c6 -2 18 -2 25 0 6 3 1 5 -13 5 -14 0 -19 -2 -12 -5z"/>
<path d="M6370 1790 c0 -5 5 -10 11 -10 5 0 7 5 4 10 -3 6 -8 10 -11 10 -2 0
-4 -4 -4 -10z"/>
<path d="M7935 1793 c15 -16 102 -26 110 -13 4 6 -8 10 -32 10 -21 0 -49 3
-63 6 -17 5 -22 3 -15 -3z"/>
<path d="M7855 1770 c3 -5 8 -10 11 -10 2 0 4 5 4 10 0 6 -5 10 -11 10 -5 0
-7 -4 -4 -10z"/>
<path d="M5597 1752 c-19 -21 -22 -32 -8 -32 5 0 16 11 25 25 19 29 7 34 -17
7z"/>
<path d="M10910 1753 c8 -4 22 -16 32 -27 l17 -21 1 21 c0 14 -8 24 -22 28
-28 7 -48 6 -28 -1z"/>
<path d="M7825 1700 c-3 -5 -1 -10 4 -10 6 0 11 5 11 10 0 6 -2 10 -4 10 -3 0
-8 -4 -11 -10z"/>
<path d="M10660 1680 c0 -5 5 -10 11 -10 5 0 7 5 4 10 -3 6 -8 10 -11 10 -2 0
-4 -4 -4 -10z"/>
<path d="M7870 1650 c0 -5 4 -10 9 -10 6 0 13 5 16 10 3 6 -1 10 -9 10 -9 0
-16 -4 -16 -10z"/>
<path d="M8435 1640 c-3 -5 3 -10 14 -10 12 0 21 5 21 10 0 6 -6 10 -14 10 -8
0 -18 -4 -21 -10z"/>
<path d="M8542 1638 c-7 -7 -12 -17 -12 -24 0 -18 -77 -29 -95 -14 -12 10 -15
9 -15 -9 0 -11 6 -21 14 -21 7 0 16 -9 19 -20 9 -36 57 -25 130 32 41 33 47
48 18 48 -11 0 -23 5 -26 10 -8 13 -18 13 -33 -2z"/>
<path d="M4990 1629 c0 -5 4 -9 9 -9 5 0 16 -3 25 -6 9 -3 16 -2 16 4 0 5 -11
12 -25 14 -14 3 -25 1 -25 -3z"/>
<path d="M7300 1620 c0 -5 7 -10 16 -10 8 0 12 5 9 10 -3 6 -10 10 -16 10 -5
0 -9 -4 -9 -10z"/>
<path d="M10783 1583 c-10 -4 -10 -10 -2 -25 9 -16 17 -19 42 -14 18 3 50 8
71 11 46 6 56 13 36 26 -15 9 -122 10 -147 2z"/>
<path d="M5010 1564 c0 -11 6 -14 23 -9 38 12 43 25 9 25 -22 0 -32 -5 -32
-16z"/>
<path d="M10565 1570 c3 -5 11 -10 16 -10 6 0 7 5 4 10 -3 6 -11 10 -16 10 -6
0 -7 -4 -4 -10z"/>
<path d="M10688 1563 c6 -2 18 -2 25 0 6 3 1 5 -13 5 -14 0 -19 -2 -12 -5z"/>
<path d="M8410 1500 c0 -5 7 -10 15 -10 8 0 15 5 15 10 0 6 -7 10 -15 10 -8 0
-15 -4 -15 -10z"/>
<path d="M10968 1488 c12 -12 24 -19 28 -15 10 10 -16 37 -34 37 -13 0 -12 -4
6 -22z"/>
<path d="M10758 1493 c6 -2 18 -2 25 0 6 3 1 5 -13 5 -14 0 -19 -2 -12 -5z"/>
<path d="M4763 1481 c-30 -6 -31 -7 -17 -26 14 -19 16 -19 45 -2 17 9 37 17
44 17 8 0 17 5 20 10 7 11 -39 11 -92 1z"/>
<path d="M10848 1483 c7 -3 16 -2 19 1 4 3 -2 6 -13 5 -11 0 -14 -3 -6 -6z"/>
<path d="M11035 1479 c-11 -16 3 -23 19 -10 8 7 20 10 26 6 5 -3 10 -1 10 4 0
14 -47 14 -55 0z"/>
<path d="M4050 1468 c0 -5 -4 -6 -10 -3 -5 3 -10 -1 -10 -9 0 -25 21 -29 42
-9 20 20 20 20 -1 26 -12 3 -21 1 -21 -5z"/>
<path d="M10625 1471 c3 -5 0 -11 -7 -13 -6 -2 4 -11 23 -20 27 -13 43 -14 79
-6 25 5 68 9 95 9 37 0 45 2 30 9 -28 12 -83 12 -90 0 -4 -7 -19 -4 -41 10
-42 24 -51 25 -34 5 10 -13 9 -15 -9 -15 -11 0 -21 4 -21 9 0 5 -7 12 -16 15
-8 3 -13 2 -9 -3z"/>
<path d="M2463 1453 c-26 -10 -12 -20 25 -17 72 4 69 3 52 14 -16 10 -56 12
-77 3z"/>
<path d="M3146 1435 c-3 -9 1 -18 10 -22 19 -7 39 11 30 26 -10 16 -33 13 -40
-4z"/>
<path d="M4077 1444 c-14 -14 -6 -24 19 -24 16 0 24 5 22 13 -5 14 -31 21 -41
11z"/>
<path d="M10890 1438 c0 -4 5 -8 12 -8 6 0 31 -9 55 -21 33 -16 42 -25 38 -39
-7 -21 33 -32 74 -20 l26 8 -30 2 -30 2 28 10 c21 7 27 16 27 39 0 32 6 31
-122 33 -43 1 -78 -2 -78 -6z"/>
<path d="M4333 1405 c-4 -11 -10 -12 -25 -4 -12 7 -47 8 -96 3 -65 -6 -72 -8
-47 -15 57 -16 248 -19 275 -4 l25 13 -25 6 c-71 14 -101 15 -107 1z"/>
<path d="M10638 1391 c31 -31 105 -48 191 -45 73 3 120 -7 132 -28 4 -6 21
-12 38 -13 47 -4 22 20 -37 35 -26 6 -56 20 -68 31 -22 21 -122 40 -110 21 3
-6 2 -13 -3 -16 -5 -3 -11 1 -15 9 -6 17 -46 21 -46 5 0 -7 -7 -7 -20 0 -11 6
-25 8 -30 5 -5 -3 -20 -1 -32 6 l-23 11 23 -21z"/>
<path d="M4000 1389 c0 -5 5 -7 10 -4 6 3 10 8 10 11 0 2 -4 4 -10 4 -5 0 -10
-5 -10 -11z"/>
<path d="M8302 1385 c-7 -8 -22 -15 -32 -15 -20 0 -26 -11 -14 -23 10 -10 64
22 64 38 0 18 -2 18 -18 0z"/>
<path d="M10507 1389 c7 -7 15 -10 18 -7 3 3 -2 9 -12 12 -14 6 -15 5 -6 -5z"/>
<path d="M4100 1380 c0 -5 12 -10 28 -9 24 0 25 1 7 9 -27 12 -35 12 -35 0z"/>
<path d="M10924 1375 c11 -8 25 -15 30 -15 6 0 2 7 -8 15 -11 8 -25 15 -30 15
-6 0 -2 -7 8 -15z"/>
<path d="M10575 1370 c3 -5 8 -10 11 -10 2 0 4 5 4 10 0 6 -5 10 -11 10 -5 0
-7 -4 -4 -10z"/>
<path d="M4570 1359 c0 -5 5 -7 10 -4 6 3 10 8 10 11 0 2 -4 4 -10 4 -5 0 -10
-5 -10 -11z"/>
<path d="M10090 1365 c0 -2 10 -10 23 -16 20 -11 21 -11 8 4 -13 16 -31 23
-31 12z"/>
<path d="M3508 1353 c7 -3 16 -2 19 1 4 3 -2 6 -13 5 -11 0 -14 -3 -6 -6z"/>
<path d="M3568 1353 c7 -3 16 -2 19 1 4 3 -2 6 -13 5 -11 0 -14 -3 -6 -6z"/>
<path d="M10611 1346 c-10 -11 -7 -15 16 -19 39 -7 63 -5 63 5 0 5 -6 8 -12 6
-7 -1 -23 3 -34 10 -18 9 -24 9 -33 -2z"/>
<path d="M2632 1338 c-6 -6 -23 -13 -38 -14 -31 -3 -72 -38 -56 -48 6 -3 17 1
25 9 9 8 30 15 47 15 31 0 60 19 60 39 0 15 -23 14 -38 -1z"/>
<path d="M8456 1343 c5 -5 12 -12 16 -18 4 -6 8 -2 8 8 0 9 -7 17 -17 17 -9 0
-12 -3 -7 -7z"/>
<path d="M8507 1336 c-12 -31 6 -77 44 -113 22 -21 39 -43 39 -50 0 -7 13 -27
29 -45 35 -41 60 -112 65 -187 2 -31 7 -63 10 -71 4 -10 -5 -29 -24 -50 -23
-26 -30 -43 -30 -76 0 -41 -16 -103 -43 -166 -10 -25 -16 -27 -44 -22 -33 6
-33 6 -33 -35 0 -43 -9 -51 -30 -26 -7 8 -18 15 -26 15 -19 0 -29 21 -13 31
11 6 9 13 -9 32 -13 13 -22 36 -22 54 0 17 -7 36 -15 43 -8 7 -15 19 -15 26 0
8 -10 16 -22 18 -111 23 -190 36 -198 31 -22 -14 -160 111 -160 146 0 12 -7
19 -19 19 -23 0 -36 16 -21 25 16 10 12 25 -5 19 -8 -4 -15 -2 -15 4 0 12 50
62 61 62 5 0 9 8 9 19 0 20 43 35 93 31 15 -1 27 3 27 9 0 6 12 17 26 23 25
12 92 68 81 68 -3 0 -17 -4 -31 -10 -20 -7 -26 -6 -26 4 0 21 -31 28 -50 11
-15 -14 -18 -14 -30 0 -16 19 -54 20 -47 1 3 -8 -3 -22 -14 -32 -10 -9 -19
-22 -19 -29 0 -21 -25 -65 -37 -65 -6 0 -21 -13 -33 -30 -12 -16 -32 -33 -45
-36 -14 -3 -25 -15 -27 -27 -2 -13 -11 -23 -24 -25 -11 -2 -28 -17 -38 -33
-13 -22 -24 -29 -37 -26 -10 3 -22 1 -25 -4 -3 -5 -16 -6 -30 -3 -18 5 -24 2
-24 -9 0 -20 -16 -30 -32 -20 -7 4 -17 8 -23 9 -5 0 -16 2 -24 2 -11 2 -11 5
-1 17 7 9 8 15 2 15 -5 0 -12 -6 -15 -14 -11 -29 -67 1 -67 35 0 11 -4 19 -10
19 -5 0 -10 -9 -10 -20 0 -31 -18 -23 -34 15 -10 24 -21 35 -36 35 -15 0 -22
8 -26 30 -7 33 -49 68 -57 47 -2 -6 0 -20 4 -29 6 -10 5 -27 -2 -42 -13 -29
-33 -25 -24 5 9 26 -10 24 -30 -3 -14 -21 -14 -24 1 -35 9 -7 21 -14 27 -16 5
-1 11 -18 13 -37 5 -59 15 -81 34 -75 13 4 19 -4 28 -34 7 -21 12 -43 12 -50
0 -18 -31 -13 -36 7 -4 14 -17 17 -75 17 l-69 0 0 -36 c0 -20 -7 -42 -15 -49
-8 -7 -15 -24 -15 -37 0 -20 -4 -24 -19 -20 -13 3 -22 -3 -30 -20 -15 -32 -14
-35 7 -31 22 4 29 -14 10 -26 -19 -11 -124 38 -139 65 -5 11 -18 19 -27 19
-14 0 -21 14 -31 60 -8 33 -18 63 -23 66 -5 3 -6 18 -3 33 7 32 -22 65 -52 59
-14 -3 -18 -14 -20 -56 -1 -34 4 -57 13 -66 16 -17 19 -36 4 -36 -20 0 -29
-36 -19 -80 12 -52 2 -62 -51 -54 -19 2 -43 5 -54 5 -10 0 -20 9 -23 20 -3 12
-14 19 -28 19 -18 0 -22 4 -18 19 4 17 -1 19 -46 18 -52 -2 -65 -10 -33 -21 9
-3 24 -10 32 -15 8 -5 27 -14 43 -22 33 -15 36 -29 5 -21 -21 5 -22 4 -9 -11
11 -14 11 -17 0 -18 -8 0 -68 -2 -134 -3 -127 -3 -202 -15 -197 -31 1 -6 -9
-11 -23 -13 -14 -2 -25 -8 -25 -13 0 -5 -5 -9 -11 -9 -15 0 -2 50 18 73 9 9
22 17 29 17 7 0 24 4 39 10 l25 10 -20 20 c-21 21 -41 25 -54 13 -4 -4 -22 -6
-39 -5 -32 3 -68 -2 -232 -33 -100 -18 -97 -18 -91 3 5 16 -1 17 -62 17 -37
-1 -81 4 -98 11 -38 15 -123 7 -146 -14 -18 -15 -118 -28 -118 -14 0 15 31 52
44 52 6 0 17 5 24 12 9 9 2 15 -35 24 -28 7 -49 9 -51 3 -5 -14 -22 -11 -22 4
0 9 -10 12 -31 9 -22 -3 -27 -8 -20 -15 15 -15 14 -32 -1 -20 -17 13 -169 14
-184 2 -14 -12 -74 -30 -74 -23 0 3 5 14 11 26 12 23 5 35 -13 21 -7 -6 -29
-13 -48 -16 -34 -6 -34 -6 -8 5 31 13 49 44 21 35 -63 -20 -66 -20 -58 -7 6
10 -1 12 -36 6 -24 -3 -69 -9 -99 -11 l-55 -5 57 23 c72 28 85 42 33 33 -73
-13 -106 -12 -101 1 6 16 -10 27 -19 13 -5 -8 -11 -7 -21 1 -13 10 -14 8 -10
-15 4 -23 2 -27 -12 -21 -39 16 -55 16 -128 0 -41 -9 -87 -14 -101 -10 l-26 6
27 28 c22 23 46 32 136 51 61 13 110 27 110 32 0 4 -9 8 -20 8 -11 0 -23 7
-26 15 -4 8 -14 15 -23 15 -9 0 -21 10 -26 22 -11 24 -61 41 -104 35 l-26 -3
24 -11 25 -10 -27 -18 c-33 -21 -34 -31 -4 -40 21 -6 21 -7 -8 -16 -16 -5 -60
-7 -97 -3 -39 3 -68 2 -68 -3 0 -5 -37 -18 -82 -28 -119 -28 -151 -26 -113 5
8 7 13 16 10 20 -3 5 5 11 17 13 20 4 19 4 -4 6 -18 1 -28 -4 -28 -13 0 -8
-15 -17 -36 -20 -19 -4 -43 -9 -52 -12 -9 -3 -6 2 8 10 14 8 33 15 43 16 9 0
17 5 17 10 0 13 -180 4 -212 -10 -23 -10 -23 -10 2 -6 24 5 24 4 6 -9 -25 -19
-13 -19 27 -1 43 19 77 26 77 16 0 -5 -16 -12 -35 -16 -19 -3 -35 -10 -35 -14
0 -16 -43 -18 -74 -3 -30 14 -36 14 -66 -2 -31 -16 -33 -16 -26 0 5 14 2 16
-19 11 -14 -4 -25 -2 -25 4 0 5 16 10 36 10 21 0 47 8 61 20 14 11 21 20 15
20 -6 0 -13 -4 -16 -9 -3 -4 -31 -9 -63 -9 -53 -2 -203 -40 -158 -41 31 -1 4
-19 -35 -23 -41 -4 -49 17 -16 44 11 9 18 19 14 23 -19 20 -257 13 -377 -11
-25 -5 -32 -4 -27 4 4 7 15 12 25 12 14 0 18 7 17 30 -1 25 -5 30 -26 30 -18
0 -21 -3 -11 -9 9 -6 4 -10 -18 -13 -17 -3 -33 -2 -36 1 -8 7 -104 1 -145 -9
-19 -5 -60 -12 -90 -15 l-55 -6 33 22 c32 21 33 22 12 36 -16 12 -27 12 -52 4
-37 -13 -41 -13 -35 -4 3 5 -16 7 -41 6 -26 -1 -47 -2 -47 -3 0 -1 -16 -3 -35
-6 -19 -2 -48 -9 -64 -14 -16 -6 -31 -10 -32 -10 -11 0 -1 19 26 47 25 27 27
32 12 38 -14 5 -14 7 -2 16 11 7 6 8 -15 3 -17 -3 -25 -2 -18 3 6 4 -34 9 -93
11 -63 2 -104 -1 -104 -6 0 -6 8 -8 18 -6 9 3 35 1 57 -5 l40 -9 -44 -1 c-37
-1 -42 -3 -31 -16 14 -17 7 -19 -19 -6 -12 7 -31 5 -57 -4 -21 -8 -64 -14 -94
-14 l-55 -1 25 20 c14 11 21 20 16 20 -4 0 2 8 14 18 l23 19 -54 2 c-29 1 -58
6 -63 11 -25 25 -119 8 -154 -27 -16 -16 -32 -17 -32 -3 0 7 -6 7 -19 0 -38
-20 -30 7 11 38 l41 31 -27 11 c-35 13 -141 13 -184 0 -17 -5 -46 -14 -64 -20
-51 -16 -16 12 40 32 l47 16 -72 -2 c-40 -2 -73 1 -73 5 0 5 -7 9 -15 9 -8 0
-15 -4 -15 -10 0 -5 -7 -10 -15 -10 -8 0 -15 -5 -15 -11 0 -8 -5 -8 -15 1 -10
8 -32 10 -65 7 -34 -4 -52 -2 -57 7 -19 30 -233 56 -251 30 -4 -6 -23 -15 -42
-20 -19 -6 -34 -15 -33 -21 1 -5 -5 -10 -13 -10 -16 0 -19 33 -4 42 12 8 13
35 1 35 -5 0 -12 -11 -15 -25 -4 -14 -11 -25 -16 -25 -6 0 -10 -6 -10 -12 0
-7 -12 -24 -27 -38 -15 -14 -23 -19 -19 -12 10 17 -2 52 -19 52 -7 0 -16 7
-19 16 -5 12 -16 15 -41 12 -35 -4 -48 8 -20 18 8 4 15 14 15 24 0 10 10 24
22 33 l23 14 -30 3 c-95 9 -175 4 -187 -11 -14 -18 -69 -39 -101 -39 -14 0
-18 5 -14 20 6 25 -12 31 -40 13 -12 -8 -27 -11 -34 -7 -9 5 -10 -3 -5 -30 4
-22 3 -36 -3 -36 -8 0 -24 51 -26 84 0 5 -6 11 -14 14 -8 3 -11 0 -7 -7 4 -6
-4 -15 -21 -22 -15 -6 -40 -17 -55 -25 -35 -18 -36 -18 -31 10 3 16 -3 32 -18
47 -18 18 -25 20 -41 10 -10 -6 -22 -10 -26 -7 -4 2 -30 0 -57 -6 -90 -17
-127 -18 -121 -2 3 9 -1 14 -12 15 -9 0 -34 2 -56 4 -21 2 -36 2 -32 -2 3 -3
-4 -11 -17 -18 -12 -6 -33 -18 -46 -26 -18 -11 -25 -11 -28 -1 -3 6 -14 12
-25 12 -11 0 -22 8 -25 20 -3 11 -9 18 -13 15 -5 -3 -11 -1 -15 5 -3 5 -1 10
6 10 7 0 10 2 8 4 -3 3 -24 0 -47 -6 l-42 -10 0 -109 c0 -59 4 -110 10 -114 5
-3 37 -8 72 -10 35 -3 94 -12 132 -20 63 -13 209 -32 326 -41 81 -7 110 -12
123 -22 13 -11 74 -19 200 -26 62 -4 82 -9 96 -25 14 -16 28 -19 77 -18 32 1
65 7 72 14 20 20 35 16 29 -8 -3 -13 -1 -19 6 -16 7 3 11 8 10 13 -1 5 23 9
53 9 30 0 54 -4 54 -9 0 -5 24 -6 53 -2 45 5 50 4 35 -8 -26 -20 -22 -26 18
-26 21 0 33 -4 29 -10 -8 -12 17 -12 69 0 33 7 42 6 54 -8 7 -9 11 -12 8 -6
-4 7 3 12 17 12 12 1 36 4 54 7 25 6 31 4 30 -10 -2 -15 11 -18 92 -20 95 -4
116 -9 92 -25 -9 -5 0 -8 25 -8 21 0 44 4 49 8 14 11 73 14 113 5 22 -5 29
-11 21 -16 -7 -4 20 -6 59 -4 53 3 72 1 72 -8 0 -8 18 -13 52 -15 29 -1 56 -6
61 -11 9 -9 47 -3 47 8 0 4 34 7 75 6 41 0 75 -4 75 -9 0 -5 20 -6 45 -3 29 4
45 3 45 -4 0 -7 12 -8 32 -3 30 6 31 5 19 -10 -13 -15 -11 -17 22 -14 19 1 42
-4 50 -11 12 -9 29 -10 66 -3 29 5 54 6 57 1 3 -5 20 -7 39 -4 19 2 37 0 40
-5 3 -4 14 -6 25 -3 12 3 20 0 20 -7 0 -9 10 -11 30 -6 19 3 30 1 30 -5 0 -7
10 -9 28 -4 15 4 47 9 71 12 42 5 44 4 39 -19 -4 -21 -2 -24 24 -20 15 2 28
11 28 18 0 8 5 14 11 14 5 0 7 -5 4 -10 -3 -6 3 -10 14 -10 12 0 21 -5 21 -10
0 -6 11 -8 25 -4 15 4 25 2 25 -5 0 -17 33 -12 60 9 14 11 36 20 50 20 l25 0
-25 -21 c-21 -17 -21 -20 -5 -14 40 13 116 27 121 22 3 -3 -9 -8 -27 -12 -21
-5 -27 -10 -19 -15 7 -4 25 -4 41 0 15 5 30 6 33 3 3 -3 12 0 21 7 11 9 36 10
95 5 93 -8 102 -26 26 -50 -10 -3 -17 -7 -15 -9 2 -3 31 2 64 11 33 8 71 15
85 15 14 -1 51 -1 83 -1 31 -1 57 -5 57 -11 0 -5 18 -10 40 -10 22 0 40 -4 40
-10 0 -5 11 -10 24 -10 13 0 26 -6 29 -14 6 -14 23 -12 94 9 15 5 28 2 38 -9
18 -17 40 -22 30 -7 -10 17 14 23 70 16 33 -5 52 -11 48 -17 -4 -7 16 -9 56
-6 33 2 61 0 61 -5 0 -5 14 -5 31 -2 29 7 31 5 26 -14 -5 -20 -2 -20 54 -14
51 5 59 4 59 -11 0 -13 5 -16 21 -11 34 11 137 7 157 -6 15 -9 34 -9 83 0 58
12 64 11 76 -5 11 -16 17 -16 33 -6 22 14 40 16 40 4 0 -4 -14 -13 -30 -20
-41 -19 -27 -35 24 -28 22 4 55 8 71 9 17 2 40 7 52 11 15 5 24 2 31 -10 7
-13 18 -16 46 -11 20 3 36 2 36 -2 0 -5 34 -7 75 -6 41 2 75 1 75 -1 0 -3 -21
-18 -47 -35 l-48 -30 60 5 c33 2 75 11 92 21 18 9 38 13 44 10 7 -5 2 -12 -12
-19 -34 -17 -38 -39 -4 -26 34 13 55 13 55 0 0 -5 -7 -10 -15 -10 -8 0 -15 -4
-15 -10 0 -14 18 -13 90 6 72 18 97 14 55 -9 -38 -21 -23 -21 45 -1 44 13 57
14 77 3 21 -11 29 -10 59 6 26 14 37 16 46 7 8 -8 7 -13 -8 -18 -10 -3 -30
-11 -43 -17 -24 -12 -24 -12 8 -15 19 -2 40 3 49 12 23 20 68 30 76 17 4 -6
16 -11 26 -11 11 0 34 -9 52 -20 30 -18 34 -18 56 -4 26 17 38 13 29 -11 -4
-8 -16 -15 -27 -15 -11 0 -20 -7 -20 -15 0 -8 -9 -15 -19 -15 -24 0 -32 -12
-21 -29 4 -8 17 -12 29 -8 27 7 47 -16 27 -32 -10 -8 -16 -9 -21 -1 -10 17
-25 11 -25 -10 0 -11 -7 -23 -15 -26 -8 -4 -12 -10 -10 -15 7 -10 75 -9 75 2
0 4 18 16 40 28 22 11 40 17 40 11 0 -5 -4 -12 -10 -15 -5 -3 -10 -13 -10 -21
0 -12 257 -14 1935 -14 1787 0 1936 1 1942 16 9 23 -18 41 -83 55 -57 13 -131
5 -255 -27 -74 -19 -89 -18 -89 6 0 10 -10 25 -22 31 -13 6 -31 20 -41 30 -18
19 -63 27 -53 10 11 -18 -21 -27 -99 -29 -44 -1 -101 -5 -127 -8 l-46 -6 4 40
c3 32 0 41 -19 50 -27 14 -280 10 -317 -5 -14 -6 -44 -13 -67 -17 -35 -5 -43
-3 -43 9 0 8 -5 15 -10 15 -6 0 -24 10 -39 21 -24 17 -51 23 -148 29 -65 5
-136 6 -158 4 -68 -8 -125 2 -125 22 0 7 -16 16 -37 19 -57 10 -73 15 -73 25
0 9 17 15 71 24 47 8 138 -10 162 -31 18 -17 19 -17 32 1 11 15 21 17 51 11
32 -6 36 -4 26 8 -7 7 -30 22 -52 32 -41 18 -48 29 -30 40 15 9 -8 35 -31 35
-22 0 -31 13 -23 34 13 34 104 11 104 -26 0 -38 16 -51 69 -56 61 -5 70 12 11
22 -22 3 -40 9 -40 12 0 12 36 42 55 46 11 2 20 10 20 18 0 8 -9 15 -20 16
-40 2 -46 4 -40 13 3 6 26 13 52 17 36 5 48 3 54 -9 7 -11 25 -16 65 -16 l56
0 -23 25 c-12 13 -31 24 -41 24 -18 0 -18 1 -4 16 23 23 119 1 141 -33 16 -25
58 -31 85 -13 13 9 12 13 -7 29 -24 20 -21 33 5 24 11 -5 14 -2 9 10 -5 15 -2
16 21 10 15 -3 45 -14 67 -24 46 -21 91 -24 132 -8 15 6 49 11 74 11 36 1 46
4 45 17 0 9 5 15 13 13 7 -1 28 2 47 8 27 9 38 8 56 -4 12 -9 33 -16 47 -16
30 0 20 11 -22 26 -35 12 -48 34 -20 34 30 0 34 10 17 41 -8 16 -11 29 -7 29
4 0 -3 7 -16 16 -19 14 -29 15 -61 5 -52 -15 -66 -15 -51 3 10 11 8 16 -9 21
-12 4 -27 2 -34 -4 -10 -8 -17 -6 -30 8 -14 15 -15 23 -5 45 15 32 44 41 83
26 15 -5 32 -8 37 -4 5 3 9 1 9 -4 0 -5 14 -12 31 -16 33 -6 99 -67 99 -92 0
-9 10 -14 28 -13 15 0 21 3 15 6 -22 8 -14 21 17 28 39 8 38 18 -2 30 -34 11
-50 35 -23 35 9 0 13 5 10 10 -3 6 -21 10 -40 10 -19 0 -36 3 -39 8 -2 4 14 7
36 7 27 0 43 6 49 17 11 20 60 17 127 -9 32 -12 46 -13 54 -5 7 7 20 12 30 12
26 0 22 19 -6 26 -14 3 -33 15 -42 26 -18 19 -18 19 9 13 15 -4 35 -4 44 0 15
6 13 9 -12 20 l-30 13 25 7 c48 12 173 0 203 -19 15 -11 26 -21 23 -23 -3 -3
6 -15 20 -28 23 -21 64 -24 64 -5 0 5 9 6 20 3 11 -3 27 -2 36 1 14 5 14 9 3
24 -13 15 -12 16 3 4 19 -15 80 -23 72 -10 -3 4 -12 8 -20 8 -8 0 -14 5 -14
10 0 6 -28 24 -62 40 -35 17 -54 30 -44 30 11 0 16 3 12 7 -10 11 -36 12 -36
2 0 -19 -21 -8 -31 17 -11 31 -5 42 15 25 8 -7 17 -8 20 -3 8 14 -41 44 -78
47 -17 2 -44 10 -61 19 -16 9 -34 16 -40 16 -5 1 -25 14 -44 30 -19 16 -37 27
-39 25 -8 -7 30 -45 38 -40 7 4 20 -17 20 -31 0 -2 -18 6 -40 17 -23 12 -43
20 -45 18 -13 -14 73 -79 107 -80 17 -1 13 -4 -13 -11 -30 -8 -45 -6 -80 11
-23 12 -44 21 -47 21 -2 0 7 -15 19 -32 l23 -33 -25 23 c-14 12 -32 22 -40 22
-8 0 -30 11 -49 25 -40 30 -47 26 -27 -14 22 -44 5 -38 -20 7 -12 20 -38 53
-58 72 -35 33 -37 33 -30 10 7 -23 7 -24 -10 -10 -18 14 -18 14 -1 -11 12 -20
14 -32 7 -52 -5 -14 -7 -28 -3 -32 4 -4 -5 -5 -20 -1 -23 5 -26 4 -21 -11 5
-14 0 -12 -20 6 -22 20 -27 21 -27 8 0 -9 16 -27 35 -39 19 -13 35 -27 35 -32
0 -9 -18 3 -64 43 -22 19 -27 22 -23 9 4 -10 2 -28 -3 -40 -7 -18 -9 -19 -9
-5 -1 9 -8 17 -17 17 -11 0 -14 -5 -9 -17 15 -37 17 -48 5 -30 -6 9 -20 17
-30 17 -23 0 -26 -10 -8 -28 21 -21 -1 -26 -43 -9 -40 16 -41 16 -36 -3 8 -32
-9 -23 -33 18 -14 22 -25 32 -27 24 -3 -7 7 -31 21 -52 38 -57 32 -61 -10 -6
-21 28 -34 55 -31 65 2 10 -2 29 -9 42 -7 13 -13 41 -14 62 l0 38 35 -7 c34
-6 49 6 25 21 -20 12 -10 25 19 25 17 0 33 4 36 10 9 15 -22 67 -45 73 -24 6
-25 1 -5 -19 8 -9 15 -19 15 -24 0 -13 -37 0 -56 21 -9 10 -23 19 -31 19 -7 0
-13 11 -13 25 0 18 -7 28 -27 36 -32 12 -42 3 -48 -42 -16 -120 -21 -133 -68
-184 -26 -27 -47 -53 -47 -57 0 -5 -4 -8 -10 -8 -5 0 -10 7 -10 15 0 8 -6 15
-14 15 -25 0 -28 -18 -6 -30 16 -8 19 -17 14 -33 -11 -37 -45 -68 -67 -61 -11
3 -23 1 -27 -6 -11 -18 -30 -3 -30 25 0 15 -11 33 -30 47 -18 13 -30 31 -30
44 0 36 -16 66 -65 118 -25 28 -45 56 -45 63 0 7 -4 13 -9 13 -5 0 -12 16 -15
35 -4 20 -13 35 -20 35 -8 0 -23 14 -34 31 -15 24 -20 28 -25 15z m643 -161
c11 -13 10 -14 -4 -9 -9 3 -16 10 -16 15 0 13 6 11 20 -6z m-8683 -51 c-9 -9
-28 6 -21 18 4 6 10 6 17 -1 6 -6 8 -13 4 -17z m7671 -2 c3 -21 2 -22 -20 -10
-13 7 -25 14 -27 15 -1 1 0 7 4 13 11 18 40 6 43 -18z m-7477 -45 c-29 -30
-39 -12 -10 19 14 15 25 20 27 14 3 -7 -5 -21 -17 -33z m847 -32 c2 -18 1 -18
-10 -4 -7 9 -19 14 -25 12 -7 -3 -13 0 -13 5 0 19 45 7 48 -13z m8452 -15 c5
0 14 -9 20 -20 7 -14 7 -20 0 -20 -5 0 -10 7 -10 15 0 9 -9 15 -25 15 -14 0
-25 5 -25 11 0 6 7 8 16 5 9 -3 20 -6 24 -6z m-7190 -130 c-19 -13 -30 -13
-30 0 0 6 10 10 23 10 18 0 19 -2 7 -10z m6910 0 c0 -5 -5 -10 -11 -10 -5 0
-7 5 -4 10 3 6 8 10 11 10 2 0 4 -4 4 -10z m-879 -47 c-5 -17 -14 -26 -22 -24
-8 2 -20 4 -26 4 -20 1 -15 11 15 29 37 24 42 22 33 -9z m-51 -37 c0 -3 -4 -8
-10 -11 -5 -3 -10 -1 -10 4 0 6 5 11 10 11 6 0 10 -2 10 -4z m450 -46 c0 -5
-7 -10 -15 -10 -8 0 -15 5 -15 10 0 6 7 10 15 10 8 0 15 -4 15 -10z m-4560
-34 c0 -11 -19 -15 -25 -6 -3 5 1 10 9 10 9 0 16 -2 16 -4z m3400 -48 c0 -19
6 -23 37 -25 20 -1 43 -9 51 -17 14 -14 12 -16 -13 -26 -21 -8 -36 -8 -56 1
-15 6 -32 8 -37 5 -10 -6 -32 35 -32 59 0 12 14 19 43 24 4 0 7 -9 7 -21z
m1171 2 c65 -12 89 -36 59 -57 -16 -11 -28 -12 -53 -4 -17 5 -51 15 -74 21
-32 8 -43 16 -43 30 0 23 27 26 111 10z m-237 -30 c15 -15 -17 -22 -47 -11
-39 15 -35 35 5 27 18 -3 37 -11 42 -16z m-1095 -14 c9 -10 8 -15 -4 -20 -10
-4 -15 1 -15 14 0 24 4 25 19 6z m-899 -15 c0 -6 -4 -13 -10 -16 -5 -3 -10 1
-10 9 0 9 5 16 10 16 6 0 10 -4 10 -9z m2385 -11 c-3 -5 -10 -10 -16 -10 -5 0
-9 5 -9 10 0 6 7 10 16 10 8 0 12 -4 9 -10z m-6408 -6 c-3 -3 -12 -4 -19 -1
-8 3 -5 6 6 6 11 1 17 -2 13 -5z m5883 -9 c0 -8 -2 -15 -4 -15 -2 0 -6 7 -10
15 -3 8 -1 15 4 15 6 0 10 -7 10 -15z m147 9 c-3 -3 -12 -4 -19 -1 -8 3 -5 6
6 6 11 1 17 -2 13 -5z m-5967 -8 c0 -2 -7 -6 -15 -10 -8 -3 -15 -1 -15 4 0 6
7 10 15 10 8 0 15 -2 15 -4z m3295 -71 c45 -10 26 -25 -30 -25 -39 0 -55 4
-55 13 0 21 11 27 36 22 13 -3 35 -7 49 -10z m-159 -20 c-15 -8 -40 -15 -55
-14 -24 0 -23 1 9 13 19 8 44 14 55 15 15 1 13 -3 -9 -14z m-2046 -25 c-8 -5
-19 -10 -25 -10 -5 0 -3 5 5 10 8 5 20 10 25 10 6 0 3 -5 -5 -10z m1920 -2 c0
-10 -10 -15 -50 -23 -35 -7 -35 -7 -17 13 17 18 67 26 67 10z m833 -68 c4 -17
-4 -22 -51 -37 -32 -10 -62 -24 -68 -32 -9 -11 -12 -10 -17 10 -5 17 -1 28 11
37 26 19 65 27 70 14 6 -19 19 -14 25 8 7 26 23 26 30 0z m-743 -220 c0 -5 -4
-10 -10 -10 -5 0 -10 5 -10 10 0 6 5 10 10 10 6 0 10 -4 10 -10z m3107 -56
c-3 -3 -12 -4 -19 -1 -8 3 -5 6 6 6 11 1 17 -2 13 -5z"/>
<path d="M9135 670 c-4 -6 3 -10 14 -10 25 0 27 6 6 13 -8 4 -17 2 -20 -3z"/>
<path d="M10460 1330 c0 -10 9 -22 20 -25 11 -4 18 -10 15 -15 -3 -4 2 -10 10
-14 19 -7 19 -1 -2 35 -21 35 -43 45 -43 19z"/>
<path d="M10510 1336 c0 -24 34 -67 58 -72 34 -9 54 -23 46 -36 -4 -7 9 -8 37
-5 24 3 48 6 52 6 5 1 5 6 2 11 -4 6 -10 8 -15 5 -16 -10 -50 19 -44 37 4 12
0 16 -16 15 -11 -1 -18 -7 -16 -13 3 -7 -6 -11 -20 -11 -13 0 -24 3 -24 8 0 5
7 9 15 9 8 0 15 4 15 9 0 12 -29 23 -42 15 -5 -3 -18 2 -29 12 -10 9 -19 14
-19 10z"/>
<path d="M3846 1300 c10 -18 20 -27 29 -23 20 7 19 23 0 23 -8 0 -15 7 -15 15
0 8 -6 15 -14 15 -12 0 -12 -4 0 -30z"/>
<path d="M8780 1288 c0 -28 6 -50 15 -58 8 -7 15 -18 15 -26 0 -7 16 -25 36
-40 l36 -28 19 25 c13 16 17 32 13 49 -4 14 -6 33 -6 42 1 21 -14 33 -23 18
-10 -17 -21 -12 -34 16 -6 14 -17 24 -24 21 -6 -2 -20 2 -29 11 -17 14 -18 12
-18 -30z"/>
<path d="M10290 1312 c0 -23 57 -39 74 -21 7 6 7 9 1 8 -5 -2 -25 5 -42 14
-32 17 -33 17 -33 -1z"/>
<path d="M2733 1313 c-14 -5 -18 -33 -5 -33 4 0 18 9 32 20 23 18 23 20 5 19
-11 0 -26 -3 -32 -6z"/>
<path d="M3499 1305 c43 -19 57 -19 41 0 -7 8 -27 15 -44 15 l-31 -1 34 -14z"/>
<path d="M3566 1311 c-4 -5 22 -8 59 -8 36 1 65 5 65 10 0 10 -118 9 -124 -2z"/>
<path d="M10384 1305 c11 -8 25 -15 30 -15 6 0 2 7 -8 15 -11 8 -25 15 -30 15
-6 0 -2 -7 8 -15z"/>
<path d="M3275 1296 c11 -8 18 -25 18 -43 0 -30 1 -30 31 -18 44 19 43 30 -7
54 -49 24 -70 28 -42 7z"/>
<path d="M4145 1300 c-8 -13 15 -13 35 0 12 8 11 10 -7 10 -12 0 -25 -4 -28
-10z"/>
<path d="M10143 1292 c23 -25 22 -35 -2 -22 -43 22 -42 4 2 -39 61 -60 65 -63
72 -52 7 12 53 5 69 -10 5 -5 -5 -4 -24 1 -40 11 -50 6 -21 -10 26 -13 127
-24 150 -15 14 6 14 8 -3 21 -11 8 -30 14 -43 14 -13 0 -22 5 -20 12 1 6 -11
16 -28 21 -91 29 -113 39 -125 62 -7 13 -20 27 -28 30 -13 5 -13 3 1 -13z"/>
<path d="M10850 1300 c11 -7 2 -10 -32 -10 -27 0 -48 -4 -48 -9 0 -26 104 -29
119 -3 9 15 12 15 20 2 8 -11 13 -12 22 -3 9 9 2 14 -27 22 -22 6 -46 11 -54
11 -13 0 -13 -1 0 -10z"/>
<path d="M3796 1285 c-11 -8 -29 -13 -40 -10 -18 5 -17 4 2 -8 22 -13 23 -15
8 -30 -46 -45 10 -63 88 -28 38 18 139 38 159 33 5 -1 7 7 5 19 -2 18 -10 22
-38 23 -19 1 -51 -6 -70 -15 -37 -18 -63 -12 -74 16 -7 19 -15 19 -40 0z"/>
<path d="M4055 1290 c-18 -8 -17 -9 7 -9 15 -1 30 4 33 9 7 12 -12 12 -40 0z"/>
<path d="M4280 1291 c0 -10 50 -25 58 -16 8 7 1 11 -30 19 -16 3 -28 2 -28 -3z"/>
<path d="M10710 1290 c20 -13 43 -13 35 0 -3 6 -16 10 -28 10 -18 0 -19 -2 -7
-10z"/>
<path d="M2640 1280 c0 -5 7 -10 15 -10 8 0 15 5 15 10 0 6 -7 10 -15 10 -8 0
-15 -4 -15 -10z"/>
<path d="M4665 1280 c3 -5 8 -10 11 -10 2 0 4 5 4 10 0 6 -5 10 -11 10 -5 0
-7 -4 -4 -10z"/>
<path d="M11060 1280 c-23 -7 -23 -8 -3 -9 12 -1 25 4 28 9 3 6 5 10 3 9 -2
-1 -14 -5 -28 -9z"/>
<path d="M2787 1268 c-16 -12 -16 -14 4 -26 19 -12 21 -12 16 2 -4 9 -2 15 5
13 6 -1 13 4 15 11 3 6 -2 12 -9 12 -8 0 -22 -6 -31 -12z"/>
<path d="M2910 1270 c0 -5 7 -10 15 -10 8 0 15 5 15 10 0 6 -7 10 -15 10 -8 0
-15 -4 -15 -10z"/>
<path d="M10225 1259 c29 -24 79 -32 138 -23 64 10 33 24 -88 41 l-40 5 25
-20 c32 -27 14 -28 -20 -2 -14 11 -29 20 -34 20 -5 0 4 -10 19 -21z"/>
<path d="M11000 1265 c7 -8 18 -15 24 -14 7 0 6 2 -2 6 -6 2 -10 9 -6 14 3 5
-2 9 -12 9 -13 0 -14 -3 -4 -15z"/>
<path d="M3120 1260 c0 -12 8 -12 35 0 18 8 17 9 -7 9 -16 1 -28 -3 -28 -9z"/>
<path d="M10960 1260 c0 -6 -4 -8 -10 -5 -16 10 -12 -11 5 -25 8 -7 15 -18 15
-26 0 -22 20 -26 46 -9 29 19 25 31 -16 40 -17 4 -28 10 -25 15 3 5 1 11 -5
15 -5 3 -10 1 -10 -5z"/>
<path d="M3592 1247 c18 -19 38 -22 38 -7 0 6 -4 10 -9 10 -5 0 -18 3 -28 7
-17 6 -17 6 -1 -10z"/>
<path d="M4061 1251 c-9 -6 -5 -10 15 -15 15 -4 39 -17 53 -28 21 -17 22 -20
6 -15 -58 15 -76 17 -70 7 3 -5 16 -10 28 -10 18 0 19 -2 7 -10 -16 -10 -13
-12 40 -14 19 -1 44 5 55 12 15 11 16 13 3 9 -10 -4 -23 -1 -30 6 -13 12 -63
47 -83 59 -6 4 -17 3 -24 -1z"/>
<path d="M7615 1245 c-20 -9 -24 -14 -12 -14 13 -1 16 -7 11 -25 -10 -40 15
-41 31 -2 9 20 20 36 25 36 6 0 10 5 10 10 0 14 -29 12 -65 -5z"/>
<path d="M9485 1250 c3 -5 11 -10 16 -10 6 0 7 5 4 10 -3 6 -11 10 -16 10 -6
0 -7 -4 -4 -10z"/>
<path d="M9987 1246 c-7 -17 28 -50 68 -65 l30 -11 -35 6 c-19 3 -44 8 -55 11
-19 4 -18 4 2 -11 12 -9 32 -21 45 -26 l23 -10 -25 4 c-14 2 -33 7 -42 11 -11
4 -18 3 -18 -3 0 -6 9 -14 20 -17 11 -4 27 -17 36 -30 18 -28 107 -72 112 -56
2 6 8 11 13 11 6 0 7 -5 3 -11 -4 -7 15 -9 66 -5 40 3 74 7 76 9 8 8 -9 37
-20 35 -6 -2 -26 4 -44 11 -28 12 -35 12 -42 1 -5 -8 -14 -10 -26 -5 -16 7
-13 10 19 18 42 12 45 17 17 35 -13 8 -20 8 -20 1 0 -5 -5 -7 -11 -4 -6 4 -8
13 -5 20 5 15 -103 95 -129 95 -9 0 -13 -4 -10 -10 8 -13 -1 -13 -25 0 -13 7
-19 6 -23 -4z m84 -13 c13 -16 12 -17 -3 -4 -10 7 -18 15 -18 17 0 8 8 3 21
-13z m69 -113 c18 -12 2 -12 -25 0 -13 6 -15 9 -5 9 8 0 22 -4 30 -9z m-40
-21 c11 -19 10 -20 -9 -9 -12 6 -21 15 -21 20 0 18 19 11 30 -11z"/>
<path d="M10722 1240 c2 -7 26 -20 52 -27 43 -13 51 -13 65 1 17 18 16 18 -59
20 -19 1 -41 5 -49 10 -9 6 -12 5 -9 -4z"/>
<path d="M3230 1231 c0 -14 18 -23 31 -15 8 4 7 9 -2 15 -18 11 -29 11 -29 0z"/>
<path d="M8102 1228 c5 -15 28 -18 29 -3 0 6 -7 12 -17 13 -10 3 -15 -1 -12
-10z"/>
<path d="M9570 1192 c25 -23 49 -41 53 -42 15 0 -1 15 -50 49 l-48 34 45 -41z"/>
<path d="M10367 1223 c-16 -15 -4 -20 40 -18 26 1 48 6 50 12 4 11 -80 17 -90
6z"/>
<path d="M3960 1209 c0 -5 5 -7 10 -4 6 3 10 8 10 11 0 2 -4 4 -10 4 -5 0 -10
-5 -10 -11z"/>
<path d="M9460 1216 c0 -2 7 -9 15 -16 13 -11 14 -10 9 4 -5 14 -24 23 -24 12z"/>
<path d="M4385 1185 c32 -26 48 -29 80 -15 16 7 12 9 -23 15 -23 4 -45 12 -48
16 -3 5 -13 9 -22 9 -12 0 -9 -7 13 -25z"/>
<path d="M10645 1200 l-30 -7 30 -7 c17 -4 35 -9 42 -11 6 -2 14 -1 17 2 6 7
-13 34 -23 32 -3 -1 -19 -5 -36 -9z"/>
<path d="M10733 1187 c8 -18 19 -26 35 -24 25 2 30 17 5 17 -9 0 -24 7 -34 16
-17 16 -18 15 -6 -9z"/>
<path d="M1475 1190 c-3 -5 -2 -10 4 -10 5 0 13 5 16 10 3 6 2 10 -4 10 -5 0
-13 -4 -16 -10z"/>
<path d="M9870 1196 c0 -7 92 -58 96 -53 3 2 -6 11 -18 19 -28 17 -78 39 -78
34z"/>
<path d="M1887 1184 c-12 -12 3 -22 23 -17 11 3 17 9 14 14 -6 10 -28 12 -37
3z"/>
<path d="M3955 1180 c4 -6 11 -8 16 -5 14 9 11 15 -7 15 -8 0 -12 -5 -9 -10z"/>
<path d="M7675 1179 c-10 -29 -10 -62 1 -66 14 -5 25 58 13 71 -5 6 -10 4 -14
-5z"/>
<path d="M9863 1163 c9 -11 17 -24 17 -29 1 -22 51 -45 95 -43 55 3 46 17 -30
44 -27 9 -61 24 -75 33 -25 15 -25 15 -7 -5z"/>
<path d="M10510 1170 c0 -5 11 -10 24 -10 14 0 28 5 31 10 4 6 -7 10 -24 10
-17 0 -31 -4 -31 -10z"/>
<path d="M9560 1163 c0 -13 29 -38 35 -31 3 3 -4 13 -15 23 -11 10 -20 13 -20
8z"/>
<path d="M10990 1158 c0 -12 88 -10 95 2 4 6 -13 9 -44 7 -28 -1 -51 -5 -51
-9z"/>
<path d="M3983 1153 c-7 -2 -13 -9 -13 -14 0 -12 51 -11 70 1 9 6 17 5 22 -3
4 -6 10 -8 13 -5 22 21 -52 38 -92 21z"/>
<path d="M4718 1153 c7 -3 16 -2 19 1 4 3 -2 6 -13 5 -11 0 -14 -3 -6 -6z"/>
<path d="M4765 1150 c3 -5 13 -10 21 -10 8 0 14 5 14 10 0 6 -9 10 -21 10 -11
0 -17 -4 -14 -10z"/>
<path d="M4857 1153 c-14 -13 -6 -18 31 -20 34 -2 36 -1 18 13 -21 15 -39 18
-49 7z"/>
<path d="M9650 1151 c0 -18 45 -59 70 -66 22 -6 19 -1 -18 34 -45 43 -52 47
-52 32z"/>
<path d="M10940 1150 c0 -5 5 -10 10 -10 6 0 10 5 10 10 0 6 -4 10 -10 10 -5
0 -10 -4 -10 -10z"/>
<path d="M2530 1146 c0 -10 28 -13 41 -5 10 6 7 9 -13 9 -16 0 -28 -2 -28 -4z"/>
<path d="M3130 1140 c-9 -6 -10 -10 -3 -10 6 0 15 5 18 10 8 12 4 12 -15 0z"/>
<path d="M4558 1143 c7 -3 16 -2 19 1 4 3 -2 6 -13 5 -11 0 -14 -3 -6 -6z"/>
<path d="M3850 1129 c0 -5 5 -7 10 -4 6 3 10 8 10 11 0 2 -4 4 -10 4 -5 0 -10
-5 -10 -11z"/>
<path d="M10457 1134 c-7 -7 51 -49 82 -59 17 -5 20 -3 14 11 -5 14 -2 16 20
12 34 -7 34 -2 0 15 -32 16 -107 30 -116 21z"/>
<path d="M2953 1123 c9 -2 25 -2 35 0 9 3 1 5 -18 5 -19 0 -27 -2 -17 -5z"/>
<path d="M4626 1119 c3 -6 14 -7 24 -4 10 3 25 -1 33 -10 9 -8 21 -13 29 -11
7 2 26 7 41 10 51 12 17 26 -59 25 -44 -1 -72 -5 -68 -10z"/>
<path d="M10247 1119 c5 -5 27 -12 48 -15 20 -2 46 -9 56 -15 11 -5 24 -7 29
-4 6 3 10 2 10 -3 0 -5 13 -9 30 -8 35 1 41 16 7 16 -13 0 -27 4 -32 9 -11 10
-104 31 -137 31 -16 0 -19 -3 -11 -11z"/>
<path d="M10990 1110 c8 -5 20 -10 25 -10 6 0 3 5 -5 10 -8 5 -19 10 -25 10
-5 0 -3 -5 5 -10z"/>
<path d="M2419 1108 c-1 -2 -3 -15 -4 -30 -4 -26 -3 -26 16 -10 23 20 25 42 4
42 -8 0 -16 -1 -16 -2z"/>
<path d="M4928 1103 c7 -3 16 -2 19 1 4 3 -2 6 -13 5 -11 0 -14 -3 -6 -6z"/>
<path d="M10730 1100 c20 -13 47 -13 55 0 4 6 -9 10 -32 10 -28 0 -34 -3 -23
-10z"/>
<path d="M10840 1102 c0 -16 27 -33 43 -26 8 3 28 -3 43 -12 27 -18 27 -18 16
3 -6 11 -24 23 -39 26 -15 3 -36 9 -45 12 -10 4 -18 3 -18 -3z"/>
<path d="M1215 1090 c-3 -5 -2 -10 4 -10 5 0 13 5 16 10 3 6 2 10 -4 10 -5 0
-13 -4 -16 -10z"/>
<path d="M2326 1085 c-11 -8 -15 -15 -9 -15 6 0 18 -3 26 -6 9 -3 16 3 20 15
6 25 -9 27 -37 6z"/>
<path d="M4480 1088 c-30 -5 -74 -17 -97 -28 -24 -11 -47 -20 -52 -20 -5 0
-11 -5 -13 -12 -2 -6 -14 -13 -27 -15 -14 -2 -20 1 -15 8 4 7 -2 9 -17 7 -15
-2 -25 -11 -27 -24 -3 -23 -8 -22 200 -27 66 -2 75 -4 65 -17 -7 -8 -16 -18
-20 -21 -4 -3 4 -11 18 -17 15 -7 25 -8 25 -2 0 6 -4 10 -8 10 -5 0 -9 7 -9
15 0 9 10 15 23 15 13 0 25 4 28 9 10 15 66 19 66 4 0 -7 5 -13 11 -13 6 0 9
8 7 18 -3 14 -15 17 -70 17 -71 0 -97 10 -54 21 21 5 25 10 20 29 -3 13 -1 26
4 29 5 3 12 -3 15 -13 4 -15 14 -18 61 -18 53 0 55 1 30 13 -15 8 -36 14 -48
14 -12 0 -30 6 -41 13 -15 10 -35 11 -75 5z m35 -26 c-3 -3 -11 0 -18 7 -9 10
-8 11 6 5 10 -3 15 -9 12 -12z m-72 -19 c-7 -2 -21 -2 -30 0 -10 3 -4 5 12 5
17 0 24 -2 18 -5z m65 0 c-10 -2 -26 -2 -35 0 -10 3 -2 5 17 5 19 0 27 -2 18
-5z"/>
<path d="M5061 1087 c-6 -8 -8 -17 -4 -20 3 -4 -28 -7 -70 -7 -42 0 -78 -4
-81 -9 -8 -12 66 -29 90 -21 10 4 47 11 82 15 34 4 62 10 62 15 0 4 11 5 24 3
13 -3 27 1 31 8 6 9 -2 11 -37 6 -34 -5 -49 -3 -58 8 -15 19 -24 19 -39 2z"/>
<path d="M9645 1090 c9 -15 45 -32 45 -22 0 5 -12 14 -26 20 -14 7 -23 8 -19
2z"/>
<path d="M1190 1070 c6 -11 15 -20 20 -20 17 0 11 15 -11 28 -19 12 -19 11 -9
-8z"/>
<path d="M2380 1076 c0 -9 5 -16 10 -16 6 0 10 4 10 9 0 6 -4 13 -10 16 -5 3
-10 -1 -10 -9z"/>
<path d="M2480 1075 c-10 -12 -10 -15 4 -15 9 0 16 7 16 15 0 8 -2 15 -4 15
-2 0 -9 -7 -16 -15z"/>
<path d="M2718 1083 c6 -2 18 -2 25 0 6 3 1 5 -13 5 -14 0 -19 -2 -12 -5z"/>
<path d="M3938 1083 c7 -3 16 -2 19 1 4 3 -2 6 -13 5 -11 0 -14 -3 -6 -6z"/>
<path d="M4838 1083 c7 -3 16 -2 19 1 4 3 -2 6 -13 5 -11 0 -14 -3 -6 -6z"/>
<path d="M10322 1078 c5 -15 28 -23 28 -10 0 5 -7 13 -16 16 -10 4 -14 1 -12
-6z"/>
<path d="M11068 1083 c7 -3 16 -2 19 1 4 3 -2 6 -13 5 -11 0 -14 -3 -6 -6z"/>
<path d="M2785 1070 c28 -12 47 -12 40 0 -3 6 -18 10 -33 9 -24 0 -25 -1 -7
-9z"/>
<path d="M3740 1071 c-20 -6 -22 -8 -8 -13 9 -4 22 -1 28 8 7 8 11 14 9 13 -2
-1 -15 -4 -29 -8z"/>
<path d="M3790 1076 c0 -2 7 -7 16 -10 8 -3 12 -2 9 4 -6 10 -25 14 -25 6z"/>
<path d="M10025 1070 c3 -5 8 -10 11 -10 2 0 4 5 4 10 0 6 -5 10 -11 10 -5 0
-7 -4 -4 -10z"/>
<path d="M10965 1070 c3 -5 8 -10 11 -10 2 0 4 5 4 10 0 6 -5 10 -11 10 -5 0
-7 -4 -4 -10z"/>
<path d="M3515 1060 c-3 -5 -1 -10 4 -10 6 0 11 5 11 10 0 6 -2 10 -4 10 -3 0
-8 -4 -11 -10z"/>
<path d="M2435 1050 c-3 -5 3 -10 15 -10 12 0 18 5 15 10 -3 6 -10 10 -15 10
-5 0 -12 -4 -15 -10z"/>
<path d="M3070 1040 c-9 -16 -15 -18 -30 -10 -23 12 -58 14 -44 2 5 -5 28 -14
50 -20 36 -11 47 -9 85 8 24 11 42 20 39 21 -3 0 -14 2 -25 3 -11 2 -30 6 -42
10 -16 5 -25 2 -33 -14z m35 -10 c-3 -5 -10 -10 -16 -10 -5 0 -9 5 -9 10 0 6
7 10 16 10 8 0 12 -4 9 -10z"/>
<path d="M4050 1047 l-75 -11 52 -7 c28 -3 62 -14 74 -23 30 -21 40 -20 33 2
-4 13 -1 12 14 -5 25 -28 75 -32 70 -5 -3 11 -12 16 -26 15 -20 -3 -21 -1 -10
17 7 11 20 20 28 21 9 0 11 2 3 5 -7 3 -33 -4 -59 -15 -58 -26 -66 -26 -34 -1
14 11 21 19 15 18 -5 0 -44 -5 -85 -11z"/>
<path d="M5328 1048 c7 -7 12 -15 12 -19 0 -14 -54 -16 -101 -4 -28 8 -51 9
-55 4 -3 -5 5 -9 18 -9 13 0 33 -7 45 -15 14 -10 34 -13 53 -10 59 10 91 45
54 59 -27 10 -39 7 -26 -6z"/>
<path d="M10975 1050 c-13 -6 -15 -9 -5 -9 8 0 22 4 30 9 18 12 2 12 -25 0z"/>
<path d="M2678 1043 c7 -3 16 -2 19 1 4 3 -2 6 -13 5 -11 0 -14 -3 -6 -6z"/>
<path d="M3366 1041 c-3 -4 6 -19 19 -31 14 -13 25 -18 25 -12 0 6 -5 14 -11
17 -6 4 -8 13 -5 21 6 15 -19 20 -28 5z"/>
<path d="M3700 1039 c0 -5 5 -7 10 -4 6 3 10 8 10 11 0 2 -4 4 -10 4 -5 0 -10
-5 -10 -11z"/>
<path d="M5255 1040 c3 -5 10 -10 16 -10 5 0 9 5 9 10 0 6 -7 10 -16 10 -8 0
-12 -4 -9 -10z"/>
<path d="M3668 1034 c-3 -3 -20 -6 -37 -6 -28 -1 -29 -2 -13 -14 23 -18 52
-17 52 2 0 8 5 12 10 9 6 -3 10 -1 10 4 0 12 -13 15 -22 5z"/>
<path d="M3841 1032 c-9 -3 -2 -10 19 -18 38 -17 50 -17 50 -4 0 6 -8 10 -18
10 -10 0 -22 4 -27 9 -6 5 -16 6 -24 3z"/>
<path d="M8814 1032 c-20 -3 -34 -27 -34 -59 0 -20 27 -15 43 7 8 11 17 17 20
13 9 -9 8 20 -1 32 -4 6 -17 9 -28 7z"/>
<path d="M10380 1036 c0 -2 17 -10 38 -17 20 -7 43 -19 50 -28 10 -13 10 -11
1 11 -6 15 -19 26 -28 26 -9 -1 -26 2 -38 6 -13 4 -23 5 -23 2z"/>
<path d="M10190 1010 c0 -5 7 -7 15 -4 8 4 15 8 15 10 0 2 -7 4 -15 4 -8 0
-15 -4 -15 -10z"/>
<path d="M10490 1011 c0 -5 7 -14 15 -21 8 -7 13 -16 10 -20 -3 -5 0 -12 6
-16 8 -4 9 -3 5 4 -10 16 7 15 23 0 11 -11 13 -10 9 2 -4 11 1 16 13 16 11 0
19 -6 19 -13 0 -6 9 -11 20 -10 11 1 20 4 20 7 0 3 21 3 47 1 38 -3 57 -11 92
-42 24 -22 50 -39 57 -39 15 0 74 33 74 41 0 3 -22 17 -49 30 -27 13 -48 26
-45 31 2 4 -12 10 -33 13 -21 3 -50 9 -65 14 -29 9 -40 -2 -13 -13 8 -3 15
-10 15 -15 0 -17 -63 0 -87 22 -26 24 -43 16 -19 -8 19 -20 21 -32 2 -16 -7 6
-35 18 -62 26 -58 18 -54 17 -54 6z m310 -57 c0 -2 -9 0 -20 6 -11 6 -20 13
-20 16 0 2 9 0 20 -6 11 -6 20 -13 20 -16z"/>
<path d="M3193 998 c-10 -4 11 -7 48 -7 37 -1 71 -6 79 -13 12 -11 12 -10 2 4
-10 13 -10 17 0 22 19 7 -108 2 -129 -6z"/>
<path d="M4670 1000 c0 -5 7 -10 15 -10 8 0 15 5 15 10 0 6 -7 10 -15 10 -8 0
-15 -4 -15 -10z"/>
<path d="M10100 1000 c-13 -8 -12 -10 3 -10 10 0 20 -7 23 -15 4 -8 13 -15 21
-15 8 0 12 -4 8 -10 -3 -5 7 -17 22 -27 15 -10 33 -25 40 -33 6 -8 14 -13 17
-10 3 3 -8 20 -25 38 l-30 32 30 0 c17 0 31 5 31 11 0 8 4 9 13 0 8 -6 16 -8
19 -5 3 3 23 -2 44 -11 44 -19 140 -23 156 -7 17 17 -33 25 -96 17 -49 -6 -56
-4 -66 14 -6 12 -17 21 -25 21 -7 0 -16 6 -18 13 -3 7 -6 5 -6 -5 -1 -21 -12
-23 -30 -5 -12 10 -13 9 -7 -7 5 -15 3 -17 -11 -10 -10 4 -31 8 -48 8 -16 1
-34 6 -40 13 -7 9 -15 10 -25 3z"/>
<path d="M5051 974 l24 -26 -28 7 c-16 4 -33 3 -41 -4 -11 -9 -15 -8 -20 5 -5
13 -17 16 -67 12 -53 -4 -57 -3 -37 8 23 13 23 13 1 14 -33 0 -52 -10 -46 -26
6 -16 -1 -18 -26 -5 -13 7 -17 5 -17 -8 0 -18 42 -25 164 -24 48 1 52 -1 46
-19 -5 -16 -2 -19 13 -16 11 2 17 11 15 21 -2 12 6 19 28 23 17 4 33 10 36 15
2 5 27 11 54 15 27 4 47 10 44 15 -3 5 -15 7 -27 4 -12 -3 -33 -7 -47 -7 -14
-1 -28 -6 -31 -11 -4 -6 -12 0 -18 12 -7 11 -19 21 -28 21 -13 0 -12 -5 8 -26z"/>
<path d="M10934 984 c24 -17 49 -19 44 -3 -2 7 -17 13 -33 15 -28 3 -29 2 -11
-12z"/>
<path d="M5220 980 c8 -5 24 -10 35 -10 17 0 17 2 5 10 -8 5 -24 10 -35 10
-17 0 -17 -2 -5 -10z"/>
<path d="M11004 974 c4 -25 46 -32 46 -9 0 11 -5 15 -14 12 -7 -3 -18 -1 -24
5 -7 7 -10 5 -8 -8z"/>
<path d="M2358 973 c12 -2 30 -2 40 0 9 3 -1 5 -23 4 -22 0 -30 -2 -17 -4z"/>
<path d="M2830 976 c0 -2 7 -9 15 -16 13 -11 14 -10 9 4 -5 14 -24 23 -24 12z"/>
<path d="M3870 970 c0 -7 8 -10 19 -7 10 2 25 1 32 -4 11 -7 10 -9 -3 -9 -9 0
-21 -7 -26 -16 -8 -15 -10 -15 -15 0 -5 13 -22 16 -85 16 -44 0 -94 -3 -111
-6 -45 -9 -39 -27 7 -20 20 4 73 2 116 -3 70 -8 87 -7 134 11 52 19 64 39 27
46 -12 3 -15 0 -10 -9 6 -9 2 -10 -16 -5 -54 17 -69 18 -69 6z"/>
<path d="M5295 970 c3 -5 18 -10 33 -9 24 0 25 1 7 9 -28 12 -47 12 -40 0z"/>
<path d="M3565 961 c-25 -5 -27 -8 -12 -14 17 -6 57 7 57 18 0 6 -3 5 -45 -4z"/>
<path d="M4575 960 c-3 -5 -1 -10 4 -10 6 0 11 5 11 10 0 6 -2 10 -4 10 -3 0
-8 -4 -11 -10z"/>
<path d="M3140 950 c0 -5 5 -10 11 -10 5 0 7 5 4 10 -3 6 -8 10 -11 10 -2 0
-4 -4 -4 -10z"/>
<path d="M3440 950 c0 -6 7 -10 15 -10 8 0 15 2 15 4 0 2 -7 6 -15 10 -8 3
-15 1 -15 -4z"/>
<path d="M3485 950 c-4 -6 5 -10 19 -10 14 0 26 5 26 10 0 6 -9 10 -19 10 -11
0 -23 -4 -26 -10z"/>
<path d="M4458 953 c7 -3 16 -2 19 1 4 3 -2 6 -13 5 -11 0 -14 -3 -6 -6z"/>
<path d="M4755 950 c-3 -5 -2 -10 4 -10 5 0 13 5 16 10 3 6 2 10 -4 10 -5 0
-13 -4 -16 -10z"/>
<path d="M5165 940 c3 -5 8 -10 11 -10 2 0 4 5 4 10 0 6 -5 10 -11 10 -5 0 -7
-4 -4 -10z"/>
<path d="M5215 929 c-11 -35 14 -52 56 -38 18 6 41 18 49 26 13 14 9 15 -38
11 -42 -4 -52 -2 -48 8 3 8 1 14 -4 14 -5 0 -12 -10 -15 -21z"/>
<path d="M2865 930 c3 -5 12 -7 20 -3 21 7 19 13 -6 13 -11 0 -18 -4 -14 -10z"/>
<path d="M3125 924 c11 -8 19 -20 18 -25 -4 -12 8 -11 27 1 11 7 12 10 2 10
-7 0 -20 7 -28 15 -9 8 -21 15 -27 15 -7 0 -3 -8 8 -16z"/>
<path d="M11067 933 c-12 -11 -8 -23 8 -23 8 0 15 7 15 15 0 16 -12 20 -23 8z"/>
<path d="M4060 920 c0 -13 30 -13 50 0 11 7 7 10 -17 10 -18 0 -33 -4 -33 -10z"/>
<path d="M4741 919 c17 -11 39 -12 39 -1 0 4 -12 8 -27 9 -19 1 -22 -1 -12 -8z"/>
<path d="M10267 923 c-4 -3 -7 -15 -7 -25 0 -13 12 -21 46 -29 25 -7 48 -18
51 -25 3 -8 15 -14 27 -15 13 0 4 -7 -24 -16 -37 -13 -41 -17 -25 -23 11 -4
35 -3 54 2 25 7 36 6 42 -4 6 -9 9 -9 9 -1 0 6 -7 18 -15 27 -8 8 -15 19 -15
25 0 6 -10 11 -22 12 -22 0 -22 1 -3 9 19 9 19 9 -2 16 -13 3 -23 10 -23 15 0
5 -16 16 -36 24 -41 17 -48 18 -57 8z"/>
<path d="M5106 911 c-3 -5 16 -11 42 -14 43 -5 62 -2 51 7 -10 9 -88 15 -93 7z"/>
<path d="M10450 915 c0 -2 15 -11 33 -20 25 -12 40 -13 60 -6 17 7 28 7 32 1
4 -6 -1 -10 -9 -10 -9 0 -16 -4 -16 -9 0 -5 20 -11 46 -13 39 -3 45 -1 40 15
-3 12 1 17 12 16 38 -3 47 0 33 14 -13 13 -141 18 -141 5 0 -4 -9 -6 -20 -5
-11 1 -20 5 -20 9 0 4 -11 8 -25 8 -14 0 -25 -2 -25 -5z m167 -41 c-3 -3 -12
-4 -19 -1 -8 3 -5 6 6 6 11 1 17 -2 13 -5z"/>
<path d="M10705 910 c3 -5 14 -10 23 -10 15 0 15 2 2 10 -20 13 -33 13 -25 0z"/>
<path d="M4155 890 c3 -5 11 -10 16 -10 6 0 7 5 4 10 -3 6 -11 10 -16 10 -6 0
-7 -4 -4 -10z"/>
<path d="M4288 893 c7 -3 16 -2 19 1 4 3 -2 6 -13 5 -11 0 -14 -3 -6 -6z"/>
<path d="M5590 889 c0 -5 5 -7 10 -4 6 3 10 8 10 11 0 2 -4 4 -10 4 -5 0 -10
-5 -10 -11z"/>
<path d="M9774 888 c-3 -4 -2 -8 3 -9 4 0 22 -2 40 -5 18 -2 34 0 37 5 3 5
-12 11 -35 13 -22 2 -43 0 -45 -4z"/>
<path d="M4068 883 c6 -2 18 -2 25 0 6 3 1 5 -13 5 -14 0 -19 -2 -12 -5z"/>
<path d="M6640 874 c-22 -12 -22 -14 -5 -13 36 2 45 -1 45 -16 0 -8 7 -15 15
-15 8 0 15 4 15 8 0 5 11 15 25 22 18 10 22 16 13 22 -18 11 -41 10 -34 -1 3
-5 -1 -12 -10 -15 -22 -9 -24 -8 -24 9 0 19 -8 18 -40 -1z"/>
<path d="M4406 869 c4 -7 44 0 44 7 0 2 -11 3 -24 2 -14 -1 -23 -5 -20 -9z"/>
<path d="M4478 873 c7 -3 16 -2 19 1 4 3 -2 6 -13 5 -11 0 -14 -3 -6 -6z"/>
<path d="M5416 865 c-4 -11 1 -15 21 -15 14 0 24 1 22 3 -2 1 -11 8 -20 15
-14 10 -18 10 -23 -3z"/>
<path d="M8222 863 c-8 -14 -14 -15 -34 -6 -30 14 -47 5 -50 -27 -3 -23 0 -25
37 -23 50 2 107 29 82 39 -9 3 -15 10 -12 14 3 5 1 11 -4 15 -5 3 -14 -2 -19
-12z"/>
<path d="M9925 860 c32 -10 61 -17 63 -15 7 7 -49 26 -88 31 -25 3 -19 -1 25
-16z"/>
<path d="M10693 872 c-13 -2 -23 -10 -23 -19 0 -12 8 -14 37 -10 20 4 40 10
45 15 11 11 -25 19 -59 14z"/>
<path d="M4286 859 c6 -11 49 -10 84 1 18 5 9 7 -32 7 -32 0 -55 -4 -52 -8z"/>
<path d="M8487 851 c-3 -14 -11 -17 -32 -13 -23 4 -27 2 -22 -12 4 -10 1 -16
-8 -16 -25 0 -25 -18 0 -48 15 -18 25 -42 25 -61 0 -22 7 -35 26 -48 27 -17
27 -17 65 26 54 60 65 131 20 131 -22 0 -41 19 -41 42 0 24 -26 23 -33 -1z"/>
<path d="M11060 866 c0 -2 7 -7 16 -10 8 -3 12 -2 9 4 -6 10 -25 14 -25 6z"/>
<path d="M5626 845 c4 -9 11 -14 16 -13 15 5 11 23 -6 26 -11 2 -14 -2 -10
-13z"/>
<path d="M5840 850 c0 -5 5 -10 10 -10 6 0 10 5 10 10 0 6 -4 10 -10 10 -5 0
-10 -4 -10 -10z"/>
<path d="M10130 856 c0 -9 30 -14 35 -6 4 6 -3 10 -14 10 -12 0 -21 -2 -21 -4z"/>
<path d="M10795 850 c-3 -5 -1 -10 4 -10 6 0 11 5 11 10 0 6 -2 10 -4 10 -3 0
-8 -4 -11 -10z"/>
<path d="M10945 844 c19 -15 19 -15 -7 -9 -18 5 -28 3 -28 -4 0 -15 53 -27 58
-13 2 7 12 12 23 12 10 0 19 4 19 9 0 12 -26 21 -58 21 -26 -1 -27 -1 -7 -16z"/>
<path d="M4059 837 c6 -8 8 -17 4 -21 -4 -3 8 -1 25 5 43 15 40 29 -4 29 -29
0 -34 -3 -25 -13z"/>
<path d="M4376 842 c-2 -4 13 -6 35 -4 21 2 39 6 39 8 0 7 -69 4 -74 -4z"/>
<path d="M5143 843 c9 -2 23 -2 30 0 6 3 -1 5 -18 5 -16 0 -22 -2 -12 -5z"/>
<path d="M5345 840 c3 -5 8 -10 11 -10 2 0 4 5 4 10 0 6 -5 10 -11 10 -5 0 -7
-4 -4 -10z"/>
<path d="M3460 826 c-40 -11 -30 -12 100 -10 79 2 147 -1 150 -6 3 -5 19 -6
35 -2 27 8 25 9 -29 20 -74 15 -197 14 -256 -2z"/>
<path d="M10473 833 c9 -2 25 -2 35 0 9 3 1 5 -18 5 -19 0 -27 -2 -17 -5z"/>
<path d="M10575 830 c28 -12 37 -12 30 0 -3 6 -16 10 -28 9 -21 0 -21 -1 -2
-9z"/>
<path d="M10628 823 c7 -3 16 -2 19 1 4 3 -2 6 -13 5 -11 0 -14 -3 -6 -6z"/>
<path d="M11019 818 c-24 -9 -24 -10 10 -24 19 -8 41 -19 48 -26 10 -8 13 -4
13 20 0 23 -5 31 -23 34 -13 3 -35 1 -48 -4z"/>
<path d="M5025 810 c-3 -5 -2 -10 4 -10 5 0 13 5 16 10 3 6 2 10 -4 10 -5 0
-13 -4 -16 -10z"/>
<path d="M5528 796 c-2 -14 -9 -20 -23 -19 -58 7 -207 -1 -224 -11 -6 -4 -11
-18 -11 -32 0 -20 -4 -24 -19 -19 -11 3 -22 1 -25 -4 -11 -16 70 -36 97 -24
64 31 118 44 154 38 108 -18 151 -30 180 -52 39 -28 50 -29 58 -2 7 22 -5 43
-12 22 -6 -17 -43 2 -43 22 0 8 -5 15 -11 15 -5 0 -8 4 -5 9 12 19 -6 41 -32
39 -18 -2 -29 3 -36 17 -15 27 -44 28 -48 1z m-133 -54 c-3 -3 -11 0 -18 7 -9
10 -8 11 6 5 10 -3 15 -9 12 -12z m-55 -16 c0 -3 -4 -8 -10 -11 -5 -3 -10 -1
-10 4 0 6 5 11 10 11 6 0 10 -2 10 -4z m30 -6 c0 -5 -2 -10 -4 -10 -3 0 -8 5
-11 10 -3 6 -1 10 4 10 6 0 11 -4 11 -10z"/>
<path d="M6460 810 c0 -5 16 -10 35 -10 28 0 35 -4 35 -20 0 -16 -4 -18 -17
-11 -42 20 -87 31 -97 21 -9 -9 10 -19 74 -43 10 -4 7 -6 -7 -6 -38 -2 -26
-21 12 -21 19 0 35 3 35 8 0 4 33 7 73 7 88 0 137 13 137 37 0 13 -8 18 -31
18 -17 0 -28 -4 -24 -10 4 -6 -18 -10 -59 -10 -58 0 -88 11 -73 27 3 3 33 5
67 4 37 0 59 3 55 9 -8 13 -215 13 -215 0z"/>
<path d="M10085 810 c3 -5 14 -10 23 -10 15 0 15 2 2 10 -20 13 -33 13 -25 0z"/>
<path d="M10688 813 c7 -3 16 -2 19 1 4 3 -2 6 -13 5 -11 0 -14 -3 -6 -6z"/>
<path d="M10868 813 c6 -2 18 -2 25 0 6 3 1 5 -13 5 -14 0 -19 -2 -12 -5z"/>
<path d="M9680 801 c0 -5 6 -12 13 -14 7 -3 4 -6 -6 -6 -28 -1 -11 -18 18 -18
l26 0 -22 23 c-25 26 -29 29 -29 15z"/>
<path d="M9935 800 c3 -5 8 -10 11 -10 2 0 4 5 4 10 0 6 -5 10 -11 10 -5 0 -7
-4 -4 -10z"/>
<path d="M10465 800 c3 -5 16 -10 28 -10 18 0 19 2 7 10 -20 13 -43 13 -35 0z"/>
<path d="M10760 800 c0 -5 7 -10 16 -10 8 0 12 5 9 10 -3 6 -10 10 -16 10 -5
0 -9 -4 -9 -10z"/>
<path d="M4930 792 c0 -9 29 -25 63 -36 9 -3 17 -1 17 4 0 6 -6 10 -14 10 -7
0 -19 7 -26 15 -13 16 -40 20 -40 7z"/>
<path d="M5175 790 c-3 -5 -2 -10 4 -10 5 0 13 5 16 10 3 6 2 10 -4 10 -5 0
-13 -4 -16 -10z"/>
<path d="M9252 789 c2 -7 10 -15 17 -17 8 -3 12 1 9 9 -2 7 -10 15 -17 17 -8
3 -12 -1 -9 -9z"/>
<path d="M9740 786 c0 -18 10 -25 26 -19 20 7 17 20 -6 26 -12 3 -20 0 -20 -7z"/>
<path d="M9575 780 c3 -5 13 -10 21 -10 8 0 12 5 9 10 -3 6 -13 10 -21 10 -8
0 -12 -4 -9 -10z"/>
<path d="M5210 770 c0 -5 9 -10 19 -10 11 0 23 5 26 10 4 6 -5 10 -19 10 -14
0 -26 -4 -26 -10z"/>
<path d="M10443 753 c9 -15 79 -60 105 -68 17 -5 22 -2 22 12 0 14 -13 23 -47
34 -27 9 -57 20 -67 24 -12 5 -17 5 -13 -2z"/>
<path d="M10610 746 c0 -2 8 -10 18 -17 15 -13 16 -12 3 4 -13 16 -21 21 -21
13z"/>
<path d="M9825 731 c-8 -14 28 -31 44 -21 11 6 9 10 -7 19 -25 13 -29 14 -37
2z"/>
<path d="M6083 723 c9 -2 23 -2 30 0 6 3 -1 5 -18 5 -16 0 -22 -2 -12 -5z"/>
<path d="M6155 720 c3 -5 8 -10 11 -10 2 0 4 5 4 10 0 6 -5 10 -11 10 -5 0 -7
-4 -4 -10z"/>
<path d="M6293 718 c1 -8 -6 -12 -17 -10 -10 2 -15 -1 -12 -6 9 -14 68 -21 95
-10 23 8 23 9 5 23 -24 18 -75 20 -71 3z"/>
<path d="M10109 706 c-11 -24 -15 -25 -100 -25 -72 1 -91 4 -98 17 -14 25 -25
7 -11 -17 10 -20 19 -21 113 -20 56 0 117 -4 136 -10 19 -6 38 -8 44 -4 6 3 7
2 4 -4 -4 -5 5 -16 18 -23 20 -11 33 -10 76 2 62 17 70 29 29 45 -16 6 -30 18
-30 26 0 12 -16 16 -67 19 -38 2 -76 8 -85 12 -13 6 -20 2 -29 -18z"/>
<path d="M5169 709 c-10 -6 -7 -9 14 -9 29 0 35 5 14 13 -8 3 -20 1 -28 -4z"/>
<path d="M6190 710 c0 -5 12 -10 26 -10 14 0 23 4 19 10 -3 6 -15 10 -26 10
-10 0 -19 -4 -19 -10z"/>
<path d="M6540 714 c0 -3 10 -14 22 -24 l22 -17 -30 -1 c-47 -1 -120 -17 -109
-23 6 -4 33 -10 60 -14 43 -5 53 -3 69 14 10 11 25 17 33 14 13 -5 13 -3 4 15
-15 29 -71 57 -71 36z"/>
<path d="M10768 713 c7 -3 16 -2 19 1 4 3 -2 6 -13 5 -11 0 -14 -3 -6 -6z"/>
<path d="M7190 680 c-16 -39 -5 -51 18 -19 20 28 21 41 6 46 -6 2 -17 -10 -24
-27z"/>
<path d="M9675 690 c4 -6 11 -8 16 -5 14 9 11 15 -7 15 -8 0 -12 -5 -9 -10z"/>
<path d="M10625 691 c-14 -13 16 -21 83 -21 94 0 86 17 -11 22 -38 2 -70 2
-72 -1z"/>
<path d="M10880 691 c0 -10 24 -21 43 -21 7 0 3 7 -7 15 -22 17 -36 19 -36 6z"/>
<path d="M5812 679 c-94 -18 -83 -35 25 -38 71 -1 98 -7 143 -28 34 -16 71
-26 98 -25 50 0 55 3 46 26 -8 22 -35 21 -28 -1 4 -14 2 -13 -7 2 -7 11 -14
26 -15 33 -2 8 -4 15 -6 17 -7 7 -44 7 -61 0 -10 -4 -35 -3 -55 3 -57 17 -93
20 -140 11z"/>
<path d="M2515 650 c-3 -5 1 -10 9 -10 9 0 16 5 16 10 0 6 -4 10 -9 10 -6 0
-13 -4 -16 -10z"/>
<path d="M6283 653 c9 -2 25 -2 35 0 9 3 1 5 -18 5 -19 0 -27 -2 -17 -5z"/>
<path d="M9538 653 c6 -2 18 -2 25 0 6 3 1 5 -13 5 -14 0 -19 -2 -12 -5z"/>
<path d="M9590 650 c0 -5 18 -22 40 -36 35 -23 52 -27 121 -28 89 -1 110 8 52
23 -21 5 -72 19 -113 30 -84 24 -100 25 -100 11z"/>
<path d="M10962 647 c-8 -9 -3 -15 21 -22 25 -8 39 -6 67 8 l35 19 -42 -5
c-24 -3 -43 -1 -43 4 0 13 -26 11 -38 -4z"/>
<path d="M10604 627 c10 -6 34 -22 53 -34 39 -27 63 -29 63 -8 0 9 -9 15 -22
15 -12 0 -29 6 -37 14 -9 7 -29 16 -46 20 -26 5 -28 4 -11 -7z"/>
<path d="M6320 622 c0 -5 8 -17 19 -26 18 -16 19 -16 19 9 0 18 -6 25 -19 25
-11 0 -19 -4 -19 -8z"/>
<path d="M6442 568 c3 -7 15 -15 28 -16 21 -3 22 -2 11 12 -16 19 -44 21 -39
4z"/>
<path d="M9516 565 c4 -8 12 -15 19 -15 7 0 18 7 25 15 11 13 8 15 -18 15 -24
0 -30 -4 -26 -15z"/>
<path d="M9350 561 c0 -12 48 -27 57 -17 9 8 2 13 -30 21 -17 5 -27 3 -27 -4z"/>
<path d="M9700 560 c-37 -7 -33 -10 33 -28 29 -8 46 -7 70 3 22 9 27 15 17 18
-31 11 -86 14 -120 7z"/>
<path d="M10313 546 c2 -5 22 -15 45 -22 24 -6 54 -19 67 -28 29 -19 55 -20
90 -4 36 16 26 33 -21 35 -56 3 -104 14 -104 24 0 5 -18 8 -40 7 -22 -2 -39
-7 -37 -12z"/>
<path d="M10730 540 c-22 -7 -21 -8 12 -9 20 -1 40 4 43 9 7 12 -19 12 -55 0z"/>
<path d="M9450 530 c0 -5 7 -10 16 -10 8 0 12 5 9 10 -3 6 -10 10 -16 10 -5 0
-9 -4 -9 -10z"/>
<path d="M3058 518 c9 -9 15 -9 24 0 9 9 7 12 -12 12 -19 0 -21 -3 -12 -12z"/>
<path d="M9204 505 c-11 -7 -35 -15 -54 -17 -28 -2 -35 -8 -41 -32 -5 -16 -4
-37 1 -47 9 -16 4 -17 -58 -13 -167 9 -201 8 -220 -9 -10 -10 -35 -17 -56 -17
-22 0 -35 -4 -31 -10 3 -5 2 -10 -4 -10 -5 0 -13 4 -16 10 -3 6 -17 10 -31 10
-18 0 -24 -5 -24 -23 0 -44 80 -59 172 -32 33 10 57 11 80 4 18 -5 52 -9 76
-9 33 0 48 -5 61 -21 20 -25 121 -41 121 -19 0 7 7 10 15 6 8 -3 31 4 50 15
39 23 96 20 126 -7 11 -10 26 -13 42 -9 21 6 26 13 29 49 5 68 1 75 -58 92
-52 15 -83 15 -169 -1 -42 -8 -60 6 -46 34 11 20 13 20 42 6 27 -14 32 -14 59
2 46 27 38 52 -20 59 -15 2 -36 -3 -46 -11z"/>
<path d="M9008 483 c7 -3 16 -2 19 1 4 3 -2 6 -13 5 -11 0 -14 -3 -6 -6z"/>
<path d="M9815 460 c-27 -10 -60 -19 -73 -19 -14 -1 -22 -6 -19 -13 2 -9 31
-13 95 -13 80 -1 94 -3 115 -23 28 -27 42 -28 59 -4 7 9 25 23 40 31 35 18 25
35 -15 27 -20 -4 -36 -1 -47 9 -26 23 -97 25 -155 5z"/>
<path d="M10585 470 c-3 -5 3 -10 14 -10 12 0 21 5 21 10 0 6 -6 10 -14 10 -8
0 -18 -4 -21 -10z"/>
<path d="M4168 463 c7 -3 16 -2 19 1 4 3 -2 6 -13 5 -11 0 -14 -3 -6 -6z"/>
<path d="M8730 456 c0 -9 7 -16 16 -16 9 0 14 5 12 12 -6 18 -28 21 -28 4z"/>
<path d="M10490 452 c0 -17 72 -12 78 6 3 9 -7 12 -37 10 -26 -2 -41 -8 -41
-16z"/>
<path d="M8780 451 c0 -6 5 -13 10 -16 6 -3 10 1 10 9 0 9 -4 16 -10 16 -5 0
-10 -4 -10 -9z"/>
<path d="M10775 420 c3 -5 13 -10 21 -10 8 0 12 5 9 10 -3 6 -13 10 -21 10 -8
0 -12 -4 -9 -10z"/>
<path d="M10993 407 c5 -15 97 -17 97 -2 0 6 -23 11 -51 12 -36 2 -49 -1 -46
-10z"/>
<path d="M10040 390 c0 -13 11 -13 30 0 12 8 11 10 -7 10 -13 0 -23 -4 -23
-10z"/>
<path d="M9852 369 c2 -6 7 -10 11 -10 4 1 16 1 27 1 11 0 20 5 20 10 0 6 -14
10 -31 10 -17 0 -29 -5 -27 -11z"/>
<path d="M10766 373 c-3 -3 3 -12 14 -20 11 -8 20 -23 20 -33 0 -31 11 -50 29
-50 22 1 54 26 49 40 -4 14 -104 71 -112 63z"/>
<path d="M10100 360 c0 -5 5 -10 11 -10 5 0 7 5 4 10 -3 6 -8 10 -11 10 -2 0
-4 -4 -4 -10z"/>
<path d="M10980 362 c0 -12 59 -44 70 -37 18 11 11 32 -12 39 -32 8 -58 7 -58
-2z"/>
<path d="M10472 328 c-21 -21 -13 -34 28 -48 22 -7 40 -17 40 -21 0 -21 43
-31 81 -19 22 7 39 16 39 20 0 3 16 4 36 2 26 -3 35 -1 30 7 -4 6 -18 11 -32
11 -21 0 -23 3 -14 19 15 29 13 31 -20 31 -18 0 -33 -6 -36 -15 -9 -23 -33
-19 -27 5 5 18 0 20 -54 20 -33 0 -64 -5 -71 -12z"/>
<path d="M9510 255 c0 -23 76 -54 165 -66 65 -9 88 -17 96 -31 10 -19 34 -24
44 -9 3 5 -5 22 -18 37 -19 22 -34 28 -67 29 -30 1 -47 7 -59 21 -21 26 -161
43 -161 19z"/>
<path d="M10298 240 c18 -31 42 -40 42 -15 0 8 -13 21 -30 30 l-29 15 17 -30z"/>
<path d="M9306 222 c-2 -4 -3 -22 -1 -41 4 -50 26 -57 80 -26 52 31 56 42 18
50 -16 3 -43 10 -60 14 -18 5 -35 6 -37 3z"/>
<path d="M10190 180 c0 -12 65 -24 82 -14 9 6 6 10 -12 15 -37 10 -70 10 -70
-1z"/>
<path d="M6035 148 c-9 -30 -12 -68 -5 -68 4 0 10 10 13 23 2 12 8 30 12 40 4
10 3 17 -4 17 -7 0 -13 -6 -16 -12z"/>
<path d="M10760 110 c0 -22 -40 -31 -69 -17 -40 20 -60 7 -38 -26 16 -24 52
-37 111 -37 17 0 40 -7 50 -15 23 -17 140 -21 181 -5 37 14 30 46 -9 42 -15
-2 -42 5 -59 16 -65 38 -167 64 -167 42z"/>
<path d="M10125 101 c-7 -12 12 -24 25 -16 11 7 4 25 -10 25 -5 0 -11 -4 -15
-9z"/>
<path d="M10154 20 c-5 -5 -22 -10 -39 -13 -16 -2 56 -4 160 -5 170 0 187 1
160 14 -33 15 -266 18 -281 4z"/>
</g>
</svg>
