<?xml version="1.0" standalone="no"?>
<!DOCTYPE svg PUBLIC "-//W3C//DTD SVG 20010904//EN"
 "http://www.w3.org/TR/2001/REC-SVG-20010904/DTD/svg10.dtd">
<svg version="1.0" xmlns="http://www.w3.org/2000/svg"
 width="295.000000pt" height="167.000000pt" viewBox="0 0 295.000000 167.000000"
 preserveAspectRatio="xMidYMid meet">

<g transform="translate(0.000000,167.000000) scale(0.100000,-0.100000)"
fill="#000000" stroke="none">
<path d="M826 1663 l830 -3 -4 -60 c-3 -37 0 -60 6 -60 5 0 12 7 16 15 6 16
46 21 46 5 0 -5 -6 -7 -14 -4 -7 3 -16 -2 -19 -11 -5 -12 -1 -14 17 -9 17 4
31 -1 45 -15 12 -12 24 -21 29 -21 4 -1 6 -14 6 -30 -1 -17 2 -27 7 -24 5 3 9
12 9 20 0 8 4 13 9 9 5 -3 16 2 25 11 10 9 24 13 37 9 19 -6 19 -8 3 -20 -10
-7 -24 -11 -31 -8 -7 3 -13 1 -13 -5 0 -6 6 -13 13 -15 6 -3 1 -6 -12 -6 -19
-1 -22 -5 -17 -23 4 -17 -2 -29 -21 -46 l-27 -23 22 -21 c17 -17 24 -19 35 -9
9 7 26 9 43 5 16 -4 54 -9 84 -10 54 -3 256 -66 275 -86 7 -8 5 -8 -5 -2 -19
10 38 -61 79 -100 17 -17 31 -37 31 -46 0 -9 4 -20 9 -25 13 -13 22 -107 10
-100 -5 4 -9 1 -9 -5 0 -6 -4 -8 -10 -5 -5 3 -10 -2 -10 -12 0 -11 -3 -14 -8
-7 -4 6 -15 11 -26 11 -16 0 -17 -6 -12 -46 3 -25 12 -48 19 -53 18 -11 47 31
47 70 0 34 9 39 41 22 17 -10 19 -7 19 23 0 18 7 42 15 53 8 10 15 28 15 39 0
17 2 17 10 5 14 -22 13 75 -1 102 -8 15 -8 23 2 32 9 8 10 8 4 -4 -6 -11 -5
-12 4 -4 8 8 5 22 -13 56 -13 24 -27 59 -31 76 -3 18 -11 35 -17 38 -7 5 -8 2
-4 -7 4 -8 -1 -3 -11 11 -20 27 -45 52 -93 93 -18 15 -26 27 -19 28 8 0 5 4
-6 9 -14 6 -15 9 -5 10 18 1 -68 80 -87 80 -7 0 -18 9 -25 20 -7 11 -16 20
-21 20 -4 0 -5 -4 -2 -10 3 -5 2 -10 -4 -10 -5 0 -13 5 -16 10 -4 6 -10 8 -15
5 -5 -3 -11 -1 -15 5 -3 5 -17 10 -31 10 -31 0 -22 20 9 21 21 1 21 2 2 8 -11
3 189 8 445 11 256 3 -201 5 -1015 5 -814 0 -1106 -1 -649 -2z m1280 -186 c1
-11 -3 -14 -14 -9 -11 4 -12 7 -3 10 8 3 7 8 -6 19 -17 14 -17 14 1 5 11 -5
21 -17 22 -25z m-216 -107 c-6 -11 -16 -20 -22 -20 -6 0 -3 9 7 20 10 11 20
20 22 20 2 0 -1 -9 -7 -20z m40 0 c0 -5 -5 -10 -11 -10 -5 0 -7 5 -4 10 3 6 8
10 11 10 2 0 4 -4 4 -10z m243 -47 c-7 -3 -9 -12 -6 -21 8 -22 -1 -13 -15 15
-11 19 -9 20 10 15 13 -3 17 -7 11 -9z m152 -83 c10 -11 16 -20 13 -20 -3 0
-13 9 -23 20 -10 11 -16 20 -13 20 3 0 13 -9 23 -20z"/>
<path d="M1516 1605 c-3 -8 -12 -12 -21 -9 -8 4 -15 1 -15 -6 0 -7 -8 -10 -20
-7 -11 3 -18 1 -14 -4 3 -5 -1 -9 -8 -9 -10 0 -10 -2 1 -9 16 -10 6 -31 -15
-31 -8 0 -14 -6 -14 -14 0 -8 -6 -21 -14 -29 -8 -8 -13 -23 -12 -33 2 -11 -10
-31 -26 -46 -16 -15 -27 -32 -23 -38 4 -6 1 -17 -5 -25 -10 -12 -9 -15 3 -15
8 0 26 15 39 33 14 17 43 38 64 46 21 7 54 20 72 28 18 9 35 13 38 10 3 -3
-19 -31 -48 -62 -54 -58 -80 -94 -60 -81 7 4 5 -8 -3 -28 -8 -20 -15 -47 -15
-61 0 -14 -4 -25 -9 -25 -5 0 -11 -9 -14 -20 -3 -11 -1 -18 4 -14 17 10 9 -10
-13 -33 -19 -20 -20 -27 -10 -43 10 -16 9 -18 -3 -14 -17 7 -19 -7 -5 -56 15
-56 27 -170 18 -170 -4 0 -8 11 -8 24 0 13 -3 26 -7 28 -5 2 -20 26 -34 53
-24 46 -44 148 -40 213 0 13 -5 22 -14 22 -8 0 -15 -2 -15 -3 0 -2 -9 -39 -21
-83 -31 -123 -44 -291 -21 -287 6 2 12 -6 12 -16 0 -13 8 -21 23 -23 19 -3 22
-9 22 -51 0 -26 5 -51 11 -55 6 -4 14 -47 18 -97 8 -115 8 -115 18 -109 4 3
19 -7 33 -22 20 -22 24 -34 20 -58 -5 -28 -5 -29 8 -13 13 16 15 16 21 2 3 -9
1 -25 -5 -36 -6 -11 -9 -25 -7 -31 2 -6 12 4 21 23 14 30 17 31 17 11 0 -26
29 -82 42 -82 4 0 8 9 8 21 0 11 4 18 9 14 6 -3 13 11 16 32 6 40 45 123 57
123 4 0 5 8 1 18 -3 9 -3 14 2 10 4 -4 20 -1 36 8 26 13 30 13 49 -6 21 -21
36 -27 25 -11 -3 5 3 12 12 14 17 4 17 5 1 6 -24 1 -23 28 1 41 16 8 20 6 24
-8 4 -16 5 -16 6 1 1 10 9 17 20 17 25 0 45 50 36 89 -4 17 -11 31 -16 31 -5
0 -9 7 -9 15 0 8 -6 15 -14 15 -8 0 -18 9 -21 21 -4 11 -21 37 -38 56 -31 35
-32 39 -32 132 1 83 10 226 15 226 1 0 3 7 5 16 1 9 11 29 21 44 10 16 20 39
22 51 2 19 -1 22 -15 18 -13 -4 -12 -1 5 12 12 9 22 22 22 28 0 13 -39 40 -48
32 -8 -9 -29 25 -36 61 -4 18 -3 34 3 38 13 8 15 55 2 55 -5 0 -19 19 -31 42
-18 35 -82 108 -95 108 -1 0 -5 -7 -9 -15z m87 -109 c16 -12 16 -14 2 -20 -24
-9 -14 -41 12 -41 13 0 22 -4 20 -10 -1 -5 -9 -8 -17 -6 -27 6 -42 24 -37 47
2 13 1 23 -2 22 -16 -1 -22 3 -16 12 8 13 16 12 38 -4z m-22 -119 c-13 -13
-15 -57 -2 -57 6 0 13 5 17 12 4 7 3 8 -4 4 -7 -4 -12 -3 -12 3 0 5 5 13 10
16 6 3 10 1 10 -5 0 -6 11 -15 25 -20 14 -5 25 -16 25 -24 0 -12 -7 -13 -36
-4 -38 10 -58 3 -34 -12 17 -11 0 -13 -24 -4 -12 5 -13 11 -6 24 6 12 7 21 0
25 -10 6 -4 31 13 52 5 7 14 10 19 7 6 -4 6 -10 -1 -17z m-144 -149 c-3 -8 -6
-5 -6 6 -1 11 2 17 5 13 3 -3 4 -12 1 -19z m170 -480 c-3 -8 -6 -5 -6 6 -1 11
2 17 5 13 3 -3 4 -12 1 -19z m51 -230 c19 -19 14 -30 -8 -18 -11 6 -20 15 -20
20 0 14 14 12 28 -2z"/>
<path d="M1710 1491 c0 -19 4 -30 10 -26 10 6 8 40 -3 51 -4 4 -7 -7 -7 -25z"/>
<path d="M1850 1302 c0 -12 3 -12 15 -2 8 7 15 13 15 15 0 1 -7 2 -15 2 -8 0
-15 -7 -15 -15z"/>
<path d="M1885 1211 c-34 -14 -85 -70 -86 -94 -3 -51 23 -123 34 -95 4 10 9 9
20 -5 14 -16 15 -16 21 5 5 19 8 20 16 8 9 -13 10 -13 10 0 0 13 2 13 9 1 5
-8 6 -21 3 -30 -4 -10 -7 -11 -10 -3 -5 16 -23 16 -19 0 1 -7 -4 -12 -11 -13
-19 0 -32 -26 -27 -55 4 -24 4 -24 -7 3 -14 32 -24 34 -38 7 -14 -25 5 -62 54
-109 20 -19 36 -43 36 -52 0 -28 17 -31 34 -8 13 20 12 23 -11 43 -30 26 -33
61 -8 116 21 46 44 58 62 34 12 -16 13 -15 13 9 0 31 27 49 66 45 30 -3 55 25
38 42 -16 16 -75 25 -72 10 2 -7 -3 -15 -11 -18 -10 -3 -12 0 -8 12 4 11 3 15
-4 10 -16 -9 -29 17 -19 37 11 20 4 29 -18 23 -10 -3 -7 1 6 7 28 15 28 24 -3
54 -25 26 -37 29 -70 16z m35 -21 c0 -5 -5 -10 -11 -10 -5 0 -7 5 -4 10 3 6 8
10 11 10 2 0 4 -4 4 -10z"/>
<path d="M1310 1121 c0 -11 3 -22 8 -24 4 -3 7 6 7 19 0 13 -3 24 -7 24 -5 0
-8 -9 -8 -19z"/>
<path d="M1324 1023 c2 -23 12 -52 21 -65 15 -19 16 -20 10 -3 -4 11 -14 40
-21 65 l-14 45 4 -42z"/>
<path d="M2081 1016 c-9 -10 -7 -21 6 -45 10 -17 24 -31 31 -31 6 0 12 -4 12
-10 0 -5 5 -10 10 -10 13 0 13 56 -1 81 -5 11 -14 17 -20 14 -5 -4 -9 -1 -9 4
0 15 -15 14 -29 -3z"/>
<path d="M1830 769 c0 -8 7 -24 15 -35 11 -15 14 -16 15 -3 0 8 -7 24 -15 35
-11 15 -14 16 -15 3z"/>
<path d="M1923 496 c2 -6 16 -17 30 -24 32 -15 35 -32 7 -32 -11 0 -20 4 -20
10 0 5 -7 7 -15 4 -8 -4 -15 -13 -15 -21 0 -11 7 -13 28 -8 25 5 29 3 28 -17
-1 -14 5 -24 14 -24 8 -1 21 -2 28 -3 7 0 10 -5 7 -11 -3 -6 4 -10 16 -10 21
0 22 -1 4 -20 -16 -18 -14 -25 8 -21 4 0 7 -4 7 -9 0 -6 -5 -10 -11 -10 -6 0
-9 -9 -6 -19 3 -12 -1 -22 -10 -25 -8 -3 -11 -10 -8 -16 4 -6 -5 -10 -19 -10
-16 0 -26 6 -26 15 0 8 -7 15 -15 15 -20 0 -19 16 1 24 28 11 34 7 34 -21 0
-26 1 -27 18 -9 11 12 13 20 6 23 -7 2 -10 13 -7 23 3 12 0 20 -6 20 -7 0 -9
-4 -6 -10 3 -5 -3 -10 -15 -10 -12 0 -19 4 -16 9 4 5 -4 7 -16 5 -13 -2 -17
-2 -10 2 17 8 15 34 -3 34 -8 0 -15 5 -15 10 0 6 5 10 10 10 17 0 11 27 -7 36
-10 4 -21 6 -25 6 -5 -1 -8 5 -8 13 0 8 -4 15 -10 15 -5 0 -10 7 -10 15 0 8
-4 15 -8 15 -9 0 -1 -71 18 -163 10 -52 15 -59 50 -77 57 -29 74 -25 114 24
41 50 42 56 19 136 -19 63 -38 82 -31 30 4 -24 1 -30 -14 -30 -10 0 -18 5 -18
10 0 6 5 10 10 10 6 0 10 5 10 11 0 8 -4 8 -14 0 -9 -7 -17 -8 -20 -2 -8 13 4
42 15 35 5 -3 9 -2 9 3 -1 4 -21 18 -46 29 -25 12 -43 16 -41 10z"/>
<path d="M1970 355 c0 -8 5 -15 10 -15 6 0 10 7 10 15 0 8 -4 15 -10 15 -5 0
-10 -7 -10 -15z"/>
<path d="M1718 19 l-23 -18 48 -1 c46 0 60 11 35 27 -23 13 -37 12 -60 -8z"/>
</g>
</svg>
