<?xml version="1.0" standalone="no"?>
<!DOCTYPE svg PUBLIC "-//W3C//DTD SVG 20010904//EN"
 "http://www.w3.org/TR/2001/REC-SVG-20010904/DTD/svg10.dtd">
<svg version="1.0" xmlns="http://www.w3.org/2000/svg"
 width="323.000000pt" height="151.000000pt" viewBox="0 0 323.000000 151.000000"
 preserveAspectRatio="xMidYMid meet">

<g transform="translate(0.000000,151.000000) scale(0.100000,-0.100000)"
fill="#000000" stroke="none">
<path d="M1510 1475 c0 -21 -6 -38 -17 -45 -13 -8 -14 -13 -5 -16 6 -3 12 -17
12 -30 0 -13 4 -24 9 -24 5 0 8 14 7 32 -1 26 3 33 24 38 15 3 25 13 24 23 -2
53 -4 57 -29 57 -22 0 -25 -4 -25 -35z"/>
<path d="M2340 1474 c-137 -51 -161 -54 -272 -42 -127 15 -165 4 -210 -57 -31
-42 -36 -44 -84 -45 -27 0 -55 -5 -61 -11 -8 -8 -16 -2 -29 19 -21 36 -51 52
-87 45 -21 -4 -30 -14 -39 -46 -10 -32 -10 -41 0 -45 7 -2 12 -8 12 -14 0 -6
-6 -8 -14 -5 -9 4 -16 -3 -20 -18 -5 -18 -11 -22 -28 -18 -13 3 -30 12 -38 19
-9 7 -29 12 -45 11 -26 -2 -30 2 -33 24 -3 29 -32 41 -126 55 -31 4 -60 16
-75 30 -33 30 -56 30 -76 1 -27 -42 -99 -64 -240 -77 -71 -6 -160 -15 -197
-21 -66 -10 -67 -11 -109 -69 -23 -32 -46 -57 -51 -54 -4 3 -8 0 -8 -6 0 -7
-7 -10 -15 -6 -9 3 -15 0 -15 -9 0 -18 -17 -20 -23 -2 -5 15 -93 15 -109 -1
-7 -7 -5 -16 8 -29 48 -48 106 -66 259 -78 119 -9 162 -21 250 -71 44 -25 100
-54 125 -63 25 -10 78 -42 119 -72 40 -30 92 -68 114 -84 51 -37 135 -190 110
-199 -21 -9 -52 11 -58 37 -4 13 -16 27 -28 32 -12 6 -27 21 -34 35 -13 25
-13 25 -13 2 0 -12 -7 -25 -15 -28 -18 -7 -20 -48 -3 -61 7 -6 35 -18 63 -27
49 -16 50 -16 99 9 31 16 52 22 60 16 7 -6 18 -4 30 5 30 21 39 17 34 -16 -2
-16 -2 -31 2 -32 3 -2 16 -18 29 -37 l24 -33 63 7 c71 7 104 1 104 -21 0 -20
33 1 53 35 9 14 37 37 64 51 26 14 77 48 113 76 66 52 175 100 186 82 9 -14
-5 -60 -16 -53 -15 9 -12 -4 4 -20 7 -8 17 -11 21 -7 5 4 6 -1 2 -10 -3 -10 0
-19 10 -22 12 -5 14 -17 11 -56 -3 -33 -1 -50 6 -50 6 0 4 -5 -4 -10 -10 -6
-11 -10 -2 -10 6 0 12 -4 12 -10 0 -5 -8 -6 -17 -3 -14 5 -12 0 7 -24 14 -18
30 -32 37 -32 7 -1 16 -8 21 -17 8 -14 14 -12 44 15 20 17 43 31 51 31 8 0 17
6 19 12 4 10 10 10 30 1 20 -9 36 -9 69 1 35 11 51 11 79 1 l35 -12 -30 -14
c-39 -17 -38 -16 -30 -29 5 -8 14 -6 31 5 14 9 30 13 39 8 11 -6 8 -15 -14
-42 -27 -33 -31 -35 -106 -38 -144 -6 -134 -2 -166 -79 -61 -143 -61 -144
-179 -165 -79 -14 -263 -16 -293 -2 -12 6 -52 17 -88 26 -36 8 -91 28 -122 42
-49 23 -57 31 -57 55 0 35 7 41 36 28 13 -6 27 -8 31 -4 8 8 -59 66 -69 59 -5
-2 -8 -1 -8 4 0 13 14 29 34 40 18 10 17 11 -11 17 -20 5 -43 1 -66 -10 -30
-14 -35 -22 -31 -40 5 -19 -2 -27 -46 -49 -48 -25 -51 -28 -45 -56 8 -35 -16
-69 -48 -69 -59 0 -165 144 -236 321 -16 41 -34 75 -40 77 -8 3 -8 -4 -2 -20
32 -82 158 -320 173 -326 4 -2 8 -14 8 -27 0 -19 -8 -26 -36 -34 -23 -6 -45
-6 -60 0 -40 15 -120 104 -150 166 -15 32 -35 76 -46 98 -23 50 -21 40 17 -74
17 -52 36 -91 43 -91 8 0 10 -5 6 -12 -4 -7 -4 -10 0 -6 11 10 66 -56 66 -80
0 -27 -18 -32 -71 -21 -28 6 -59 23 -83 45 -21 19 -41 32 -44 29 -3 -3 -1 -10
6 -17 16 -16 -3 -48 -29 -48 -11 0 -30 5 -42 11 -29 16 -107 100 -107 116 0 7
-12 13 -27 13 -24 1 -25 2 -10 11 21 12 22 54 2 128 -8 30 -17 97 -21 150 -4
53 -8 98 -10 102 -4 7 -190 -16 -291 -37 l-82 -17 -55 38 c-30 20 -60 35 -68
33 -9 -3 -13 -23 -13 -63 0 -61 -5 -69 -57 -80 l-28 -5 0 -230 0 -230 1615 0
1615 0 0 261 c0 250 -1 262 -20 279 l-20 18 20 5 c13 3 20 13 20 30 l0 26 -47
-15 c-27 -9 -57 -20 -68 -25 -11 -5 -56 -8 -100 -6 -57 1 -92 -3 -120 -15 -22
-9 -71 -24 -108 -34 -90 -23 -101 -13 -63 56 15 27 24 50 20 50 -4 0 1 10 12
23 57 64 112 172 129 251 9 44 17 61 28 60 8 -1 20 10 27 25 12 25 12 26 -9 7
-21 -19 -21 -19 -21 1 0 19 49 63 70 63 5 0 10 -16 10 -35 0 -65 45 -145 81
-145 25 0 67 48 81 92 6 20 26 51 44 69 l34 33 0 128 c0 115 -2 130 -20 148
-11 11 -20 29 -20 40 0 22 -38 80 -52 80 -4 0 -8 -16 -8 -35 0 -19 -3 -35 -7
-35 -5 0 -60 13 -123 28 -109 27 -115 29 -118 55 -2 15 -7 27 -11 27 -5 0 -6
-11 -3 -25 4 -23 1 -25 -30 -25 -23 0 -42 -7 -54 -21 -24 -27 -58 -20 -158 31
-101 52 -152 53 -286 4z m-660 -217 c0 -28 -13 -57 -25 -57 -7 0 -19 -10 -28
-22 -14 -21 -16 -22 -32 -7 -14 14 -15 20 -5 40 10 17 10 24 1 27 -6 2 -11 10
-11 17 0 10 14 14 50 13 31 0 50 -4 50 -11z m496 -179 c-1 -17 5 -23 19 -23
14 0 20 6 19 23 -1 34 13 13 20 -32 6 -33 5 -38 -9 -32 -9 3 -25 6 -36 6 -27
0 -46 44 -29 65 16 19 17 19 16 -7z m534 -38 c0 -21 -5 -30 -16 -30 -13 0 -14
3 -5 13 6 8 8 17 5 20 -6 6 3 27 12 27 2 0 4 -13 4 -30z m15 -39 c-3 -6 -11
-11 -17 -11 -6 0 -6 6 2 15 14 17 26 13 15 -4z m-285 -215 c0 -6 6 -22 13 -36
28 -53 27 -57 -6 -57 -41 0 -62 15 -46 33 6 8 9 26 6 41 -7 38 1 57 19 42 8
-6 14 -17 14 -23z m60 -144 c0 -5 -7 -17 -16 -28 -10 -12 -14 -14 -11 -4 2 8
0 25 -4 38 -8 20 -7 21 11 12 11 -6 20 -14 20 -18z m2 -71 c3 -19 0 -27 -7
-24 -7 2 -10 15 -7 29 6 31 9 30 14 -5z m-20 -53 c-7 -7 -12 -8 -12 -2 0 14
12 26 19 19 2 -3 -1 -11 -7 -17z m313 -188 c10 -11 15 -26 11 -36 -5 -13 -16
-15 -69 -9 -34 4 -66 10 -70 14 -4 5 16 17 45 29 66 26 62 26 83 2z m-2315
-89 c0 -27 -17 -35 -23 -11 -5 19 0 30 15 30 4 0 8 -9 8 -19z m-60 -62 c0 -6
-4 -7 -10 -4 -5 3 -10 11 -10 16 0 6 5 7 10 4 6 -3 10 -11 10 -16z"/>
<path d="M1474 1334 c-4 -10 -9 -22 -11 -26 -2 -5 7 -7 20 -6 25 2 29 20 9 40
-9 9 -13 7 -18 -8z"/>
<path d="M1975 576 c-24 -20 -28 -27 -17 -37 6 -7 12 -24 12 -38 0 -26 0 -25
-20 6 -13 22 -25 31 -35 27 -8 -4 -15 -10 -15 -15 0 -5 -8 -9 -17 -9 -13 0
-14 -3 -5 -12 16 -16 15 -31 -2 -25 -14 6 -11 -15 9 -66 6 -14 2 -20 -14 -24
-11 -3 -18 -9 -16 -14 8 -12 -73 -32 -101 -25 -29 8 -30 -3 -5 -45 11 -17 17
-37 15 -44 -8 -20 60 -9 136 22 80 32 111 65 104 110 -4 22 0 40 14 60 11 15
23 42 26 58 6 27 5 28 -8 12 -13 -16 -14 -16 -21 10 -4 15 -10 22 -12 15 -3
-6 -9 -9 -14 -6 -6 3 -6 10 -1 17 9 12 23 47 19 47 -1 0 -15 -11 -32 -24z
m-106 -273 c0 -11 -3 -13 -6 -5 -2 6 -9 10 -14 6 -5 -3 -9 0 -9 5 0 6 7 11 15
11 8 0 15 -8 14 -17z m-19 -27 c0 -3 -4 -8 -10 -11 -5 -3 -10 -1 -10 4 0 6 5
11 10 11 6 0 10 -2 10 -4z"/>
<path d="M1205 483 c4 -10 17 -45 29 -78 12 -33 25 -61 29 -62 13 -4 67 9 63
16 -3 3 13 5 35 3 21 -2 42 -8 45 -14 3 -5 11 -4 20 3 21 17 17 29 -10 29 -14
0 -27 4 -31 10 -3 5 -13 6 -22 3 -10 -4 -14 -2 -10 4 6 9 -21 28 -31 23 -2 -1
-16 9 -30 22 -58 53 -100 73 -87 41z"/>
<path d="M1669 425 c-1 -3 -2 -8 -3 -12 -1 -5 -5 -13 -9 -19 -4 -7 0 -15 9
-18 23 -9 28 -1 15 22 -6 11 -7 22 -4 26 3 3 3 6 0 6 -4 0 -8 -2 -8 -5z"/>
<path d="M1507 410 c8 -9 9 -18 3 -25 -7 -8 -5 -12 5 -12 20 0 19 22 -2 38
-15 11 -16 11 -6 -1z"/>
<path d="M1600 360 c12 -8 12 -10 1 -10 -8 0 -12 -2 -9 -5 7 -8 38 5 38 16 0
5 -10 9 -22 9 -19 0 -20 -2 -8 -10z"/>
<path d="M1681 328 c0 -10 -7 -18 -15 -18 -8 0 -18 -5 -22 -12 -5 -8 3 -9 29
-5 23 3 37 1 40 -6 3 -7 4 -2 4 9 -1 13 -6 20 -13 17 -7 -2 -14 4 -17 14 -4
16 -5 16 -6 1z"/>
<path d="M1540 320 c-9 -6 -10 -10 -3 -10 6 0 15 5 18 10 8 12 4 12 -15 0z"/>
<path d="M747 288 c9 -46 50 -138 62 -138 13 0 -42 163 -57 168 -8 2 -10 -6
-5 -30z"/>
<path d="M1630 274 c0 -3 5 -14 10 -25 14 -24 -5 -26 -19 -1 -9 14 -10 13 -11
-12 0 -22 4 -27 16 -22 9 3 36 6 60 6 48 0 54 10 24 40 -18 18 -80 29 -80 14z"/>
<path d="M2070 180 c0 -5 9 -10 20 -10 11 0 20 5 20 10 0 6 -9 10 -20 10 -11
0 -20 -4 -20 -10z"/>
<path d="M1638 113 c7 -3 16 -2 19 1 4 3 -2 6 -13 5 -11 0 -14 -3 -6 -6z"/>
</g>
</svg>
